<svg width="169" height="136" viewBox="0 0 169 136" fill="none" xmlns="http://www.w3.org/2000/svg">
<path d="M139.39 31.2648C132.475 27.8693 125.27 26.5063 117.408 27.3791C107.724 28.4512 100.075 29.7145 90.8085 26.4785C83.0175 23.7605 75.902 19.7034 68.471 16.3398C53.2712 9.42527 38.1826 7.28515 26.7872 20.9229C20.725 28.1802 16.1207 36.5135 12.9429 45.3051C7.80522 59.4888 3.58306 75.195 5.89859 90.0084C8.82743 108.787 26.7872 117.603 48.2713 110.8C56.9601 108.05 65.3466 104.025 74.6132 102.873C94.004 100.458 109.986 116.423 133.239 112.541C173.318 105.862 170.358 46.4688 139.39 31.2648Z" fill="#00AAE6"/>
<path opacity="0.7" d="M139.39 31.2648C132.475 27.8693 125.27 26.5063 117.408 27.3791C107.724 28.4512 100.075 29.7145 90.8085 26.4785C83.0175 23.7605 75.902 19.7034 68.471 16.3398C53.2712 9.42527 38.1826 7.28515 26.7872 20.9229C20.725 28.1802 16.1207 36.5135 12.9429 45.3051C7.80522 59.4888 3.58306 75.195 5.89859 90.0084C8.82743 108.787 26.7872 117.603 48.2713 110.8C56.9601 108.05 65.3466 104.025 74.6132 102.873C94.004 100.458 109.986 116.423 133.239 112.541C173.318 105.862 170.358 46.4688 139.39 31.2648Z" fill="white"/>
<path d="M145.456 15.9651C142.634 14.5822 141.354 15.7339 140.328 14.5822C139.301 13.4304 143.15 10.4414 135.439 7.45243C135.439 7.45243 134.928 1.01216 124.408 0.781009C113.888 0.549861 116.724 7.22128 113.901 8.83135C111.079 10.4414 110.31 7.92669 107.488 9.52081C104.666 11.1149 105.95 14.351 103.644 14.8093C101.337 15.2676 98.2527 12.741 95.4305 14.351C92.6083 15.9611 92.6083 17.34 91.3283 17.34C90.0483 17.34 87.4795 16.4194 85.9417 17.34C84.404 18.2606 82.604 19.4124 82.604 19.4124H147.492C147.492 19.4124 148.279 17.344 145.456 15.9651Z" fill="#00AAE6"/>
<path opacity="0.5" d="M145.456 15.9651C142.634 14.5822 141.354 15.7339 140.328 14.5822C139.301 13.4304 143.15 10.4414 135.439 7.45243C135.439 7.45243 134.928 1.01216 124.408 0.781009C113.888 0.549861 116.724 7.22128 113.901 8.83135C111.079 10.4414 110.31 7.92669 107.488 9.52081C104.666 11.1149 105.95 14.351 103.644 14.8093C101.337 15.2676 98.2527 12.741 95.4305 14.351C92.6083 15.9611 92.6083 17.34 91.3283 17.34C90.0483 17.34 87.4795 16.4194 85.9417 17.34C84.404 18.2606 82.604 19.4124 82.604 19.4124H147.492C147.492 19.4124 148.279 17.344 145.456 15.9651Z" fill="white"/>
<path d="M71.8708 67.6667C69.8886 66.6982 68.9864 67.5033 68.2664 66.6983C67.5464 65.8932 70.2486 63.789 64.8442 61.6887C64.8442 61.6887 64.4842 57.1654 57.0932 57.002C49.7022 56.8386 51.6888 61.5253 49.7066 62.6571C47.7244 63.789 47.1867 62.0115 45.2045 63.1433C43.2223 64.2752 44.12 66.5349 42.5023 66.8577C40.8845 67.1805 38.7157 65.403 36.7246 66.5349C34.7335 67.6667 34.7424 68.6351 33.8446 68.6351C32.9469 68.6351 31.138 67.9895 30.058 68.6351C28.978 69.2807 27.7158 70.0898 27.7158 70.0898H73.3107C73.3107 70.0898 73.853 68.6351 71.8708 67.6667Z" fill="white"/>
<path opacity="0.5" d="M71.8708 67.6667C69.8886 66.6982 68.9864 67.5033 68.2664 66.6983C67.5464 65.8932 70.2486 63.789 64.8442 61.6887C64.8442 61.6887 64.4842 57.1654 57.0932 57.002C49.7022 56.8386 51.6888 61.5253 49.7066 62.6571C47.7244 63.789 47.1867 62.0115 45.2045 63.1433C43.2223 64.2752 44.12 66.5349 42.5023 66.8577C40.8845 67.1805 38.7157 65.403 36.7246 66.5349C34.7335 67.6667 34.7424 68.6351 33.8446 68.6351C32.9469 68.6351 31.138 67.9895 30.058 68.6351C28.978 69.2807 27.7158 70.0898 27.7158 70.0898H73.3107C73.3107 70.0898 73.853 68.6351 71.8708 67.6667Z" fill="white"/>
<path d="M128.221 135.006H156.31C155.772 131.926 153.563 132.468 153.27 127.693C153.123 125.302 155.607 122.313 155.39 119.157C155.212 116.554 152.354 113.888 152.132 110.911C151.932 108.225 154.354 105.244 154.136 102.351C153.91 99.6168 151.025 96.9905 150.754 94.145C150.505 91.3553 152.896 88.3623 152.612 85.5566C152.327 82.751 149.381 80.1725 149.056 77.4067C148.732 74.5651 151.047 71.5044 150.692 68.7864C150.318 65.8971 147.279 63.4023 146.865 60.7401C146.421 57.779 148.559 54.6146 148.056 52.0561C147.439 48.9236 144.185 46.6559 143.501 44.3445C142.225 40.0363 142.385 35.8876 140.879 35.6166C139.274 35.3297 138.905 39.3987 137.688 43.9459C137.074 46.2295 133.896 48.545 133.372 51.6814C132.95 54.2201 135.199 57.3087 134.83 60.2578C134.501 62.9001 131.537 65.4388 131.248 68.3122C130.977 71.0142 133.381 73.9912 133.145 76.8168C132.914 79.5627 130.034 82.1811 129.843 84.9708C129.652 87.7605 132.123 90.6778 131.954 93.4316C131.781 96.2532 128.959 98.9194 128.812 101.633C128.661 104.507 131.19 107.404 131.065 110.066C130.928 113.019 128.145 115.722 128.043 118.304C127.919 121.436 130.483 124.326 130.403 126.713C130.234 131.894 127.59 130.814 127.497 134.983L128.221 135.006Z" fill="#00AAE6"/>
<path d="M140.279 43.894V133.843" stroke="#4A4A4A" stroke-miterlimit="10"/>
<path d="M144.666 53.3234L140.092 56.8664L136.35 52.3909" stroke="#4A4A4A" stroke-miterlimit="10"/>
<path d="M144.666 68.9816L140.092 72.5206L136.35 68.0491" stroke="#4A4A4A" stroke-miterlimit="10"/>
<path d="M144.666 83.7036L140.092 87.2465L136.35 82.771" stroke="#4A4A4A" stroke-miterlimit="10"/>
<path d="M144.666 101.227L140.092 104.766L136.35 100.294" stroke="#4A4A4A" stroke-miterlimit="10"/>
<path d="M144.666 118.934L140.092 122.473L136.35 118.001" stroke="#4A4A4A" stroke-miterlimit="10"/>
<path d="M109.088 135.007H130.772C130.355 132.615 128.652 133.046 128.426 129.363C128.31 127.506 130.226 125.211 130.061 122.772C129.923 120.779 127.719 118.703 127.546 116.395C127.39 114.323 129.275 112.011 129.092 109.787C128.919 107.675 126.683 105.651 126.483 103.455C126.283 101.259 128.137 98.9872 127.919 96.8232C127.701 94.6591 125.421 92.6665 125.181 90.5343C124.932 88.3384 126.719 85.9791 126.443 83.8749C126.155 81.6471 123.808 79.7222 123.492 77.6697C123.137 75.3822 124.799 72.9391 124.408 70.9664C123.932 68.5473 121.421 66.7938 120.897 65.0124C119.91 61.6886 120.035 58.4804 118.87 58.2732C117.63 58.05 117.346 61.1904 116.408 64.7055C115.937 66.467 113.479 68.2564 113.075 70.6835C112.75 72.6442 114.484 75.0275 114.199 77.3031C113.946 79.3436 111.661 81.2884 111.435 83.5202C111.226 85.6045 113.084 87.904 112.901 90.084C112.724 92.2042 110.506 94.2247 110.35 96.3768C110.195 98.5289 112.128 100.785 111.981 102.909C111.835 105.033 109.67 107.145 109.559 109.241C109.439 111.457 111.39 113.693 111.297 115.749C111.19 118.029 109.044 120.133 108.964 122.126C108.866 124.541 110.848 126.777 110.786 128.614C110.653 132.599 108.613 131.782 108.542 134.991L109.088 135.007Z" fill="#00AAE6"/>
<path d="M118.399 64.6775V134.11" stroke="#4A4A4A" stroke-miterlimit="10"/>
<path d="M121.781 71.9547L118.253 74.6887L115.364 71.2334" stroke="#4A4A4A" stroke-miterlimit="10"/>
<path d="M121.781 84.0382L118.253 86.7721L115.364 83.3208" stroke="#4A4A4A" stroke-miterlimit="10"/>
<path d="M121.781 95.4044L118.253 98.1383L115.364 94.687" stroke="#4A4A4A" stroke-miterlimit="10"/>
<path d="M121.781 108.931L118.253 111.664L115.364 108.209" stroke="#4A4A4A" stroke-miterlimit="10"/>
<path d="M121.781 122.6L118.253 125.33L115.364 121.879" stroke="#4A4A4A" stroke-miterlimit="10"/>
<path d="M89.7593 134.819V54.2441H94.5014V134.819" fill="#2E353A"/>
<path d="M89.7593 134.819V54.2441H94.5014V134.819" stroke="#2E353A" stroke-linecap="round" stroke-linejoin="round"/>
<path d="M87.3906 134.819V54.2441H92.1328V134.819" fill="#00AAE6"/>
<path d="M87.3906 134.819V54.2441H92.1328V134.819" stroke="#2E353A" stroke-linecap="round" stroke-linejoin="round"/>
<g style="mix-blend-mode:multiply" opacity="0.3">
<path d="M92.1328 54.2441H87.3906V63.8089H92.1328V54.2441Z" fill="#2E353A"/>
</g>
<path d="M107.626 22.7881H72.4883L87.8036 56.5198H122.945V36.5215C122.945 34.7177 122.549 32.9315 121.779 31.265C121.009 29.5986 119.881 28.0844 118.458 26.8091C117.035 25.5338 115.347 24.5223 113.488 23.8323C111.629 23.1424 109.637 22.7876 107.626 22.7881Z" fill="#00AAE6" stroke="#2E353A" stroke-linecap="round" stroke-linejoin="round"/>
<g style="mix-blend-mode:multiply" opacity="0.3">
<path d="M85.1235 50.6135L87.7902 56.5197H122.945V36.5214C122.945 36.2185 122.945 35.9156 122.91 35.6167H85.1324L85.1235 50.6135Z" fill="#4A4A4A"/>
</g>
<path d="M107.368 35.6167H103.67" stroke="#2E353A" stroke-linecap="round" stroke-linejoin="round"/>
<path d="M122.91 35.6167H111.719" stroke="#2E353A" stroke-linecap="round" stroke-linejoin="round"/>
<path d="M72.4882 22.7881C76.5513 22.7881 80.4479 24.2354 83.321 26.8117C86.194 29.3879 87.808 32.8821 87.808 36.5255V56.5238H57.1685V36.5215C57.1696 32.8788 58.7842 29.3857 61.6571 26.8103C64.53 24.2349 68.426 22.7881 72.4882 22.7881Z" fill="#2E353A" stroke="#2E353A" stroke-linecap="round" stroke-linejoin="round"/>
<path d="M87.8039 54.2441H61.4043V56.5198H87.8039V54.2441Z" fill="#00AAE6" stroke="#2E353A" stroke-linecap="round" stroke-linejoin="round"/>
<path d="M87.8037 54.2441H33.1689V56.5198H87.8037V54.2441Z" fill="#00AAE6" stroke="#2E353A" stroke-linecap="round" stroke-linejoin="round"/>
<path opacity="0.3" d="M87.8039 54.2441H61.4043V56.5198H87.8039V54.2441Z" fill="#4A4A4A"/>
<path d="M109.91 14.658H98.9458V21.5645H109.91V14.658Z" fill="#2E353A" stroke="#2E353A" stroke-linecap="round" stroke-linejoin="round"/>
<path d="M99.8347 14.658H97.4658V36.1787H99.8347V14.658Z" fill="white" stroke="#2E353A" stroke-linecap="round" stroke-linejoin="round"/>
<path d="M98.6481 39.1C100.121 39.1 101.315 38.0294 101.315 36.7088C101.315 35.3882 100.121 34.3176 98.6481 34.3176C97.1753 34.3176 95.9814 35.3882 95.9814 36.7088C95.9814 38.0294 97.1753 39.1 98.6481 39.1Z" fill="#2E353A" stroke="#2E353A" stroke-linecap="round" stroke-linejoin="round"/>
<path d="M59.542 28.3115C65.7286 31.1291 76.484 35.6445 86.4038 37.9161" stroke="white" stroke-linecap="round" stroke-linejoin="round" stroke-dasharray="2 4"/>
<path d="M54.3511 25.8606C54.3511 25.8606 56.3333 26.8649 59.5421 28.3275" stroke="#2E353A" stroke-linecap="round" stroke-linejoin="round" stroke-dasharray="2 4"/>
<path d="M52.1245 25.7131L56.5733 16.236L24.3115 9.17798L52.1245 25.7131Z" fill="white" stroke="#2E353A" stroke-width="1.2629" stroke-linecap="round" stroke-linejoin="round"/>
<path d="M54.2933 17.3838L52.1245 25.7131L24.3115 9.17798L54.2933 17.3838Z" fill="#00AAE6" stroke="#2E353A" stroke-width="1.2629" stroke-linecap="round" stroke-linejoin="round"/>
<path d="M54.2933 17.3838L49.2312 21.2734L24.3115 9.17798L54.2933 17.3838Z" fill="white" stroke="#2E353A" stroke-width="1.2629" stroke-linecap="round" stroke-linejoin="round"/>
<path d="M56.5733 16.236L61.0799 14.594L24.3115 9.17798L56.5733 16.236Z" fill="white" stroke="#2E353A" stroke-width="1.2629" stroke-linecap="round" stroke-linejoin="round"/>
<path d="M45.8579 24.2385L46.9023 24.8124" stroke="#2E353A" stroke-linecap="round" stroke-linejoin="round"/>
<path d="M40.1602 21.106L43.6579 23.0269" stroke="#2E353A" stroke-linecap="round" stroke-linejoin="round"/>
<path d="M36.2314 43.8543V33.5762L69.0221 38.3028L36.2314 43.8543Z" fill="white" stroke="#2E353A" stroke-width="1.2629" stroke-linecap="round" stroke-linejoin="round"/>
<path d="M37.8359 35.4253L36.2314 43.8542L69.0221 38.3027L37.8359 35.4253Z" fill="#00AAE6" stroke="#2E353A" stroke-width="1.2629" stroke-linecap="round" stroke-linejoin="round"/>
<path d="M37.8354 35.4253L40.8176 40.7696L69.0217 38.3027L37.8354 35.4253Z" fill="white" stroke="#2E353A" stroke-width="1.2629" stroke-linecap="round" stroke-linejoin="round"/>
<path d="M36.2315 33.5761L32.7915 30.4915L69.0221 38.3027L36.2315 33.5761Z" fill="white" stroke="#2E353A" stroke-width="1.2629" stroke-linecap="round" stroke-linejoin="round"/>
<path d="M47.9731 43.6629L50.8176 43.1448" stroke="#2E353A" stroke-linecap="round" stroke-linejoin="round"/>
<path d="M37.9824 45.4844L45.1334 44.1812" stroke="#2E353A" stroke-linecap="round" stroke-linejoin="round"/>
<path d="M32.2802 43.2205C32.2802 43.2205 6.50279 47.2058 1.61397 67.9294C-3.27485 88.6531 22.5026 89.8487 26.9469 79.8854C31.3913 69.9221 11.836 65.9368 7.39166 75.5015C2.94728 85.0663 16.2804 101.406 34.5024 102.203C49.6444 102.865 92.0971 87.0151 118.501 83.0099C118.501 83.0099 138.056 78.1558 168.278 79.2199" stroke="#2E353A" stroke-linecap="round" stroke-linejoin="round" stroke-dasharray="2 4"/>
<path d="M159.537 108.181H166.945" stroke="#2E353A" stroke-linecap="round" stroke-linejoin="round"/>
<path d="M159.537 118.009H166.945" stroke="#2E353A" stroke-linecap="round" stroke-linejoin="round"/>
<path d="M3.53857 117.746H158.648V108.444H3.53857" fill="white"/>
<path d="M3.53857 117.746H158.648V108.444H3.53857" stroke="#2E353A" stroke-linecap="round" stroke-linejoin="round"/>
<path d="M14.3208 134.883V88.0875C14.3209 87.9727 14.3469 87.8591 14.3973 87.7536C14.4478 87.6481 14.5215 87.5529 14.6141 87.4737L18.6674 84.0503C18.8499 83.8973 19.0925 83.8152 19.3423 83.8219C19.5921 83.8286 19.8288 83.9236 20.0007 84.0862L23.5562 87.4777C23.7175 87.6356 23.8078 87.8415 23.8096 88.0556V134.883" fill="#2E353A"/>
<path d="M14.3208 134.883V88.0875C14.3209 87.9727 14.3469 87.8591 14.3973 87.7536C14.4478 87.6481 14.5215 87.5529 14.6141 87.4737L18.6674 84.0503C18.8499 83.8973 19.0925 83.8152 19.3423 83.8219C19.5921 83.8286 19.8288 83.9236 20.0007 84.0862L23.5562 87.4777C23.7175 87.6356 23.8078 87.8415 23.8096 88.0556V134.883" stroke="#2E353A" stroke-linecap="round" stroke-linejoin="round"/>
<path d="M13.1694 135.282V88.0874C13.1693 87.9722 13.1957 87.8583 13.2469 87.7527C13.2982 87.6471 13.3732 87.5521 13.4672 87.4737L17.5205 84.0503C17.6106 83.974 17.7166 83.9144 17.8324 83.875C17.9482 83.8355 18.0716 83.8169 18.1954 83.8202C18.3193 83.8235 18.4412 83.8487 18.5542 83.8944C18.6671 83.94 18.7689 84.0052 18.8538 84.0861L22.4093 87.4776C22.5725 87.6344 22.663 87.841 22.6626 88.0555V135.282" fill="white"/>
<path d="M13.1694 135.282V88.0874C13.1693 87.9722 13.1957 87.8583 13.2469 87.7527C13.2982 87.6471 13.3732 87.5521 13.4672 87.4737L17.5205 84.0503C17.6106 83.974 17.7166 83.9144 17.8324 83.875C17.9482 83.8355 18.0716 83.8169 18.1954 83.8202C18.3193 83.8235 18.4412 83.8487 18.5542 83.8944C18.6671 83.94 18.769 84.0052 18.8538 84.0861L22.4093 87.4776C22.5725 87.6344 22.663 87.841 22.6626 88.0555V135.282" stroke="#2E353A" stroke-linecap="round" stroke-linejoin="round"/>
<path d="M48.498 134.883V88.0874C48.4981 87.9726 48.5242 87.8591 48.5746 87.7536C48.625 87.6481 48.6987 87.5529 48.7914 87.4737L52.8491 84.0503C52.9392 83.974 53.0452 83.9144 53.161 83.875C53.2768 83.8355 53.4002 83.8169 53.5241 83.8202C53.6479 83.8235 53.7698 83.8487 53.8828 83.8944C53.9957 83.94 54.0976 84.0052 54.1824 84.0861L57.7379 87.4776C57.9011 87.6344 57.9917 87.841 57.9912 88.0555V134.883" fill="#2E353A"/>
<path d="M48.498 134.883V88.0874C48.4981 87.9726 48.5242 87.8591 48.5746 87.7536C48.625 87.6481 48.6987 87.5529 48.7914 87.4737L52.8491 84.0503C52.9392 83.974 53.0452 83.9144 53.161 83.875C53.2768 83.8355 53.4002 83.8169 53.5241 83.8202C53.6479 83.8235 53.7698 83.8487 53.8828 83.8944C53.9957 83.94 54.0976 84.0052 54.1824 84.0861L57.7379 87.4776C57.9011 87.6344 57.9917 87.841 57.9912 88.0555V134.883" stroke="#2E353A" stroke-linecap="round" stroke-linejoin="round"/>
<path d="M47.5381 135.282V88.0875C47.538 87.9723 47.5643 87.8583 47.6156 87.7527C47.6668 87.6471 47.7418 87.5521 47.8359 87.4737L51.8891 84.0503C52.0717 83.8973 52.3143 83.8152 52.564 83.8219C52.8138 83.8286 53.0505 83.9236 53.2224 84.0862L56.778 87.4777C56.9424 87.6341 57.0345 87.8406 57.0357 88.0556V135.282" fill="white"/>
<path d="M47.5381 135.282V88.0875C47.538 87.9723 47.5643 87.8583 47.6156 87.7527C47.6668 87.6471 47.7418 87.5521 47.8359 87.4737L51.8891 84.0503C52.0717 83.8973 52.3143 83.8152 52.564 83.8219C52.8138 83.8286 53.0505 83.9236 53.2224 84.0862L56.778 87.4777C56.9424 87.6341 57.0345 87.8406 57.0357 88.0556V135.282" stroke="#2E353A" stroke-linecap="round" stroke-linejoin="round"/>
<path d="M82.8662 134.883V88.0875C82.8661 87.9723 82.8925 87.8583 82.9437 87.7527C82.9949 87.6471 83.0699 87.5521 83.164 87.4737L87.2173 84.0503C87.3998 83.8973 87.6424 83.8152 87.8922 83.8219C88.1419 83.8286 88.3786 83.9236 88.5506 84.0862L92.1061 87.4777C92.2705 87.6341 92.3626 87.8406 92.3639 88.0556V135.282" fill="#2E353A"/>
<path d="M82.8662 134.883V88.0875C82.8661 87.9723 82.8925 87.8583 82.9437 87.7527C82.9949 87.6471 83.0699 87.5521 83.164 87.4737L87.2173 84.0503C87.3998 83.8973 87.6424 83.8152 87.8922 83.8219C88.1419 83.8286 88.3786 83.9236 88.5506 84.0862L92.1061 87.4777C92.2705 87.6341 92.3626 87.8406 92.3639 88.0556V135.282" stroke="#2E353A" stroke-linecap="round" stroke-linejoin="round"/>
<path d="M81.9106 135.282V88.0874C81.9107 87.9726 81.9368 87.8591 81.9872 87.7536C82.0376 87.6481 82.1114 87.5529 82.204 87.4737L86.2617 84.0503C86.3518 83.974 86.4578 83.9144 86.5736 83.875C86.6894 83.8355 86.8128 83.8169 86.9366 83.8202C87.0605 83.8235 87.1824 83.8487 87.2954 83.8944C87.4083 83.94 87.5102 84.0052 87.595 84.0861L91.1505 87.4776C91.3137 87.6344 91.4043 87.841 91.4038 88.0555V135.282" fill="white"/>
<path d="M81.9106 135.282V88.0874C81.9107 87.9726 81.9368 87.8591 81.9872 87.7536C82.0376 87.6481 82.1114 87.5529 82.204 87.4737L86.2617 84.0503C86.3518 83.974 86.4578 83.9144 86.5736 83.875C86.6894 83.8355 86.8128 83.8169 86.9366 83.8202C87.0605 83.8235 87.1824 83.8487 87.2954 83.8944C87.4083 83.94 87.5102 84.0052 87.595 84.0861L91.1505 87.4776C91.3137 87.6344 91.4043 87.841 91.4038 88.0555V135.282" stroke="#2E353A" stroke-linecap="round" stroke-linejoin="round"/>
<path d="M117.239 134.883V88.0875C117.239 87.9727 117.265 87.8591 117.316 87.7536C117.366 87.6481 117.44 87.5529 117.533 87.4737L121.586 84.0503C121.768 83.8973 122.011 83.8152 122.261 83.8219C122.511 83.8286 122.747 83.9236 122.919 84.0862L126.475 87.4777C126.636 87.6356 126.726 87.8415 126.728 88.0556V134.883" fill="#2E353A"/>
<path d="M117.239 134.883V88.0875C117.239 87.9727 117.265 87.8591 117.316 87.7536C117.366 87.6481 117.44 87.5529 117.533 87.4737L121.586 84.0503C121.768 83.8973 122.011 83.8152 122.261 83.8219C122.511 83.8286 122.747 83.9236 122.919 84.0862L126.475 87.4777C126.636 87.6356 126.726 87.8415 126.728 88.0556V134.883" stroke="#2E353A" stroke-linecap="round" stroke-linejoin="round"/>
<path d="M116.279 135.282V88.0874C116.279 87.9722 116.306 87.8583 116.357 87.7527C116.408 87.6471 116.483 87.5521 116.577 87.4737L120.63 84.0503C120.72 83.974 120.826 83.9144 120.942 83.875C121.058 83.8355 121.181 83.8169 121.305 83.8202C121.429 83.8235 121.551 83.8487 121.664 83.8944C121.777 83.94 121.879 84.0052 121.964 84.0861L125.519 87.4776C125.682 87.6344 125.773 87.841 125.772 88.0555V135.282" fill="white"/>
<path d="M116.279 135.282V88.0874C116.279 87.9722 116.306 87.8583 116.357 87.7527C116.408 87.6471 116.483 87.5521 116.577 87.4737L120.63 84.0503C120.72 83.974 120.826 83.9144 120.942 83.875C121.058 83.8355 121.181 83.8169 121.305 83.8202C121.429 83.8235 121.551 83.8487 121.664 83.8944C121.777 83.94 121.879 84.0052 121.964 84.0861L125.519 87.4776C125.682 87.6344 125.773 87.841 125.772 88.0555V135.282" stroke="#2E353A" stroke-linecap="round" stroke-linejoin="round"/>
<path d="M151.607 134.883V88.0874C151.608 87.9726 151.634 87.8591 151.684 87.7536C151.734 87.6481 151.808 87.5529 151.901 87.4737L155.958 84.0503C156.049 83.974 156.155 83.9144 156.27 83.875C156.386 83.8355 156.51 83.8169 156.633 83.8202C156.757 83.8235 156.879 83.8487 156.992 83.8944C157.105 83.94 157.207 84.0052 157.292 84.0861L160.847 87.4776C161.01 87.6344 161.101 87.841 161.101 88.0555V134.883" fill="#2E353A"/>
<path d="M151.607 134.883V88.0874C151.608 87.9726 151.634 87.8591 151.684 87.7536C151.734 87.6481 151.808 87.5529 151.901 87.4737L155.958 84.0503C156.049 83.974 156.155 83.9144 156.27 83.875C156.386 83.8355 156.51 83.8169 156.633 83.8202C156.757 83.8235 156.879 83.8487 156.992 83.8944C157.105 83.94 157.207 84.0052 157.292 84.0861L160.847 87.4776C161.01 87.6344 161.101 87.841 161.101 88.0555V134.883" stroke="#2E353A" stroke-linecap="round" stroke-linejoin="round"/>
<path d="M150.647 135.282V88.0875C150.647 87.9723 150.674 87.8583 150.725 87.7527C150.776 87.6471 150.851 87.5521 150.945 87.4737L154.999 84.0503C155.181 83.8973 155.424 83.8152 155.673 83.8219C155.923 83.8286 156.16 83.9236 156.332 84.0862L159.887 87.4777C160.052 87.6341 160.144 87.8406 160.145 88.0556V135.282" fill="white"/>
<path d="M150.647 135.282V88.0875C150.647 87.9723 150.674 87.8583 150.725 87.7527C150.776 87.6471 150.851 87.5521 150.945 87.4737L154.999 84.0503C155.181 83.8973 155.424 83.8152 155.673 83.8219C155.923 83.8286 156.16 83.9236 156.332 84.0862L159.887 87.4777C160.052 87.6341 160.144 87.8406 160.145 88.0556V135.282" stroke="#2E353A" stroke-linecap="round" stroke-linejoin="round"/>
<path d="M18.8496 84.0862V87.4976" stroke="#2E353A" stroke-linecap="round" stroke-linejoin="round"/>
<path d="M20.374 85.8477V93.9219" stroke="#2E353A" stroke-linecap="round" stroke-linejoin="round"/>
<path d="M49.4092 86.5093V96.7237" stroke="#2E353A" stroke-linecap="round" stroke-linejoin="round"/>
<path d="M50.8804 85.1899V89.6376" stroke="#2E353A" stroke-linecap="round" stroke-linejoin="round"/>
<path d="M86.2617 84.0503V94.0893" stroke="#2E353A" stroke-linecap="round" stroke-linejoin="round"/>
<path d="M88.373 84.8594V99.6927" stroke="#2E353A" stroke-linecap="round" stroke-linejoin="round"/>
<path d="M117.959 86.5093V97.712" stroke="#2E353A" stroke-linecap="round" stroke-linejoin="round"/>
<path d="M122.737 85.1899V87.9916" stroke="#2E353A" stroke-linecap="round" stroke-linejoin="round"/>
<path d="M153.794 85.0227V90.9568" stroke="#2E353A" stroke-linecap="round" stroke-linejoin="round"/>
<path d="M157.839 85.6843V102.821" stroke="#2E353A" stroke-linecap="round" stroke-linejoin="round"/>
<path d="M150.488 110.732H146.443" stroke="#2E353A" stroke-linecap="round" stroke-linejoin="round"/>
<path d="M150.488 113.534H136.337" stroke="#2E353A" stroke-linecap="round" stroke-linejoin="round"/>
<path d="M97.7416 113.534H91.3105" stroke="#2E353A" stroke-linecap="round" stroke-linejoin="round"/>
<path d="M63.9291 113.534H57.498" stroke="#2E353A" stroke-linecap="round" stroke-linejoin="round"/>
<path d="M13.0228 112.051H6.5918" stroke="#2E353A" stroke-linecap="round" stroke-linejoin="round"/>
<path d="M13.023 114.685H10.4497" stroke="#2E353A" stroke-linecap="round" stroke-linejoin="round"/>
<path d="M94.4349 112.051H91.3105" stroke="#2E353A" stroke-linecap="round" stroke-linejoin="round"/>
<path d="M60.2533 115.18H57.1289" stroke="#2E353A" stroke-linecap="round" stroke-linejoin="round"/>
<path d="M47.2045 115.18H44.0801" stroke="#2E353A" stroke-linecap="round" stroke-linejoin="round"/>
<path d="M162.981 113.534H160.225" stroke="#2E353A" stroke-linecap="round" stroke-linejoin="round"/>
<path d="M166.656 113.534H165.003" stroke="#2E353A" stroke-linecap="round" stroke-linejoin="round"/>
<path d="M22.5026 96.4009C22.5026 96.4009 21.3915 104.965 20.0582 113.729C18.7249 122.493 21.1693 131.46 21.8359 132.257" stroke="#2E353A" stroke-linecap="round" stroke-linejoin="round"/>
<path d="M18.1074 113.737C18.3208 112.027 18.4985 110.947 18.4985 110.947" stroke="#2E353A" stroke-linecap="round" stroke-linejoin="round"/>
<path d="M21.3872 131.26C21.3872 131.26 17.3872 130.463 17.3872 124.087C17.3872 121.468 17.5739 118.786 17.7961 116.515" stroke="#2E353A" stroke-linecap="round" stroke-linejoin="round"/>
<path d="M54.9468 86.2383C54.9468 86.2383 55.8356 86.8361 54.2801 93.6111C52.7246 100.386 52.9468 110.349 54.9468 115.929" stroke="#2E353A" stroke-linecap="round" stroke-linejoin="round"/>
<path d="M57.169 98.792C57.169 98.792 54.9468 104.77 56.5024 113.139" stroke="#2E353A" stroke-linecap="round" stroke-linejoin="round"/>
<path d="M82.502 102.574C82.502 102.574 83.6131 108.353 84.7242 114.327C85.8353 120.301 84.9464 128.674 84.0575 130.862C83.1687 133.05 82.2798 134.847 82.2798 134.847" stroke="#2E353A" stroke-linecap="round" stroke-linejoin="round"/>
<path d="M86.6885 131.918C85.6974 134.644 84.4663 131.46 84.4663 131.46" stroke="#2E353A" stroke-linecap="round" stroke-linejoin="round"/>
<path d="M86.6484 111.545C86.6484 111.545 88.7417 121.233 87.5595 128.526" stroke="#2E353A" stroke-linecap="round" stroke-linejoin="round"/>
<path d="M82.0576 114.733C82.0576 114.733 84.2798 118.918 82.2798 122.903" stroke="#2E353A" stroke-linecap="round" stroke-linejoin="round"/>
<path d="M123.523 115.323C123.821 116.541 124.211 117.74 124.692 118.91" stroke="#2E353A" stroke-linecap="round" stroke-linejoin="round"/>
<path d="M125.359 94.6074C123.949 98.6212 123.054 102.766 122.692 106.962C122.56 109.085 122.692 111.214 123.088 113.311" stroke="#2E353A" stroke-linecap="round" stroke-linejoin="round"/>
<path d="M121.137 112.932C121.137 112.932 123.137 119.707 124.248 122.098C125.359 124.489 124.914 130.264 123.581 133.054" stroke="#2E353A" stroke-linecap="round" stroke-linejoin="round"/>
<path d="M151.127 97.5964C151.127 97.5964 155.572 104.77 151.35 116.523" stroke="#2E353A" stroke-linecap="round" stroke-linejoin="round"/>
<path d="M155.212 109.847C155.238 112.087 155.016 114.924 154.016 117.316C152.016 122.098 151.127 123.692 151.127 123.692" stroke="#2E353A" stroke-linecap="round" stroke-linejoin="round"/>
<path d="M154.905 105.966C154.905 105.966 155.052 106.822 155.141 108.142" stroke="#2E353A" stroke-linecap="round" stroke-linejoin="round"/>
</svg>
