<svg width="162" height="143" viewBox="0 0 162 143" fill="none" xmlns="http://www.w3.org/2000/svg">
<path d="M138.39 29.2648C131.475 25.8693 124.27 24.5063 116.408 25.3791C106.724 26.4512 99.075 27.7145 89.8085 24.4785C82.0175 21.7605 74.902 17.7034 67.471 14.3398C52.2712 7.42527 37.1826 5.28515 25.7872 18.9229C19.725 26.1802 15.1207 34.5135 11.9429 43.3051C6.80522 57.4888 2.58306 73.195 4.89859 88.0084C7.82743 106.787 25.7872 115.603 47.2713 108.8C55.9601 106.05 64.3466 102.025 73.6132 100.873C93.004 98.4579 108.986 114.423 132.239 110.541C172.318 103.862 169.358 44.4688 138.39 29.2648Z" fill="#00AAE6"/>
<path opacity="0.7" d="M138.39 29.2648C131.475 25.8693 124.27 24.5063 116.408 25.3791C106.724 26.4512 99.075 27.7145 89.8085 24.4785C82.0175 21.7605 74.902 17.7034 67.471 14.3398C52.2712 7.42527 37.1826 5.28515 25.7872 18.9229C19.725 26.1802 15.1207 34.5135 11.9429 43.3051C6.80522 57.4888 2.58306 73.195 4.89859 88.0084C7.82743 106.787 25.7872 115.603 47.2713 108.8C55.9601 106.05 64.3466 102.025 73.6132 100.873C93.004 98.4579 108.986 114.423 132.239 110.541C172.318 103.862 169.358 44.4688 138.39 29.2648Z" fill="white"/>
<path d="M134.144 135.258C134.402 134.283 133.746 133.33 133.006 132.635C132.265 131.94 131.385 131.312 131.001 130.393C130.38 128.898 131.215 126.964 130.155 125.719C129.53 124.985 128.409 124.744 127.855 123.958C127.601 123.525 127.432 123.052 127.356 122.561C126.767 120.078 125.492 117.793 123.663 115.944C123.539 118.155 124.039 120.357 125.11 122.32C125.542 123.103 126.068 123.867 126.211 124.741C126.442 126.161 125.616 127.621 125.98 129.015C126.398 130.61 128.27 131.676 128.358 133.317C128.433 134.705 127.169 135.917 127.261 137.308C127.34 137.904 127.567 138.474 127.923 138.969C129.044 140.753 130.692 141.981 133.189 141.939L136.247 142.043L134.144 135.258Z" fill="#00AAE6"/>
<g opacity="0.3">
<path d="M134.144 135.258C134.402 134.283 133.746 133.33 133.006 132.635C132.265 131.94 131.385 131.312 131.001 130.393C130.38 128.898 131.215 126.964 130.155 125.719C129.53 124.985 128.409 124.744 127.855 123.958C127.601 123.525 127.432 123.052 127.356 122.561C126.767 120.078 125.492 117.793 123.663 115.944C123.539 118.155 124.039 120.357 125.11 122.32C125.542 123.103 126.068 123.867 126.211 124.741C126.442 126.161 125.616 127.621 125.98 129.015C126.398 130.61 128.27 131.676 128.358 133.317C128.433 134.705 127.169 135.917 127.261 137.308C127.34 137.904 127.567 138.474 127.923 138.969C129.044 140.753 130.692 141.981 133.189 141.939L136.247 142.043L134.144 135.258Z" fill="#4A4A4A"/>
</g>
<path d="M136.79 142.043C137.07 142.084 137.355 142.077 137.633 142.024C137.971 141.976 138.303 141.896 138.625 141.786C139.068 141.636 139.483 141.416 139.851 141.136C140.074 140.963 140.248 140.74 140.358 140.487C140.448 140.205 140.493 139.913 140.493 139.619C140.499 139.303 140.523 138.987 140.565 138.673C140.625 138.339 140.752 138.019 140.938 137.731C141.299 137.126 141.9 136.551 142.094 135.729C142.287 134.907 142.151 134.045 142.009 133.165C141.866 132.284 141.73 131.332 142.08 130.419C142.43 129.506 143.079 128.677 143.415 127.647C143.751 126.616 143.592 125.482 143.663 124.377C143.683 123.816 143.818 123.264 144.061 122.752C144.309 122.233 144.652 121.745 144.92 121.199C145.464 120.097 145.559 118.85 145.708 117.624C145.78 117.007 145.851 116.386 145.926 115.756C145.972 115.122 146.086 114.495 146.265 113.884C146.473 113.267 146.718 112.663 146.999 112.074C147.139 111.768 147.253 111.452 147.339 111.128C147.392 110.795 147.425 110.46 147.438 110.124C147.471 109.448 147.444 108.771 147.356 108.099C147.274 107.423 147.145 106.754 147.071 106.078C147.071 106.039 147.071 105.997 147.071 105.961L147.054 105.828L146.928 105.886C146.281 106.203 145.718 106.658 145.284 107.215C144.856 107.76 144.513 108.361 144.264 108.999C143.755 110.254 143.585 111.573 143.313 112.828C143.12 114.07 142.694 115.269 142.056 116.367C141.716 116.887 141.316 117.364 140.959 117.871C140.581 118.367 140.322 118.936 140.201 119.538C140.021 120.777 140.735 121.862 140.585 122.957C140.515 123.495 140.325 124.013 140.028 124.475C139.749 124.943 139.423 125.378 139.114 125.814C138.798 126.239 138.523 126.69 138.292 127.162C138.076 127.626 137.95 128.122 137.918 128.628C137.844 129.603 137.99 130.552 137.918 131.433C137.833 132.274 137.576 133.091 137.161 133.837C136.794 134.559 136.379 135.209 136.036 135.839C135.865 136.142 135.711 136.454 135.574 136.772C135.449 137.07 135.359 137.381 135.306 137.698C135.213 138.25 135.205 138.811 135.282 139.365C135.361 140.139 135.663 140.876 136.155 141.494C136.23 141.586 136.313 141.672 136.403 141.751C136.464 141.812 136.531 141.867 136.603 141.916L136.78 142.033C136.562 141.866 136.363 141.678 136.186 141.471C135.714 140.851 135.427 140.12 135.357 139.356C135.288 138.808 135.302 138.255 135.397 137.711C135.455 137.402 135.544 137.099 135.666 136.808C135.798 136.506 135.958 136.2 136.135 135.888C136.474 135.264 136.896 134.614 137.273 133.889C137.7 133.132 137.965 132.302 138.054 131.446C138.136 130.542 137.993 129.603 138.054 128.641C138.087 128.151 138.212 127.671 138.424 127.224C138.651 126.76 138.921 126.318 139.233 125.902C139.542 125.466 139.875 125.034 140.16 124.556C140.47 124.075 140.668 123.537 140.741 122.977C140.891 121.807 140.184 120.702 140.368 119.564C140.486 118.987 140.736 118.442 141.102 117.969C141.441 117.472 141.856 116.994 142.202 116.461C142.854 115.346 143.289 114.127 143.486 112.863C143.748 111.599 143.932 110.296 144.434 109.064C144.674 108.444 145.006 107.859 145.42 107.329C145.835 106.793 146.374 106.357 146.996 106.055L146.853 105.98C146.853 106.016 146.853 106.058 146.853 106.097C146.931 106.783 147.06 107.453 147.142 108.122C147.227 108.783 147.254 109.449 147.224 110.114C147.21 110.44 147.178 110.766 147.128 111.089C147.042 111.402 146.928 111.707 146.789 112.002C146.505 112.597 146.258 113.208 146.051 113.832C145.868 114.452 145.754 115.089 145.712 115.733C145.637 116.363 145.564 116.987 145.494 117.605C145.348 118.833 145.253 120.062 144.73 121.128C144.472 121.657 144.129 122.145 143.874 122.681C143.625 123.212 143.485 123.783 143.463 124.364C143.398 125.492 143.551 126.597 143.232 127.614C142.912 128.631 142.246 129.437 141.91 130.383C141.574 131.329 141.699 132.333 141.846 133.197C141.992 134.062 142.141 134.936 141.944 135.716C141.747 136.496 141.186 137.068 140.816 137.692C140.626 137.991 140.498 138.322 140.439 138.667C140.398 138.985 140.377 139.305 140.375 139.625C140.374 139.913 140.33 140.199 140.242 140.474C140.14 140.713 139.978 140.925 139.77 141.091C139.41 141.369 139.005 141.589 138.571 141.741C138.254 141.856 137.926 141.942 137.592 141.998C137.387 142.032 137.179 142.05 136.97 142.053L136.79 142.043Z" fill="#263238"/>
<path d="M146.452 107.583C146.452 107.583 146.452 107.612 146.422 107.67L146.354 107.933C146.296 108.164 146.221 108.512 146.106 108.947C145.99 109.383 145.708 109.87 145.474 110.475C145.194 111.153 144.951 111.845 144.747 112.548C144.512 113.328 144.305 114.196 144.091 115.122C143.905 116.113 143.575 117.075 143.109 117.979C142.861 118.456 142.579 118.937 142.355 119.46C142.135 120.001 141.986 120.565 141.913 121.141C141.759 122.327 141.539 123.505 141.254 124.67C140.643 127.068 140.058 129.35 139.525 131.429C138.992 133.509 138.506 135.368 138.078 136.954C137.65 138.54 137.347 139.781 137.116 140.675C137.008 141.104 136.926 141.442 136.865 141.689C136.842 141.797 136.822 141.885 136.804 141.952C136.798 141.983 136.798 142.015 136.804 142.046C136.818 142.018 136.83 141.989 136.838 141.959C136.858 141.887 136.885 141.803 136.916 141.699C136.987 141.455 137.082 141.117 137.205 140.691L138.224 136.987L139.702 131.494L141.445 124.735C141.732 123.562 141.952 122.375 142.104 121.18C142.174 120.623 142.317 120.077 142.528 119.555C142.742 119.041 143.021 118.564 143.272 118.083C143.738 117.165 144.066 116.189 144.247 115.184C144.458 114.251 144.655 113.39 144.879 112.61C145.103 111.83 145.338 111.138 145.559 110.537C145.78 109.935 146.051 109.438 146.163 108.99C146.276 108.541 146.33 108.203 146.377 107.966C146.394 107.859 146.411 107.771 146.425 107.7C146.442 107.662 146.451 107.623 146.452 107.583Z" fill="#263238"/>
<path d="M135.693 141.855C137.843 141.01 138.92 137.763 138.411 135.596C137.901 133.428 136.746 131.348 136.858 129.128C136.946 127.422 137.789 125.775 137.629 124.072C137.419 121.777 135.418 119.74 135.795 117.462C136.005 116.185 136.95 115.086 137.086 113.799C137.252 112.22 136.185 110.8 135.618 109.308C134.748 107.033 135.054 104.515 135.01 102.084C134.966 99.653 134.412 96.9849 132.394 95.5095C131.759 97.4789 130.994 98.7788 130.75 101.531C130.661 102.506 131.562 104.56 131.395 106.731C131.297 108.031 131.164 109.331 131.056 110.631C130.947 111.931 130.835 113.175 131.123 114.41C131.344 115.356 131.803 116.25 131.922 117.212C132.156 119.022 131.208 120.816 131.341 122.635C131.456 124.176 132.34 125.612 132.326 127.159C132.309 129.33 130.532 131.338 130.967 133.473C131.178 134.53 131.918 135.462 132.007 136.535C132.071 137.37 131.735 138.195 131.783 139.031C131.861 140.373 134.307 141.754 135.71 141.868" fill="#00AAE6"/>
<path d="M132.632 97.5862C132.628 97.624 132.628 97.6621 132.632 97.6999C132.632 97.7844 132.632 97.8982 132.632 98.0249C132.632 98.3206 132.632 98.7561 132.632 99.3248C132.632 99.8935 132.863 100.563 132.972 101.349C133.081 102.136 133.227 103.039 133.312 104.04C133.397 105.041 133.414 106.143 133.434 107.326C133.454 108.509 133.478 109.796 133.893 111.083C134.076 111.732 134.293 112.382 134.429 113.052C134.556 113.746 134.59 114.452 134.531 115.154C134.415 116.647 134.384 118.144 134.436 119.639C134.582 122.707 134.725 125.629 134.851 128.29C134.976 130.952 135.153 133.334 135.272 135.345L135.571 140.103C135.612 140.655 135.642 141.078 135.663 141.403C135.663 141.543 135.683 141.653 135.693 141.728C135.69 141.766 135.69 141.804 135.693 141.842C135.698 141.804 135.698 141.766 135.693 141.728C135.693 141.64 135.693 141.53 135.693 141.403C135.693 141.094 135.663 140.662 135.639 140.103C135.581 138.966 135.5 137.344 135.401 135.342C135.302 133.34 135.163 130.939 135.024 128.284C134.885 125.629 134.766 122.704 134.623 119.636C134.569 118.146 134.6 116.654 134.715 115.167C134.772 114.451 134.734 113.73 134.603 113.023C134.463 112.33 134.242 111.68 134.056 111.04C133.641 109.773 133.624 108.505 133.587 107.326C133.549 106.146 133.526 105.051 133.441 104.034C133.356 103.017 133.23 102.123 133.084 101.336C132.938 100.55 132.744 99.8805 132.7 99.3216C132.656 98.7626 132.673 98.3239 132.659 98.0217C132.659 97.8819 132.659 97.7682 132.659 97.6967C132.655 97.659 132.645 97.622 132.632 97.5862Z" fill="#263238"/>
<path d="M114.371 141.855L65.0387 141.828C62.1894 141.827 59.4574 140.743 57.4436 138.814C55.4297 136.886 54.2989 134.272 54.2998 131.546L54.3236 13.2543C54.3222 11.9035 54.5993 10.5657 55.139 9.31743C55.6787 8.06916 56.4704 6.93492 57.4687 5.97961C58.4671 5.0243 59.6526 4.26665 60.9574 3.75002C62.2621 3.23338 63.6606 2.9679 65.0727 2.96875L114.405 2.99475C117.255 2.99647 119.987 4.08065 122 6.00886C124.014 7.93707 125.145 10.5514 125.144 13.277L125.12 131.569C125.121 132.92 124.843 134.257 124.303 135.505C123.763 136.753 122.971 137.887 121.973 138.842C120.975 139.797 119.79 140.555 118.486 141.071C117.181 141.588 115.783 141.855 114.371 141.855Z" fill="#455A64"/>
<path d="M114.715 6.51113L105.117 6.46888C104.804 6.47438 104.496 6.53878 104.209 6.65841C103.923 6.77805 103.664 6.95056 103.447 7.16608C103.23 7.3816 103.06 7.63589 102.946 7.91441C102.832 8.19293 102.777 8.4902 102.783 8.78922V10.4564C102.789 10.7559 102.734 11.0537 102.619 11.3327C102.505 11.6116 102.334 11.8662 102.117 12.0818C101.899 12.2974 101.639 12.4698 101.352 12.589C101.065 12.7083 100.756 12.7721 100.442 12.7767L81.7197 12.6922C81.4065 12.6851 81.0978 12.6188 80.8115 12.4972C80.5251 12.3756 80.2667 12.201 80.0511 11.9836C79.8355 11.7662 79.6669 11.5101 79.5551 11.2302C79.4432 10.9503 79.3903 10.6519 79.3993 10.3524V8.68523C79.4084 8.38566 79.3554 8.08734 79.2436 7.8074C79.1317 7.52746 78.9631 7.27142 78.7475 7.05399C78.5319 6.83657 78.2735 6.66204 77.9872 6.54043C77.7008 6.41883 77.3922 6.35254 77.0789 6.34539H73.7054L65.3038 6.30964C64.3118 6.30537 63.3285 6.4881 62.4103 6.84741C61.4921 7.20672 60.6569 7.73556 59.9524 8.40373C59.2479 9.07189 58.6879 9.86628 58.3045 10.7415C57.921 11.6167 57.7216 12.5557 57.7176 13.5047L57.2046 129.379C57.201 131.293 57.9918 133.13 59.4034 134.487C60.815 135.844 62.7319 136.61 64.7331 136.616L114.137 136.834C115.129 136.838 116.112 136.656 117.03 136.297C117.948 135.938 118.784 135.41 119.488 134.742C120.193 134.074 120.753 133.28 121.136 132.405C121.52 131.53 121.719 130.591 121.723 129.642L122.236 13.7646C122.24 12.8159 122.049 11.8758 121.673 10.9978C121.297 10.1198 120.744 9.32128 120.046 8.64773C119.347 7.97418 118.517 7.43882 117.602 7.07222C116.688 6.70562 115.706 6.51496 114.715 6.51113Z" fill="#F5F5F5"/>
<path d="M93.7495 114.937C93.6918 116.337 93.6374 117.65 93.5933 118.739H100.69L99.8206 114.569L93.7495 114.937Z" fill="#F5F5F5"/>
<path d="M64.9062 116.682L64.9674 118.739H92.8832C92.9308 117.585 92.9851 116.302 93.0361 114.982L64.9062 116.682Z" fill="#F5F5F5"/>
<path d="M100.177 114.55L101.05 118.739H114.133L113.977 113.715L100.177 114.55Z" fill="#F5F5F5"/>
<path d="M94.4561 55.9564L96.9294 42.2358L90.4507 41.7776V55.9564H94.4561Z" fill="#EBEBEB"/>
<path d="M64.3219 109.067L57.2894 111.703L57.269 116.467L64.5325 116.025L64.3219 109.067Z" fill="#F5F5F5"/>
<path d="M64.2915 107.995L63.9076 95.2169H63.9008V90.7095L57.3813 91.3692L57.2964 110.608L64.2881 107.989L64.2915 107.995Z" fill="#EBEBEB"/>
<path d="M63.9008 80.6482L57.4323 79.8325L57.3848 90.3488L63.9008 89.6891V80.6482Z" fill="#F5F5F5"/>
<path d="M112.119 90.8979L111.847 94.5604L104.207 95.3501L104.798 98.2456L113.471 97.6217L113.342 93.4652L114.035 90.7126L112.119 90.8979Z" fill="#F5F5F5"/>
<path d="M98.3497 98.7138L104.441 98.2718L103.116 91.769L97.7959 92.2825L98.3497 98.7138Z" fill="#F5F5F5"/>
<path d="M98.4072 99.3865L98.8727 104.81L99.6982 112.249L100.038 113.877L113.957 113.036L113.491 98.301L98.4072 99.3865Z" fill="#EBEBEB"/>
<path d="M74.4527 73.7814L74.9895 74.6588L64.254 80.6482V94.853L75.584 94.086L97.4153 91.9769L96.6169 82.6663L75.7573 80.0665L75.8966 79.059L96.5285 81.6361L95.1696 65.8779L74.7517 67.7563L74.6838 67.0836L95.1153 65.1987L94.412 56.9768H74.7687L57.5205 59.9796L57.4355 78.8088L63.9686 79.6343L74.4527 73.7814ZM65.3547 93.4978C65.3547 93.4978 65.4362 81.7824 65.3547 81.3469L74.113 76.8979L75.2647 92.8998L65.3547 93.4978Z" fill="#F5F5F5"/>
<path d="M111.405 90.9695L103.469 91.7332L104.071 94.684L111.185 93.9495L111.405 90.9695Z" fill="#F5F5F5"/>
<path d="M93.8482 112.428C93.8244 113.042 93.8006 113.656 93.7769 114.257L99.6814 113.9L99.379 112.444L93.8482 112.428Z" fill="#F5F5F5"/>
<path d="M81.1285 55.9565L82.1681 51.4458H90.0975V41.7517L65.3038 39.9968V49.0962L57.5579 50.7731L57.5239 58.943L74.6736 55.9565H81.1285Z" fill="#EBEBEB"/>
<path d="M97.687 28.9897L97.4763 28.1577L106.945 24.583L100.768 12.7505C100.656 12.7658 100.542 12.7745 100.429 12.7765L89.9648 12.7278L90.2502 29.2789L97.687 28.9897Z" fill="#F5F5F5"/>
<path d="M112.02 22.6461V6.498L105.13 6.46875C104.817 6.47255 104.507 6.53571 104.219 6.65458C103.931 6.77346 103.67 6.94571 103.452 7.1614C103.233 7.37709 103.062 7.63196 102.947 7.91131C102.832 8.19067 102.777 8.48899 102.783 8.78909V10.4562C102.783 10.8291 102.691 11.1967 102.513 11.5289C102.336 11.861 102.079 12.1483 101.764 12.3671L107.926 24.1995L112.02 22.6461Z" fill="#EBEBEB"/>
<path d="M76.4264 23.3385L75.6281 6.3389H73.712L66.2379 6.3064L63.0342 21.4991L76.4264 23.3385ZM74.7278 8.06453L74.9826 21.9086L65.0284 20.5177L67.2095 8.06453H74.7278Z" fill="#F5F5F5"/>
<path d="M76.79 23.3903V23.5333C76.79 24.8592 76.8375 27.2478 76.8579 29.8021L89.8969 29.2919L89.6115 12.718L81.7195 12.692C81.4063 12.6849 81.0977 12.6186 80.8113 12.497C80.525 12.3754 80.2665 12.2009 80.0509 11.9834C79.8353 11.766 79.6667 11.51 79.5549 11.23C79.443 10.9501 79.3901 10.6518 79.3991 10.3522V8.68505C79.4082 8.38549 79.3552 8.08716 79.2434 7.80722C79.1315 7.52728 78.9629 7.27124 78.7473 7.05382C78.5317 6.83639 78.2733 6.66186 77.987 6.54026C77.7006 6.41865 77.392 6.35237 77.0788 6.34521H75.978L76.7764 23.3935L76.79 23.3903Z" fill="#F5F5F5"/>
<path d="M61.9812 21.356L65.1408 6.2998C63.1679 6.33375 61.2872 7.10494 59.9012 8.44839C58.5152 9.79184 57.7338 11.6008 57.7244 13.4883L57.6904 20.992L57.7244 20.7711L61.9812 21.356Z" fill="#F5F5F5"/>
<path d="M64.2402 39.9219L57.6086 39.4507L57.5645 49.7297L64.2402 48.2868V39.9219Z" fill="#F5F5F5"/>
<path d="M61.91 21.6876L57.6905 21.1091L57.6191 37.7545L58.5262 37.8195L61.91 21.6876Z" fill="#F5F5F5"/>
<path d="M75.3054 107.8L75.4176 94.437L64.2607 95.191L64.6548 108.284L75.3054 107.8Z" fill="#F5F5F5"/>
<path d="M77.3575 104.716L93.1584 111.957C93.3487 107.225 93.5151 102.802 93.4981 102.532L93.8379 102.513L94.0043 102.188C94.232 102.295 94.232 102.295 94.1131 105.522C94.0485 107.322 93.9534 109.717 93.8583 112.113H99.3246L98.5194 104.846L97.4458 92.3181L76.8003 94.3135L77.3575 104.716Z" fill="#F5F5F5"/>
<path d="M116.09 82.5363L115.91 80.7749L96.9702 82.6598L97.7686 91.9444L114.12 90.365L116.09 82.5363Z" fill="#F5F5F5"/>
<path d="M90.0976 52.4629H83.021L82.2158 55.9564H90.0976V52.4629Z" fill="#F5F5F5"/>
<path d="M113.165 53.6427L95.4448 52.4695L94.7246 56.4732L95.4686 65.1631L114.154 63.444L113.165 53.6427ZM96.0971 56.4667L97.0484 53.9384L112.438 54.8711L113.315 62.0986L96.6033 63.9964L96.0971 56.4667Z" fill="#F5F5F5"/>
<path d="M115.003 71.8056L114.225 64.1199L95.5264 65.839L96.2296 74.0187L115.003 71.8056Z" fill="#F5F5F5"/>
<path d="M64.5528 116.704L57.2996 117.143L57.269 116.691L57.2588 118.739H64.614L64.5528 116.704Z" fill="#F5F5F5"/>
<path d="M122.103 18.8309L122.209 19.0876L122.233 13.7645C122.241 11.8491 121.453 10.0089 120.043 8.64873C118.633 7.28852 116.717 6.51959 114.714 6.51099H112.363V22.5226L122.103 18.8309Z" fill="#EBEBEB"/>
<path d="M93.1448 112.32L77.0143 104.927L76.4469 94.3362L75.7675 94.4012L75.652 108.115L64.6616 108.616V108.921L64.8757 115.993L93.0565 114.287C93.0904 113.646 93.1176 112.97 93.1448 112.32ZM65.3547 109.487L80.7412 108.453L90.7531 112.896L65.3547 114.196V109.487Z" fill="#F5F5F5"/>
<path d="M117.517 36.6006L118.176 32.8569C112.401 30.881 111.993 25.1126 112.01 23.3643L108.236 24.7942L113.92 35.7102L117.517 36.6006Z" fill="#F5F5F5"/>
<path d="M96.8852 81.6492L104.747 80.866L103.197 74.2202L96.3145 75.0327L96.8852 81.6492Z" fill="#F5F5F5"/>
<path d="M113.848 43.1263L99.1617 43.1231L97.9421 43.0386L96.2842 52.2387L113.716 53.3924L113.312 49.3919L115.027 43.4838L113.848 43.1263Z" fill="#F5F5F5"/>
<path d="M112.833 40.6563L113.016 36.2659L107.241 25.1809L98.292 28.5704L101.35 40.6563H112.833ZM106.897 26.5263L112.184 36.1522L111.423 39.1517L102.369 38.8267L100.106 29.7273L106.897 26.5263Z" fill="#F5F5F5"/>
<path d="M115.119 93.6408L115.387 102.269L121.75 101.925L121.771 102.262L115.401 102.607L115.723 112.928L121.74 112.564L121.784 113.24L115.744 113.607L115.907 118.739H121.767L121.896 89.9556L115.9 90.534L115.119 93.6408Z" fill="#F5F5F5"/>
<path d="M76.4401 23.6829L62.9629 21.8337L59.5928 37.9006L76.4979 39.0998C76.5658 36.6202 76.5081 29.0352 76.4401 23.6829Z" fill="#EBEBEB"/>
<path d="M98.6012 40.6597H100.643L97.7552 29.3245L90.2573 29.6169L90.4374 40.078L98.6012 40.6597Z" fill="#F5F5F5"/>
<path d="M76.8442 39.116L90.0938 40.0552L89.9171 29.6299L76.8748 30.1401C76.8884 33.6759 76.8986 37.4261 76.8442 39.116Z" fill="#F5F5F5"/>
<path d="M115.105 72.8162L103.551 74.1811L105.103 80.8301L115.808 79.7642L115.105 72.8162Z" fill="#F5F5F5"/>
<path d="M118.237 32.5287L118.978 28.3267L122.168 28.564L122.209 19.5166L112.357 23.2441C112.17 29.6072 116.349 31.8463 118.237 32.5287Z" fill="#EBEBEB"/>
<path d="M114.449 48.7679L114.85 52.7359L122.059 53.2136L122.093 45.0404L116.06 43.2173L114.449 48.7679Z" fill="#F5F5F5"/>
<path d="M117.881 82.6565L115.988 90.1862L121.896 89.6143L121.934 81.7205C120.119 81.2623 118.536 80.8918 117.684 80.7456L117.881 82.6565Z" fill="#F5F5F5"/>
<path d="M113.889 40.7864L122.103 43.266L122.124 38.8008L114.059 36.8054L113.889 40.7864Z" fill="#F5F5F5"/>
<path d="M117.582 79.6992C118.244 79.7967 119.498 80.0502 121.937 80.6741L122.012 63.4146L115.988 63.967L117.582 79.6992Z" fill="#F5F5F5"/>
<path d="M115.92 63.2846L122.015 62.7224L122.053 54.2307L114.956 53.7595L115.92 63.2846Z" fill="#F5F5F5"/>
<path d="M118.917 32.7433C120.075 33.0682 121.149 33.338 122.144 33.5297L122.165 29.2433L119.569 29.0515L118.917 32.7433Z" fill="#F5F5F5"/>
<path d="M118.207 36.7827L122.128 37.7577L122.145 33.8839C121.128 33.6933 120.033 33.4268 118.859 33.0845L118.207 36.7827Z" fill="#F5F5F5"/>
<path d="M121.784 113.24L121.74 112.564L115.723 112.928L115.401 102.607L121.771 102.263L121.754 101.938L115.387 102.282L115.119 93.6572L115.9 90.5471L121.896 89.9687V89.6274L115.988 90.1994L117.881 82.6697L117.684 80.749C118.536 80.905 120.119 81.2755 121.934 81.724V80.6678C119.494 80.0536 118.241 79.8001 117.578 79.6929L115.985 63.9509L122.008 63.3985V62.716L115.914 63.2782L114.949 53.7531L122.046 54.2243V53.2039L114.837 52.7295L114.436 48.7615L116.046 43.2109L122.093 45.0502V43.2758L113.879 40.7963L114.045 36.8153L122.11 38.8107V37.761L118.19 36.786L118.842 33.0813C120.018 33.4236 121.113 33.6901 122.127 33.8807V33.533C121.132 33.3413 120.058 33.0813 118.9 32.7466L119.552 29.0548L122.148 29.2466V28.5674L118.958 28.3301L118.217 32.5321C116.328 31.8496 112.149 29.6073 112.35 23.2475L122.202 19.52V19.0878L122.097 18.831L112.367 22.513V6.50137H112.01V22.6495L107.909 24.2029L101.764 12.3672C101.471 12.5685 101.132 12.6999 100.775 12.7507L106.928 24.5766L97.4593 28.1514L97.67 28.9833L90.2502 29.2726L89.9648 12.7214H89.6251L89.9105 29.2953L76.8715 29.8055C76.8512 27.2512 76.8206 24.8626 76.8036 23.5367V23.3937L76.0052 6.34538H75.6485L76.4469 23.345L63.0342 21.4991L66.2243 6.29663H65.3104H65.1406L61.9811 21.3529L57.7242 20.7679L57.6903 20.9889V21.1059L61.9097 21.6843L58.5124 37.8162L57.6019 37.7512V39.4476L64.2335 39.9188V48.3L57.5645 49.7299V50.7731L65.307 49.0962V39.9968L90.1075 41.755V51.4458H82.168L81.1284 55.9597H74.6735L57.5238 58.943V59.9765L74.772 56.9737H94.4153L95.1186 65.1956L74.6905 67.0772L74.7584 67.7499L95.1763 65.8716L96.5352 81.6297L75.9033 79.0527L75.764 80.0601L96.6236 82.6599L97.422 91.9705L75.5908 94.0796L64.2607 94.8466V80.6483L74.9962 74.6589L74.4594 73.7815L63.9753 79.6311L57.4422 78.8057V79.8228L63.8972 80.6385V89.6794L57.3811 90.3294V91.3498L63.9006 90.6999V95.2073L64.2845 107.985L57.2928 110.605V111.697L64.3252 109.064L64.5359 116.025L57.2588 116.467V116.692L57.2894 117.143L64.5427 116.705L64.6038 118.739H64.9435L64.8824 116.682L93.0122 114.982C92.9613 116.302 92.9069 117.582 92.8593 118.739H93.6102C93.6543 117.65 93.7087 116.337 93.7664 114.937L99.8374 114.569L100.707 118.739H101.067L100.194 114.55L113.994 113.715L114.15 118.739H115.924M93.7766 114.27C93.8004 113.669 93.8242 113.055 93.848 112.441L99.3788 112.457L99.6812 113.913L93.7766 114.27ZM100.038 113.89L99.6982 112.265L98.8726 104.827L98.4072 99.4028L113.491 98.3173L113.957 113.052L100.038 113.89ZM103.462 91.7333L111.399 90.9696L111.178 93.9496L104.064 94.6841L103.462 91.7333ZM103.123 91.769L104.448 98.2686L98.3664 98.7138L97.8126 92.2825L103.123 91.769ZM113.478 97.6186L104.804 98.2426L104.213 95.347L111.854 94.5573L112.126 90.8948L114.038 90.7129L113.359 93.4622L113.478 97.6186ZM103.204 74.2202L104.753 80.866L96.892 81.646L96.328 75.0327L103.204 74.2202ZM105.11 80.8303L103.558 74.1812L115.108 72.8196L115.812 79.7644L105.11 80.8303ZM113.067 52.6157L95.635 51.462L97.2929 42.2619L98.5125 42.3497H113.199L114.378 42.7039L112.656 48.625L113.067 52.6157ZM112.017 23.3677C112 25.1161 112.401 30.8844 118.183 32.8603L117.517 36.6008L113.919 35.7104L108.236 24.7944L112.017 23.3677ZM107.261 25.1713L113.036 36.2563L112.853 40.6468H101.37L98.312 28.5609L107.261 25.1713ZM97.7549 29.3246L100.643 40.6565H98.6042L90.4506 40.0781L90.2706 29.617L97.7549 29.3246ZM89.9037 29.63L90.0803 40.0553L76.8308 39.1161C76.8851 37.4263 76.8749 33.6663 76.8308 30.1402L89.9037 29.63ZM62.9629 21.8306L76.4401 23.6797C76.508 29.0321 76.5658 36.6171 76.4978 39.0901L59.5927 37.9007L62.9629 21.8306ZM96.9361 42.2359L94.4629 55.9565H90.4506V41.7777L96.9361 42.2359ZM83.0275 52.4597H90.1041V55.9565H82.2223L83.0275 52.4597ZM94.7313 56.4699L95.4515 52.4662L113.172 53.6394L114.164 63.4407L95.4787 65.1599L94.7313 56.4699ZM114.232 64.1167L115.013 71.8056L96.2397 74.0188L95.5262 65.8488L114.232 64.1167ZM96.9769 82.6567L115.917 80.7718L116.097 82.5332L114.127 90.3619L97.7753 91.9413L96.9769 82.6567ZM98.5193 104.846L99.3278 112.109H93.8616C93.9567 109.714 94.0518 107.319 94.1164 105.519C94.2353 102.292 94.2353 102.292 94.0076 102.185L93.8412 102.51L93.5014 102.529C93.5184 102.812 93.352 107.235 93.1617 111.953L77.3574 104.716L76.8002 94.3169L97.4457 92.3215L98.5193 104.846ZM75.4175 94.4468L75.3054 107.81L64.6548 108.294L64.2607 95.2008L75.4175 94.4468ZM64.6718 108.944V108.639L75.6621 108.138L75.7776 94.4241L76.4571 94.3591L77.0244 104.95L93.1447 112.321C93.1175 112.971 93.0904 113.64 93.0666 114.293L64.8858 115.999L64.6718 108.944Z" fill="white"/>
<path d="M80.741 108.46L65.3545 109.493V114.218L90.7495 112.902L80.741 108.46Z" fill="#E0E0E0"/>
<path d="M112.438 54.8709L97.0484 53.9382L96.0972 56.4666L96.617 63.9963L113.328 62.0984L112.438 54.8709Z" fill="#E0E0E0"/>
<path d="M57.2591 102.743L57.2217 126.987V129.587C57.2729 131.462 58.0858 133.245 59.488 134.558C60.8902 135.87 62.7715 136.608 64.7332 136.616L114.137 136.834C115.129 136.838 116.112 136.656 117.03 136.297C117.948 135.938 118.784 135.409 119.488 134.742C120.193 134.074 120.753 133.28 121.136 132.404C121.52 131.529 121.719 130.591 121.723 129.642L121.771 102.743H57.2591Z" fill="white"/>
<path d="M75.2784 22.7924L75.0236 8.94507H67.5053L65.3242 21.3982L75.2784 22.7924Z" fill="#E0E0E0"/>
<path d="M111.422 39.1582L112.187 36.1554L106.897 26.5295L100.106 29.7241L102.372 38.8299L111.422 39.1582Z" fill="#EBEBEB"/>
<path d="M65.3545 81.3469C65.436 81.7824 65.3545 93.4978 65.3545 93.4978L75.2645 92.8999L74.1128 76.8979L65.3545 81.3469Z" fill="#E0E0E0"/>
<path d="M98.3494 90.859L97.8262 83.599L114.796 81.5127V82.7639L112.744 89.4389L98.3494 90.859Z" fill="#E0E0E0"/>
<path d="M114.171 109.353L113.957 104.618L99.046 105.311C98.6571 105.327 98.2701 105.249 97.9215 105.083L76.763 94.8594C76.5223 94.7427 76.318 94.5674 76.1707 94.3512C76.0234 94.135 75.9382 93.8854 75.9238 93.6277L73.0463 40.2046C73.0378 40.0778 73.0584 39.9508 73.1065 39.8324C73.1546 39.7139 73.2291 39.607 73.3249 39.5189C73.4197 39.4308 73.5328 39.3627 73.6568 39.319C73.7809 39.2754 73.9132 39.2571 74.0451 39.2654L83.1126 39.9154V30.426H84.1759V40.0421C84.1753 40.1647 84.1484 40.2859 84.0969 40.3982C84.0454 40.5105 83.9703 40.6115 83.8764 40.6949C83.7825 40.7784 83.6716 40.8425 83.5508 40.8834C83.4299 40.9243 83.3016 40.941 83.1737 40.9326L74.113 40.2826L76.9838 93.5789C76.9889 93.6578 77.0154 93.7341 77.0607 93.8002C77.1059 93.8663 77.1684 93.9199 77.242 93.9559L98.4005 104.18C98.5847 104.268 98.7894 104.309 98.995 104.3L114.035 103.601C114.159 103.596 114.282 103.613 114.399 103.653C114.515 103.693 114.622 103.755 114.714 103.835C114.805 103.914 114.879 104.011 114.932 104.118C114.985 104.225 115.015 104.341 115.02 104.459L115.238 109.311L114.171 109.353Z" fill="white"/>
<path d="M112.89 48.7452C112.898 47.5426 112.615 46.3545 112.064 45.2738C111.512 44.1931 110.707 43.249 109.711 42.5154C108.714 41.7817 107.554 41.2784 106.321 41.0447C105.088 40.811 103.815 40.8532 102.601 41.1682C101.388 41.4831 100.267 42.0622 99.3266 42.8601C98.386 43.6581 97.651 44.6533 97.1792 45.768C96.7073 46.8827 96.5112 48.0867 96.6064 49.2859C96.7016 50.485 97.0853 51.6469 97.7277 52.6807L97.7515 52.7099C98.0641 53.2104 98.4548 53.5711 98.8489 54.1008L103.578 60.0902C103.715 60.2644 103.892 60.4058 104.096 60.5032C104.299 60.6006 104.524 60.6513 104.752 60.6513C104.979 60.6513 105.204 60.6006 105.408 60.5032C105.612 60.4058 105.789 60.2644 105.925 60.0902L110.573 54.1983C110.996 53.7204 111.391 53.2203 111.755 52.7002L111.772 52.6807C112.506 51.4879 112.892 50.129 112.89 48.7452ZM104.736 52.1347C104.028 52.1347 103.335 51.9336 102.745 51.5569C102.156 51.1802 101.696 50.6447 101.425 50.0182C101.154 49.3918 101.083 48.7024 101.221 48.0373C101.359 47.3723 101.701 46.7614 102.202 46.2819C102.703 45.8024 103.342 45.4759 104.037 45.3436C104.732 45.2113 105.453 45.2792 106.108 45.5387C106.763 45.7982 107.323 46.2376 107.717 46.8014C108.11 47.3652 108.321 48.0281 108.321 48.7062C108.321 49.6141 107.946 50.4852 107.275 51.128C106.605 51.7709 105.696 52.133 104.747 52.1347H104.736Z" fill="#00AAE6"/>
<path d="M69.0474 113.029C69.0476 112.486 68.9169 111.951 68.6657 111.464C68.4144 110.977 68.0493 110.553 67.5987 110.223C67.148 109.893 66.624 109.667 66.0672 109.562C65.5104 109.457 64.9359 109.477 64.3882 109.619C63.8405 109.761 63.3344 110.022 62.9092 110.381C62.484 110.74 62.1511 111.189 61.9363 111.691C61.7216 112.194 61.6307 112.737 61.6709 113.278C61.711 113.819 61.8811 114.345 62.1678 114.813C62.3105 115.044 62.4872 115.206 62.6672 115.463L64.8109 118.18C64.8745 118.257 64.9556 118.319 65.048 118.362C65.1403 118.405 65.2417 118.427 65.3443 118.427C65.447 118.427 65.5483 118.405 65.6407 118.362C65.7331 118.319 65.8141 118.257 65.8777 118.18L67.984 115.505C68.1762 115.289 68.3554 115.062 68.5208 114.826C68.863 114.284 69.045 113.663 69.0474 113.029ZM65.3545 114.566C65.0324 114.567 64.7173 114.476 64.4491 114.305C64.181 114.134 63.9719 113.891 63.8483 113.607C63.7247 113.322 63.6922 113.009 63.7549 112.707C63.8176 112.404 63.9726 112.127 64.2004 111.909C64.4282 111.691 64.7185 111.543 65.0345 111.483C65.3505 111.423 65.6779 111.454 65.9754 111.572C66.2729 111.69 66.527 111.89 66.7056 112.147C66.8841 112.403 66.9791 112.705 66.9784 113.013C66.9784 113.425 66.8073 113.82 66.5028 114.111C66.1983 114.403 65.7852 114.566 65.3545 114.566Z" fill="#00AAE6"/>
<path d="M113.624 115.57C113.624 115.616 104.407 115.655 93.0394 115.655C81.672 115.655 72.4517 115.616 72.4517 115.57C72.4517 115.525 81.6686 115.486 93.0394 115.486C104.41 115.486 113.624 115.505 113.624 115.57Z" fill="#263238"/>
<path d="M93.6103 118.739C93.6103 118.788 88.8778 118.823 83.0412 118.823C77.2046 118.823 72.4688 118.788 72.4688 118.739C72.4688 118.69 77.2012 118.654 83.0412 118.654C88.8812 118.654 93.6103 118.693 93.6103 118.739Z" fill="#263238"/>
<path d="M74.3474 108.193L75.054 109.568L76.6372 109.789L75.4923 110.855L75.7641 112.366L74.3474 111.654L72.9307 112.366L73.1991 110.855L72.0542 109.789L73.6374 109.568L74.3474 108.193Z" fill="#00AAE6"/>
<path d="M81.0539 108.193L81.764 109.568L83.3471 109.789L82.1988 110.855L82.4706 112.366L81.0539 111.654L79.6373 112.366L79.909 110.855L78.7607 109.789L80.3473 109.568L81.0539 108.193Z" fill="#00AAE6"/>
<path d="M87.76 108.193L88.47 109.568L90.0532 109.789L88.9083 110.855L89.1767 112.366L87.76 111.654L86.3433 112.366L86.6151 110.855L85.4702 109.789L87.0534 109.568L87.76 108.193Z" fill="#00AAE6"/>
<path d="M94.47 108.193L95.1766 109.568L96.7597 109.789L95.6148 110.855L95.8866 112.366L94.47 111.654L93.0533 112.366L93.3217 110.855L92.1768 109.789L93.7599 109.568L94.47 108.193Z" fill="#00AAE6"/>
<path d="M101.176 108.193L101.886 109.568L103.469 109.789L102.324 110.855L102.593 112.366L101.176 111.654L99.7593 112.366L100.031 110.855L98.8828 109.789L100.469 109.568L101.176 108.193Z" fill="#E0E0E0"/>
<path d="M86.0136 124.894C86.0136 124.943 83.4384 124.978 80.2619 124.978C77.0854 124.978 74.5103 124.943 74.5103 124.894C74.5103 124.845 77.0854 124.809 80.2619 124.809C83.4384 124.809 86.0136 124.848 86.0136 124.894Z" fill="#E0E0E0"/>
<path d="M115.57 127.666C115.57 127.711 106.377 127.75 95.0403 127.75C83.7034 127.75 74.5103 127.711 74.5103 127.666C74.5103 127.62 83.683 127.578 95.0403 127.578C106.398 127.578 115.57 127.617 115.57 127.666Z" fill="#E0E0E0"/>
<path d="M67.0871 129.58C69.0234 129.58 70.5931 128.079 70.5931 126.226C70.5931 124.374 69.0234 122.873 67.0871 122.873C65.1508 122.873 63.5811 124.374 63.5811 126.226C63.5811 128.079 65.1508 129.58 67.0871 129.58Z" fill="#F5F5F5"/>
<path d="M67.4982 126.132C67.6999 126.053 67.8723 125.917 67.9934 125.744C68.1144 125.57 68.1786 125.366 68.1777 125.157C68.1799 125.028 68.1555 124.9 68.1059 124.78C68.0563 124.66 67.9825 124.55 67.8887 124.457C67.7948 124.364 67.6828 124.29 67.5589 124.239C67.4351 124.188 67.3019 124.16 67.167 124.158C67.032 124.156 66.8979 124.179 66.7724 124.226C66.6468 124.274 66.5323 124.345 66.4353 124.434C66.3383 124.524 66.2607 124.631 66.207 124.75C66.1533 124.868 66.1245 124.996 66.1223 125.125C66.1185 125.33 66.1777 125.531 66.2924 125.705C66.4071 125.878 66.5724 126.015 66.7678 126.1C65.1812 126.311 65.2356 127.955 65.2356 127.955L68.9726 128.01C68.9726 128.01 69.061 126.376 67.4982 126.132Z" fill="#E0E0E0"/>
<path d="M89.7374 133.356C89.6911 133.355 89.6472 133.336 89.6151 133.304L87.9165 131.608C87.9005 131.593 87.8879 131.575 87.8793 131.555C87.8707 131.535 87.8662 131.514 87.8662 131.493C87.8662 131.471 87.8707 131.45 87.8793 131.43C87.8879 131.41 87.9005 131.392 87.9165 131.377C87.932 131.362 87.9505 131.35 87.9709 131.342C87.9913 131.334 88.0132 131.329 88.0354 131.329C88.0575 131.329 88.0794 131.334 88.0998 131.342C88.1203 131.35 88.1388 131.362 88.1543 131.377L89.734 132.95L91.2832 131.406C91.3155 131.376 91.3588 131.36 91.4038 131.36C91.4488 131.36 91.4921 131.376 91.5244 131.406C91.5403 131.422 91.553 131.439 91.5616 131.459C91.5702 131.479 91.5747 131.5 91.5747 131.522C91.5747 131.543 91.5702 131.564 91.5616 131.584C91.553 131.604 91.5403 131.622 91.5244 131.637L89.8733 133.304C89.8565 133.322 89.8354 133.337 89.8118 133.346C89.7882 133.355 89.7627 133.358 89.7374 133.356Z" fill="#263238"/>
<path d="M30.3761 25.2263C30.6614 25.1646 31.0114 25.1516 31.1676 24.9014C31.3239 24.6511 31.1303 24.2839 30.8721 24.0857C30.6139 23.8874 30.2945 23.7379 30.145 23.4552C30.0771 23.2832 30.0561 23.0974 30.084 22.9154C30.112 22.7335 30.1879 22.5613 30.3047 22.4153C30.4933 22.1315 30.7452 21.8912 31.0425 21.7117C31.3398 21.5322 31.6749 21.418 32.0239 21.3773C32.3728 21.3366 32.7268 21.3704 33.0605 21.4763C33.3941 21.5821 33.6991 21.7574 33.9534 21.9896L34.7722 21.9213C34.8861 22.8349 34.8792 23.7586 34.7518 24.6706C34.6167 25.5906 34.1228 26.4277 33.3691 27.0137C33.0487 27.2566 32.6534 27.3914 32.2446 27.3972C32.041 27.397 31.8415 27.3429 31.6682 27.2408C31.4948 27.1387 31.3545 26.9926 31.2628 26.8187C31.1829 26.642 31.1764 26.4429 31.2446 26.2618C31.3127 26.0807 31.4504 25.9312 31.6297 25.8438C31.2024 25.9646 30.7561 26.0119 30.3115 25.9835C30.2372 25.9828 30.164 25.9663 30.097 25.9355C30.0301 25.9046 29.9711 25.86 29.9242 25.8048C29.7713 25.5513 30.0805 25.2881 30.3761 25.2263Z" fill="#263238"/>
<path d="M35.0709 26.0584C34.5393 24.8591 34.1197 23.6172 33.8173 22.3471C33.5125 21.0729 33.544 19.7461 33.909 18.4864C33.9702 18.2979 34.5069 17.024 34.7142 17.0337C34.8603 17.0337 34.5511 18.2134 34.6326 18.3337C35.3739 19.4883 35.7294 20.8317 35.6518 22.1846C35.6087 23.4927 35.4127 24.792 35.0675 26.0584" fill="#263238"/>
<path d="M39.9326 38.9177C37.8229 38.9892 35.4855 35.2455 35.3632 33.2338L34.6328 21.1089C34.3271 17.8592 36.0529 14.9798 39.457 14.7784H39.773C41.3076 14.7729 42.7882 15.3196 43.921 16.3099C45.0538 17.3002 45.756 18.6617 45.8881 20.1242C46.1361 22.9418 46.3706 26.0616 46.357 27.5727C46.3298 30.7055 43.0548 31.2027 43.0548 31.2027C43.0548 31.2027 43.082 31.9307 43.1261 32.8471C43.2246 34.9107 43.0752 39.6717 40.9179 39.7366L39.9326 38.9177Z" fill="#FFBE9D"/>
<path d="M43.0478 31.1994C41.5358 31.2013 40.055 30.7885 38.7808 30.01C38.7808 30.01 39.8305 32.2849 43.0954 31.9924L43.0478 31.1994Z" fill="#EB996E"/>
<path d="M44.828 22.711C44.8299 22.8275 44.784 22.94 44.7002 23.0244C44.6163 23.1088 44.5013 23.1585 44.3796 23.1627C44.3201 23.1672 44.2604 23.1602 44.2037 23.1422C44.1471 23.1243 44.0948 23.0957 44.0499 23.0582C44.005 23.0207 43.9683 22.9749 43.9421 22.9237C43.9159 22.8725 43.9006 22.8167 43.8972 22.7598C43.8954 22.7013 43.9056 22.6431 43.9274 22.5884C43.9491 22.5337 43.9819 22.4836 44.0238 22.4411C44.0658 22.3985 44.1161 22.3643 44.1719 22.3404C44.2277 22.3164 44.2879 22.3032 44.349 22.3016C44.4089 22.2971 44.469 22.3043 44.5258 22.3227C44.5827 22.3411 44.6351 22.3703 44.6798 22.4086C44.7246 22.4468 44.7608 22.4933 44.7862 22.5453C44.8117 22.5973 44.8259 22.6537 44.828 22.711Z" fill="#263238"/>
<path d="M45.1846 21.4241C45.1268 21.4826 44.7735 21.2323 44.2707 21.2356C43.7679 21.2388 43.3976 21.4793 43.3432 21.4208C43.2889 21.3623 43.3772 21.2908 43.5369 21.1771C43.7543 21.0327 44.0128 20.9556 44.2775 20.9561C44.5382 20.9542 44.7928 21.0316 45.0045 21.1771C45.1608 21.2908 45.2151 21.3981 45.1846 21.4241Z" fill="#263238"/>
<path d="M40.2723 22.8769C40.2724 22.9937 40.2256 23.1061 40.1415 23.1908C40.0574 23.2755 39.9424 23.326 39.8204 23.3318C39.761 23.3363 39.7012 23.3293 39.6446 23.3113C39.588 23.2934 39.5357 23.2648 39.4907 23.2273C39.4458 23.1898 39.4092 23.144 39.3829 23.0928C39.3567 23.0416 39.3414 22.9858 39.338 22.9289C39.3353 22.8122 39.3809 22.6992 39.4649 22.6146C39.5489 22.53 39.6645 22.4806 39.7865 22.4772C39.8459 22.4723 39.9058 22.4788 39.9626 22.4964C40.0194 22.5139 40.0719 22.5421 40.1172 22.5793C40.1624 22.6166 40.1995 22.6621 40.2261 22.7132C40.2527 22.7642 40.2684 22.8199 40.2723 22.8769Z" fill="#263238"/>
<path d="M40.2723 21.6516C40.2146 21.7101 39.8579 21.4599 39.355 21.4631C38.8522 21.4664 38.4853 21.7068 38.431 21.6483C38.3766 21.5899 38.4616 21.5184 38.6212 21.4046C38.8382 21.2593 39.097 21.1821 39.3618 21.1836C39.6236 21.1817 39.8793 21.2591 40.0923 21.4046C40.235 21.5021 40.2723 21.6094 40.2723 21.6516Z" fill="#263238"/>
<path d="M42.076 25.3271C42.3399 25.2449 42.6141 25.1968 42.8914 25.1842C43.0205 25.1842 43.1428 25.1452 43.1631 25.0607C43.1738 24.9339 43.1442 24.807 43.0782 24.6967C42.9559 24.401 42.8268 24.089 42.6943 23.7607C42.1609 22.4316 41.7736 21.3364 41.8314 21.3169C41.8891 21.2974 42.3648 22.3601 42.8981 23.6893C43.0238 24.0142 43.1496 24.3392 43.2651 24.6317C43.3454 24.7796 43.3694 24.9496 43.333 25.1127C43.3145 25.1559 43.2859 25.1944 43.2494 25.2254C43.2129 25.2564 43.1694 25.279 43.1224 25.2914C43.0515 25.3105 42.9785 25.3214 42.9049 25.3239C42.6298 25.3566 42.3515 25.3577 42.076 25.3271Z" fill="#263238"/>
<path d="M40.6119 25.6651C40.6934 25.6651 40.6934 26.1818 41.1622 26.5523C41.6311 26.9228 42.2154 26.8773 42.2188 26.9325C42.2222 26.9878 42.0897 27.0365 41.8417 27.043C41.522 27.0486 41.2104 26.9462 40.9618 26.7538C40.7243 26.5677 40.5709 26.3011 40.5337 26.0096C40.4998 25.7918 40.5609 25.6618 40.6119 25.6651Z" fill="#263238"/>
<path d="M40.2245 19.6823C40.1736 19.8123 39.6708 19.7505 39.083 19.822C38.4953 19.8935 38.0129 20.0463 37.9348 19.9293C37.9008 19.874 37.9823 19.7505 38.176 19.6238C38.4312 19.4652 38.7224 19.3671 39.0253 19.3378C39.327 19.3009 39.6335 19.3344 39.9188 19.4353C40.1362 19.5166 40.2449 19.6205 40.2245 19.6823Z" fill="#263238"/>
<path d="M44.9706 19.8252C44.8822 19.9325 44.5357 19.8252 44.1212 19.8252C43.7068 19.8252 43.3501 19.9 43.2685 19.7862C43.2345 19.731 43.2889 19.6205 43.4418 19.5165C43.6436 19.3911 43.8807 19.3276 44.1212 19.3345C44.3656 19.3393 44.6026 19.4153 44.8007 19.5522C44.9604 19.6595 45.0283 19.77 44.9706 19.8252Z" fill="#263238"/>
<path d="M34.9148 23.4259C34.8604 23.4032 32.6624 22.7987 32.7439 24.9403C32.8254 27.0819 35.0541 26.5652 35.0541 26.5002C35.0541 26.4352 34.9148 23.4259 34.9148 23.4259Z" fill="#FFBE9D"/>
<path d="M34.3405 25.714C34.3405 25.714 34.3031 25.74 34.2386 25.7725C34.1445 25.807 34.0405 25.807 33.9464 25.7725C33.7989 25.6887 33.6772 25.5692 33.5937 25.4259C33.5102 25.2827 33.4678 25.1208 33.4708 24.9568C33.4571 24.7739 33.4873 24.5905 33.5591 24.4206C33.5769 24.3528 33.612 24.2903 33.6612 24.2387C33.7104 24.1871 33.7722 24.148 33.8411 24.1248C33.8855 24.1122 33.9332 24.1147 33.9759 24.1318C34.0187 24.149 34.0539 24.1799 34.0755 24.2191C34.1095 24.2776 34.0959 24.3198 34.1061 24.3231C34.1163 24.3263 34.1536 24.2873 34.1333 24.1996C34.1185 24.146 34.0849 24.0989 34.0381 24.0663C34.0068 24.0454 33.9715 24.0305 33.9342 24.0227C33.8969 24.0149 33.8583 24.0143 33.8207 24.0208C33.73 24.0418 33.6463 24.0844 33.5774 24.1446C33.5085 24.2049 33.4566 24.2808 33.4266 24.3653C33.3399 24.5544 33.3014 24.7604 33.3145 24.9665C33.3109 25.1574 33.366 25.345 33.4729 25.5062C33.5798 25.6674 33.7338 25.795 33.9158 25.8732C33.9743 25.885 34.0347 25.885 34.0932 25.8732C34.1517 25.8615 34.207 25.8382 34.2556 25.805C34.3371 25.766 34.3473 25.7172 34.3405 25.714Z" fill="#EB996E"/>
<path d="M44.2707 16.6373C44.6104 16.4293 43.4825 15.3536 42.572 15.0124C41.2131 14.4859 39.1305 14.2129 37.9075 14.6029C36.433 15.0709 35.2236 15.8346 34.5339 17.1637C33.8744 18.5188 33.6024 20.017 33.7458 21.5054C33.7471 21.9633 33.8773 22.4123 34.1229 22.8054C34.4626 23.2668 35.0707 23.5366 35.0741 24.193C35.07 24.3126 35.0911 24.4317 35.136 24.5434C35.1809 24.655 35.2488 24.7569 35.3357 24.843C35.7638 25.2394 36.2462 24.843 36.4602 24.427C36.9121 23.5658 36.9223 22.5649 36.9189 21.6029C36.9576 20.9182 36.8784 20.232 36.6844 19.5718C36.5587 19.2208 36.3685 18.8894 36.2632 18.5319C36.1982 18.3559 36.1743 18.1684 36.1931 17.9826C36.2119 17.7967 36.2729 17.6171 36.3719 17.4562C36.4232 17.3902 36.4813 17.3293 36.5452 17.2742C36.8448 17.0007 37.2151 16.8084 37.6181 16.717C38.0211 16.6257 38.4423 16.6385 38.8383 16.7543C40.1191 17.128 42.3002 17.674 42.8438 17.2417C43.2335 16.9709 43.5588 16.6242 43.7984 16.2246L44.2707 16.6373Z" fill="#263238"/>
<path d="M38.0131 14.3006C38.6158 14.067 39.2609 13.9501 39.9112 13.9568C40.5614 13.9635 41.2038 14.0936 41.8011 14.3396C42.1207 14.4639 42.4109 14.6486 42.6543 14.8825C42.8977 15.1165 43.0894 15.3949 43.2178 15.7013C43.4318 16.3285 43.1872 17.1214 42.5587 17.3944L42.5179 17.4237C41.5769 17.7714 40.9518 17.6739 39.9835 17.4009C39.1716 17.1702 38.4377 16.7282 37.6054 16.5007C36.7339 16.2572 35.8059 16.2696 34.9419 16.5365C35.7425 15.5461 36.8018 14.7749 38.0131 14.3006Z" fill="#263238"/>
<path d="M35.2002 16.2147C35.5353 16.0568 35.9006 15.9661 36.2738 15.9482C36.6783 15.9404 37.0808 16.0066 37.4594 16.1432C37.9241 16.3191 38.3729 16.531 38.8014 16.7769C39.2375 17.0244 39.6916 17.2417 40.1603 17.4269C40.5514 17.5772 40.9686 17.6555 41.3901 17.6576C41.6748 17.6599 41.9573 17.6103 42.2225 17.5114C42.3215 17.4793 42.4128 17.4285 42.4909 17.3619C42.1402 17.4874 41.7678 17.5481 41.3935 17.5406C40.989 17.5218 40.5911 17.4349 40.218 17.2839C39.7588 17.0951 39.3128 16.878 38.8829 16.6339C38.4516 16.3844 37.9966 16.1744 37.524 16.0067C37.1253 15.8721 36.7026 15.8146 36.2805 15.8378C35.9965 15.854 35.719 15.9259 35.4652 16.049C35.3649 16.0844 35.2743 16.141 35.2002 16.2147Z" fill="#455A64"/>
<path d="M36.1104 15.477C36.4299 15.3616 36.7677 15.299 37.1092 15.2917C37.477 15.2985 37.8411 15.3644 38.1861 15.4867C38.6105 15.6426 39.016 15.842 39.3956 16.0814C39.8066 16.3284 40.1939 16.5819 40.5676 16.7834C40.8894 16.9677 41.2311 17.1181 41.5868 17.2319C41.8322 17.3071 42.087 17.3509 42.3444 17.3619C42.4389 17.372 42.5345 17.3654 42.6264 17.3424C42.2878 17.2947 41.9537 17.2208 41.6276 17.1214C41.2798 16.9963 40.9453 16.8395 40.6288 16.6534C40.2687 16.4454 39.8882 16.1919 39.4703 15.9417C39.084 15.6958 38.669 15.494 38.2337 15.3405C37.8693 15.2189 37.4848 15.1616 37.099 15.1715C36.8396 15.1809 36.5842 15.2348 36.3448 15.3307C36.2569 15.3634 36.177 15.4132 36.1104 15.477Z" fill="#455A64"/>
<path d="M41.3154 14.5769C41.3154 14.5769 41.4309 14.7296 41.6348 14.9441C41.9084 15.2151 42.1426 15.52 42.3312 15.8508C42.5137 16.1793 42.6016 16.5482 42.586 16.9199C42.569 17.2059 42.4909 17.3749 42.5147 17.3847C42.5385 17.3944 42.654 17.2384 42.7083 16.9329C42.7624 16.5343 42.684 16.1296 42.4841 15.776C42.2888 15.4311 42.0311 15.1219 41.7231 14.8628C41.4921 14.6646 41.3324 14.5606 41.3154 14.5769Z" fill="#455A64"/>
<path d="M42.9187 15.5356C42.9693 15.8583 42.9785 16.1857 42.9459 16.5105C42.8587 16.8307 42.7286 17.1388 42.5586 17.427C42.5586 17.427 42.6775 17.3782 42.8032 17.2255C42.9611 17.0229 43.068 16.7883 43.1158 16.5398C43.1643 16.2909 43.1491 16.0344 43.0716 15.7923C43.0104 15.6233 42.9357 15.5258 42.9187 15.5356Z" fill="#455A64"/>
<path d="M33.6778 21.5835C33.6057 21.8863 33.6151 22.2016 33.705 22.4999C33.7436 22.8124 33.8894 23.1038 34.1195 23.3286C34.1602 23.3026 33.9768 22.9452 33.8749 22.4642C33.8422 22.1647 33.7761 21.8695 33.6778 21.5835Z" fill="#00AAE6"/>
<path d="M31.3817 120.536L31.7214 127.572C31.7214 127.572 24.356 130.246 24.2812 131.549L38.55 131.442L38.5194 120.464L31.3817 120.536Z" fill="#455A64"/>
<path d="M36.1141 126.944C36.2575 126.981 36.3809 127.069 36.4591 127.19C36.5374 127.31 36.5646 127.455 36.5354 127.594C36.5006 127.728 36.4134 127.843 36.2918 127.916C36.1703 127.99 36.0238 128.015 35.8831 127.988C35.7374 127.946 35.613 127.854 35.534 127.73C35.4549 127.606 35.4268 127.458 35.455 127.315C35.5092 127.182 35.615 127.073 35.7504 127.013C35.8858 126.952 36.0404 126.944 36.182 126.99" fill="#E0E0E0"/>
<path d="M38.5429 131.442L38.4953 130.337L24.8245 130.844C24.8245 130.844 24.1892 131.114 24.2639 131.54L38.5429 131.442Z" fill="white"/>
<path d="M31.4732 127.503C31.4732 127.568 31.8129 127.598 32.1696 127.809C32.5263 128.02 32.6996 128.3 32.7607 128.274C32.8219 128.248 32.72 127.861 32.2953 127.624C31.8706 127.386 31.4562 127.442 31.4732 127.503Z" fill="#263238"/>
<path d="M29.9785 128.105C29.9785 128.17 30.2673 128.283 30.5051 128.563C30.7429 128.842 30.8143 129.141 30.8856 129.138C30.9569 129.135 30.9943 128.755 30.692 128.413C30.3896 128.072 29.9819 128.043 29.9785 128.105Z" fill="#263238"/>
<path d="M29.1427 129.827C29.2072 129.827 29.2989 129.502 29.1189 129.141C28.9388 128.781 28.6093 128.638 28.5787 128.693C28.5481 128.748 28.7554 128.94 28.8981 129.242C29.0408 129.544 29.0611 129.821 29.1427 129.827Z" fill="#263238"/>
<path d="M31.5855 125.891C31.616 125.953 31.9252 125.859 32.3295 125.891C32.7338 125.924 33.0293 126.031 33.0667 125.973C33.1041 125.914 32.8051 125.68 32.3397 125.648C31.8742 125.615 31.5515 125.839 31.5855 125.891Z" fill="#263238"/>
<path d="M52.9478 120.536L52.6284 127.572C52.6284 127.572 59.9938 130.246 60.0651 131.549L45.7964 131.442L45.8304 120.464L52.9478 120.536Z" fill="#455A64"/>
<path d="M48.2188 126.944C48.0808 126.983 47.9625 127.069 47.8867 127.186C47.8108 127.303 47.7827 127.443 47.8078 127.578C47.844 127.711 47.9321 127.826 48.054 127.899C48.1758 127.972 48.3223 127.998 48.4634 127.971C48.6091 127.93 48.7335 127.838 48.8125 127.714C48.8916 127.589 48.9197 127.441 48.8915 127.299C48.8373 127.165 48.7315 127.057 48.5961 126.997C48.4607 126.936 48.3061 126.928 48.1645 126.974" fill="#E0E0E0"/>
<path d="M45.7861 131.442L45.8371 130.337L59.5079 130.844C59.5079 130.844 60.1398 131.114 60.0651 131.54L45.7861 131.442Z" fill="white"/>
<path d="M52.8595 127.503C52.8595 127.568 52.5197 127.598 52.163 127.809C51.8063 128.02 51.633 128.3 51.5685 128.274C51.5039 128.248 51.6127 127.861 52.0339 127.624C52.4552 127.386 52.8765 127.442 52.8595 127.503Z" fill="#263238"/>
<path d="M54.3543 128.105C54.3543 128.17 54.0656 128.283 53.8277 128.563C53.5899 128.842 53.5152 129.141 53.4472 129.138C53.3793 129.135 53.3351 128.755 53.6409 128.413C53.9467 128.072 54.3509 128.043 54.3543 128.105Z" fill="#263238"/>
<path d="M55.1899 129.827C55.1253 129.827 55.0302 129.502 55.2136 129.141C55.3971 128.781 55.7232 128.638 55.7504 128.693C55.7776 128.748 55.5772 128.94 55.4311 129.242C55.285 129.544 55.2578 129.821 55.1899 129.827Z" fill="#263238"/>
<path d="M52.7471 125.891C52.7165 125.953 52.4073 125.859 52.0031 125.891C51.5988 125.924 51.2998 126.031 51.2658 125.973C51.2319 125.914 51.5274 125.68 51.9929 125.648C52.4583 125.615 52.781 125.839 52.7471 125.891Z" fill="#263238"/>
<path d="M28.334 67.5222C28.334 67.9511 31.2251 125.83 31.2251 125.83L38.7332 125.898L41.1725 76.6735C41.1725 76.6735 44.3116 102.539 44.3116 103.11C44.3116 103.682 45.2017 126.184 45.2017 126.184H53.1243V72.5301L48.0283 64.6721L28.334 67.5222Z" fill="#263238"/>
<path d="M49.0817 126.177C49.0764 126.134 49.0764 126.091 49.0817 126.047C49.0817 125.953 49.0817 125.826 49.0817 125.664C49.0817 125.316 49.0817 124.822 49.0817 124.189C49.0613 122.905 49.0206 121.049 48.9526 118.758C48.8065 114.173 48.5348 107.845 48.1984 100.855C47.8621 93.8649 47.5189 87.5311 47.2879 82.9521C47.1724 80.6773 47.0773 78.8184 47.0127 77.5282C46.9856 76.8945 46.9652 76.3973 46.9482 76.0528C46.9482 75.8904 46.9482 75.7636 46.9482 75.6694C46.9437 75.6251 46.9437 75.5804 46.9482 75.5361C46.9587 75.5788 46.9644 75.6223 46.9652 75.6661C46.9652 75.7604 46.9652 75.8871 46.9958 76.0496C47.0161 76.3973 47.0501 76.8913 47.0909 77.525C47.169 78.8249 47.2811 80.6643 47.4306 82.9456C47.699 87.5246 48.0489 93.8519 48.3921 100.845C48.7352 107.839 48.9832 114.169 49.0953 118.755C49.1497 121.049 49.1701 122.905 49.1701 124.185C49.1701 124.835 49.1701 125.316 49.1701 125.664C49.1701 125.826 49.1701 125.953 49.1701 126.047C49.1461 126.094 49.1165 126.138 49.0817 126.177Z" fill="#455A64"/>
<path d="M35.2477 75.5427C35.2952 75.5427 35.2918 86.8065 35.2477 100.703C35.2035 114.599 35.1118 125.866 35.0642 125.866C35.0166 125.866 35.02 114.602 35.0642 100.703C35.1084 86.8032 35.2001 75.5395 35.2477 75.5427Z" fill="#455A64"/>
<path d="M41.774 73.9082C41.6677 73.9722 41.5536 74.0235 41.4343 74.0609C41.1999 74.1454 40.8567 74.2656 40.4355 74.4086L40.3573 74.4346V74.3534C40.3098 73.6417 40.252 72.6895 40.201 71.6463C40.1433 70.5154 40.1025 69.4917 40.0821 68.7508C40.0821 68.3803 40.0821 68.0781 40.0821 67.8733C40.0664 67.7655 40.0664 67.6561 40.0821 67.5483C40.1116 67.6545 40.1287 67.7635 40.1331 67.8733C40.1535 68.0781 40.1773 68.377 40.2044 68.7475C40.2554 69.4885 40.3165 70.5121 40.3709 71.6431C40.4253 72.6862 40.4626 73.6384 40.483 74.3501L40.3981 74.2949C40.8261 74.1649 41.1727 74.0641 41.4173 73.9959C41.5321 73.953 41.6518 73.9236 41.774 73.9082Z" fill="#455A64"/>
<path d="M41.1045 67.7561C41.1045 67.7561 41.1316 67.7107 41.22 67.6782C41.3502 67.6418 41.49 67.6546 41.6107 67.7139C41.7066 67.7559 41.7866 67.8253 41.8396 67.9126C41.8925 68 41.9158 68.1008 41.9062 68.2014C41.8955 68.3247 41.8445 68.4416 41.7603 68.5355C41.6761 68.6295 41.5631 68.6956 41.4374 68.7246C41.3098 68.7441 41.179 68.726 41.0624 68.6726C40.9459 68.6191 40.8492 68.533 40.7851 68.4256C40.7444 68.3548 40.7198 68.2766 40.7129 68.1961C40.7061 68.1155 40.7171 68.0345 40.7454 67.9584C40.7736 67.8823 40.8184 67.8127 40.8768 67.7543C40.9352 67.6959 41.0058 67.65 41.0841 67.6197C41.1724 67.5872 41.2234 67.5937 41.2268 67.6197C41.2302 67.6457 41.0263 67.6879 40.904 67.9446C40.8681 68.0116 40.851 68.0865 40.8546 68.1617C40.8582 68.237 40.8822 68.31 40.9244 68.3736C40.9745 68.4492 41.0464 68.5094 41.1313 68.5468C41.2163 68.5843 41.3108 68.5975 41.4034 68.5848C41.4926 68.5621 41.5726 68.5144 41.6332 68.4478C41.6937 68.3812 41.732 68.2987 41.7432 68.2111C41.752 68.1385 41.7383 68.065 41.7039 67.9997C41.6695 67.9345 41.6158 67.8803 41.5495 67.8439C41.4161 67.7667 41.259 67.7357 41.1045 67.7561Z" fill="#455A64"/>
<path d="M45.1544 68.364C45.1068 68.364 45.0423 68.1105 45.0083 67.792C44.9743 67.4735 44.9845 67.2071 45.0321 67.2006C45.0796 67.1941 45.1442 67.454 45.1815 67.7725C45.2189 68.091 45.2053 68.3575 45.1544 68.364Z" fill="#455A64"/>
<path d="M45.7692 68.3054C45.7182 68.3054 45.6808 68.0324 45.6774 67.6945C45.674 67.3565 45.7148 67.0835 45.7624 67.0835C45.8099 67.0835 45.8507 67.3565 45.8507 67.6945C45.8507 68.0324 45.8167 68.3054 45.7692 68.3054Z" fill="#455A64"/>
<path d="M35.1285 68.7117C34.9604 68.2668 34.9056 67.79 34.9688 67.3208C35.137 67.7657 35.1917 68.2425 35.1285 68.7117Z" fill="#455A64"/>
<path d="M35.8556 68.7735C35.7006 68.5633 35.6251 68.3088 35.6416 68.0521C35.6019 67.7977 35.656 67.5381 35.7945 67.3176C35.8275 67.559 35.8344 67.8029 35.8149 68.0456C35.8559 68.2861 35.8696 68.5302 35.8556 68.7735Z" fill="#455A64"/>
<path d="M24.8179 133.792L27.3013 135.966C28.2446 136.794 29.4793 137.252 30.7598 137.25H53.4607C54.7377 137.25 55.9683 136.792 56.909 135.966L59.3924 133.792H24.8179Z" fill="#00AAE6"/>
<path d="M60.391 131.296H24.1348V133.866H60.391V131.296Z" fill="#00AAE6"/>
<path d="M21.1656 123.542H20.5676C19.2599 123.542 18.1997 124.556 18.1997 125.807V139.996C18.1997 141.247 19.2599 142.261 20.5676 142.261H21.1656C22.4733 142.261 23.5335 141.247 23.5335 139.996V125.807C23.5335 124.556 22.4733 123.542 21.1656 123.542Z" fill="#263238"/>
<path d="M21.074 142.01C21.0264 142.01 20.9075 137.997 20.8124 133.041C20.7173 128.085 20.6799 124.072 20.7309 124.072C20.7818 124.072 20.8939 128.085 20.989 133.038C21.0842 137.99 21.1215 142.01 21.074 142.01Z" fill="#455A64"/>
<path d="M20.9076 140.613C20.4112 140.106 19.9569 139.563 19.5487 138.988C19.0887 138.444 18.6773 137.863 18.3188 137.253C18.8152 137.76 19.2696 138.303 19.6778 138.878C20.1364 139.423 20.5477 140.003 20.9076 140.613Z" fill="#455A64"/>
<path d="M21.0535 138.442C20.5368 137.882 20.0633 137.287 19.6368 136.661C19.1619 136.069 18.7359 135.442 18.3628 134.786C18.8795 135.346 19.353 135.941 19.7795 136.567C20.2536 137.16 20.6795 137.787 21.0535 138.442Z" fill="#455A64"/>
<path d="M20.7307 135.667C20.2348 135.068 19.7873 134.433 19.3921 133.769C18.9409 133.137 18.5389 132.475 18.1895 131.787C18.6912 132.385 19.1454 133.018 19.5484 133.681C19.9918 134.315 20.387 134.979 20.7307 135.667Z" fill="#455A64"/>
<path d="M20.7308 133.405C20.568 133.231 20.4298 133.038 20.3198 132.83C20.0854 132.463 19.7728 131.949 19.4365 131.38C19.1001 130.812 18.8046 130.289 18.6007 129.908C18.4721 129.712 18.3716 129.5 18.3018 129.278C18.4606 129.46 18.5984 129.659 18.7128 129.869C18.9472 130.237 19.2598 130.747 19.5927 131.315C19.9257 131.884 20.2212 132.401 20.4285 132.781C20.5531 132.978 20.6545 133.187 20.7308 133.405Z" fill="#455A64"/>
<path d="M20.6799 130.919C20.1564 130.34 19.7102 129.702 19.3515 129.018C19.0118 128.465 18.757 127.958 18.5701 127.588C18.4522 127.393 18.362 127.185 18.3018 126.967C18.7413 127.601 19.1428 128.259 19.5044 128.937C19.8272 129.483 20.1227 129.977 20.3435 130.331C20.4769 130.515 20.5897 130.712 20.6799 130.919Z" fill="#455A64"/>
<path d="M20.3706 128.339C20.0145 127.832 19.7053 127.297 19.4465 126.74C19.1366 126.206 18.8785 125.645 18.6753 125.066C19.0357 125.57 19.3462 126.106 19.6028 126.665C19.9131 127.199 20.1702 127.759 20.3706 128.339Z" fill="#455A64"/>
<path d="M23.3062 136.944C23.038 137.592 22.7166 138.219 22.3448 138.819C22.0234 139.445 21.6496 140.045 21.2271 140.613C21.4973 139.965 21.8199 139.338 22.1919 138.738C22.5124 138.112 22.885 137.512 23.3062 136.944Z" fill="#455A64"/>
<path d="M23.2451 134.25C23.0472 134.951 22.7537 135.624 22.3719 136.252C22.0832 136.782 21.808 137.253 21.5974 137.591C21.5005 137.783 21.3759 137.961 21.2271 138.12C21.5113 137.45 21.8416 136.799 22.2157 136.171C22.5044 135.641 22.7558 135.16 22.9359 134.809C23.0164 134.612 23.1201 134.424 23.2451 134.25Z" fill="#455A64"/>
<path d="M23.3058 130.662C23.0425 131.44 22.7247 132.2 22.3546 132.937C22.0375 133.693 21.6675 134.428 21.2471 135.137C21.5108 134.359 21.8297 133.599 22.2017 132.862C22.5161 132.105 22.885 131.37 23.3058 130.662Z" fill="#455A64"/>
<path d="M23.0205 128.634C22.8473 129.261 22.62 129.873 22.3411 130.464C22.1137 131.075 21.8318 131.667 21.4985 132.232C21.668 131.604 21.8954 130.992 22.178 130.402C22.4053 129.791 22.6872 129.199 23.0205 128.634Z" fill="#455A64"/>
<path d="M22.7794 126.229C22.682 126.869 22.4862 127.491 22.1984 128.075C21.964 128.683 21.6365 129.253 21.2268 129.768C21.1826 129.742 21.6107 128.985 22.0353 128.01C22.46 127.035 22.7284 126.216 22.7794 126.229Z" fill="#455A64"/>
<path d="M18.8691 123.37L24.135 132.307V124.874C24.1397 124.512 23.9964 124.162 23.7357 123.899C23.4749 123.637 23.1172 123.481 22.7387 123.467L18.8691 123.37Z" fill="#00AAE6"/>
<path d="M24.1347 127.731H23.2446V134.689H24.1347V127.731Z" fill="#00AAE6"/>
<path d="M63.7446 142.254H64.3425C65.6503 142.254 66.7104 141.24 66.7104 139.989V125.804C66.7104 124.553 65.6503 123.539 64.3425 123.539H63.7446C62.4368 123.539 61.3767 124.553 61.3767 125.804V139.989C61.3767 141.24 62.4368 142.254 63.7446 142.254Z" fill="#263238"/>
<path d="M63.8362 142.004C63.7853 142.004 63.8362 137.987 63.9212 133.035C64.0061 128.082 64.1318 124.062 64.1794 124.065C64.2269 124.068 64.1794 128.082 64.0944 133.038C64.0095 137.994 63.8838 142.007 63.8362 142.004Z" fill="#455A64"/>
<path d="M64.0059 140.593C64.7779 139.404 65.6481 138.276 66.6082 137.22C66.2475 137.833 65.8362 138.418 65.3784 138.969C64.9664 139.544 64.5075 140.087 64.0059 140.593Z" fill="#455A64"/>
<path d="M63.853 138.436C64.2286 137.781 64.6544 137.154 65.127 136.56C65.5527 135.933 66.0274 135.338 66.5471 134.78C66.1701 135.435 65.7431 136.063 65.2697 136.658C64.8453 137.284 64.3717 137.878 63.853 138.436Z" fill="#455A64"/>
<path d="M64.1792 135.66C64.5257 134.972 64.9231 134.309 65.3683 133.675C65.765 133.012 66.2124 132.379 66.7068 131.78C65.9657 133.131 65.1208 134.428 64.1792 135.66Z" fill="#455A64"/>
<path d="M64.1792 133.398C64.2535 133.177 64.355 132.966 64.4816 132.768C64.6854 132.388 64.981 131.868 65.3139 131.299C65.6468 130.73 65.9628 130.22 66.1938 129.853C66.3059 129.644 66.4452 129.45 66.6083 129.274C66.5333 129.493 66.433 129.704 66.3093 129.902C66.1021 130.282 65.8065 130.802 65.4702 131.374C65.1338 131.946 64.8213 132.456 64.5869 132.823C64.4771 133.031 64.3401 133.224 64.1792 133.398Z" fill="#455A64"/>
<path d="M64.23 130.912C64.3221 130.706 64.436 130.509 64.5697 130.324C64.7871 129.97 65.0827 129.476 65.4055 128.93C65.7673 128.252 66.17 127.594 66.6115 126.961C66.5494 127.177 66.4592 127.386 66.3431 127.581C66.1529 127.952 65.8811 128.462 65.5583 129.011C65.1976 129.694 64.7516 130.332 64.23 130.912Z" fill="#455A64"/>
<path d="M64.5361 128.332C64.7393 127.753 64.9975 127.193 65.3073 126.658C65.5646 126.1 65.8738 125.565 66.2314 125.06C66.0303 125.639 65.7733 126.199 65.4636 126.733C65.206 127.292 64.8956 127.827 64.5361 128.332Z" fill="#455A64"/>
<path d="M61.6006 136.938C62.3961 138.1 63.0914 139.323 63.6797 140.593C63.2567 140.026 62.8839 139.426 62.5654 138.8C62.1941 138.204 61.8715 137.581 61.6006 136.938Z" fill="#455A64"/>
<path d="M61.6753 134.243C61.801 134.419 61.9058 134.608 61.9878 134.806C62.1645 135.157 62.4193 135.638 62.7047 136.167C63.0804 136.795 63.4107 137.446 63.6933 138.117C63.5462 137.957 63.4217 137.779 63.323 137.587C63.1158 137.262 62.8372 136.778 62.5484 136.249C62.1682 135.619 61.8747 134.945 61.6753 134.243Z" fill="#455A64"/>
<path d="M61.6006 130.656C62.0242 131.365 62.3965 132.101 62.7149 132.859C63.0868 133.595 63.4046 134.355 63.6662 135.134C63.2445 134.424 62.8733 133.688 62.5552 132.931C62.1832 132.194 61.8643 131.434 61.6006 130.656Z" fill="#455A64"/>
<path d="M61.8862 128.628C62.222 129.192 62.504 129.784 62.7288 130.396C63.0085 130.986 63.2358 131.598 63.4082 132.225C63.0749 131.66 62.793 131.069 62.5657 130.458C62.2854 129.867 62.0581 129.255 61.8862 128.628Z" fill="#455A64"/>
<path d="M62.1309 126.223C62.1784 126.223 62.4434 127.032 62.8715 128.004C63.2995 128.975 63.7242 129.736 63.68 129.762C62.9117 128.698 62.384 127.493 62.1309 126.223Z" fill="#455A64"/>
<path d="M65.6638 123.171L60.3911 131.946V124.67C60.3909 124.311 60.5366 123.967 60.7973 123.71C61.0579 123.453 61.4131 123.303 61.7874 123.292L65.6638 123.171Z" fill="#00AAE6"/>
<path d="M61.3763 127.36H60.3911V133.866H61.3763V127.36Z" fill="#00AAE6"/>
<path d="M61.383 133.886C61.383 133.931 52.8081 133.97 42.2357 133.97C31.6632 133.97 23.085 133.931 23.085 133.886C23.085 133.841 31.6564 133.802 42.2357 133.802C52.8149 133.802 61.383 133.841 61.383 133.886Z" fill="#263238"/>
<path d="M26.5539 80.7358C26.5539 80.7358 26.3229 77.1968 23.2891 77.564C20.2552 77.9312 20.1737 80.5408 20.1737 80.5408L18.8691 80.3198C18.8691 80.3198 19.3516 76.6215 23.6254 76.7255C27.8992 76.8295 27.8143 80.986 27.8143 80.986L26.5539 80.7358Z" fill="#455A64"/>
<g opacity="0.3">
<path d="M26.5539 80.7358C26.5539 80.7358 26.3229 77.1968 23.2891 77.564C20.2552 77.9312 20.1737 80.5408 20.1737 80.5408L18.8691 80.3198C18.8691 80.3198 19.3516 76.6215 23.6254 76.7255C27.8992 76.8295 27.8143 80.986 27.8143 80.986L26.5539 80.7358Z" fill="#4A4A4A"/>
</g>
<path d="M12.2987 79.709L11.6328 96.4193L34.738 96.8256L35.1321 80.3134L12.2987 79.709Z" fill="#455A64"/>
<path d="M35.132 80.3133C35.132 80.3133 35.132 80.3393 35.0912 80.3816L34.9519 80.5668C34.816 80.7423 34.6326 80.9763 34.405 81.2753C33.9225 81.8862 33.2363 82.7767 32.3394 83.8459C31.3112 85.1182 30.1426 86.2808 28.8537 87.3134C28.0844 87.9122 27.2412 88.4186 26.3431 88.8213C25.3631 89.2626 24.3027 89.5176 23.221 89.572C22.1433 89.6036 21.0713 89.4118 20.0784 89.0097C19.1576 88.6379 18.3009 88.135 17.5372 87.5181C16.2635 86.4593 15.1931 85.1956 14.3743 83.7841C13.8143 82.844 13.3041 81.8776 12.8455 80.8886L12.4752 80.0826L12.3835 79.8714C12.3631 79.8226 12.3563 79.7966 12.3597 79.7966C12.375 79.8184 12.3886 79.8412 12.4005 79.8649L12.5092 80.0696L12.9101 80.8626C13.2498 81.5483 13.756 82.5492 14.483 83.7224C15.3095 85.1099 16.3781 86.3519 17.6426 87.3946C18.3964 87.9977 19.2404 88.4896 20.1464 88.8538C21.1132 89.2422 22.1557 89.4283 23.204 89.3997C24.2557 89.3501 25.2873 89.105 26.2412 88.6783C27.1347 88.2862 27.9744 87.7907 28.7416 87.2029C30.0251 86.1817 31.1934 85.0347 32.2273 83.7809C33.1378 82.7247 33.841 81.8472 34.337 81.246L34.9112 80.5603L35.0674 80.3816C35.0866 80.3569 35.1082 80.334 35.132 80.3133Z" fill="#263238"/>
<path d="M31.5749 96.7702C31.5239 96.7702 32.2272 93.1629 33.141 88.7335C34.0549 84.304 34.8397 80.7195 34.8839 80.7293C34.928 80.739 34.2316 84.3365 33.3177 88.766C32.4038 93.1954 31.6224 96.7799 31.5749 96.7702Z" fill="#263238"/>
<path d="M35.0336 80.4402C35.0395 80.4953 35.0395 80.5508 35.0336 80.6059C35.0336 80.7359 35.0336 80.8952 35.0336 81.0869C35.0166 81.5029 34.9759 82.1008 34.9215 82.845C34.8094 84.3269 34.6123 86.3743 34.3711 88.6296C34.1299 90.885 33.9261 92.9063 33.7698 94.411C33.6985 95.1324 33.6407 95.7109 33.5999 96.1626L33.549 96.6403C33.547 96.6967 33.5367 96.7525 33.5184 96.8061C33.5088 96.7501 33.5088 96.693 33.5184 96.6371C33.5184 96.5071 33.5184 96.3511 33.5184 96.1594C33.5184 95.7434 33.5762 95.1422 33.6305 94.4012C33.7426 92.9161 33.9397 90.872 34.1809 88.6134C34.4221 86.3548 34.6259 84.3367 34.7822 82.8353C34.8536 82.1138 34.9113 81.5354 34.9521 81.0804C34.9759 80.8919 34.9928 80.7327 35.0064 80.6059C35.0068 80.5497 35.016 80.4938 35.0336 80.4402Z" fill="#263238"/>
<path d="M22.9303 88.9475L22.2407 88.9587L22.2627 90.187L22.9522 90.1757L22.9303 88.9475Z" fill="#263238"/>
<path d="M35.132 80.3133C35.0552 80.3211 34.9778 80.3211 34.901 80.3133H34.2215L31.7788 80.2808L23.7306 80.1021L15.6823 79.8713L13.243 79.7803L12.5636 79.7478C12.487 79.7482 12.4107 79.7406 12.3359 79.7251C12.4127 79.7173 12.4902 79.7173 12.567 79.7251H13.2464L15.6857 79.7608L23.7374 79.9396L31.7856 80.1703L34.2249 80.2613L34.9044 80.2938C34.9807 80.2924 35.0571 80.2989 35.132 80.3133Z" fill="#263238"/>
<path d="M22.4705 71.0254C22.4705 71.0254 20.9553 75.0389 20.9077 75.6758C20.8602 76.3128 20.1875 77.33 20.9519 77.5672C20.9519 77.5672 20.8228 78.0612 21.6314 78.2399C21.6314 78.2399 21.6314 79.0816 22.6981 78.9906C22.6981 78.9906 23.4286 79.6763 24.0299 79.3156C24.0299 79.3156 24.9608 79.7575 25.3413 79.1076C25.6359 78.5656 25.8924 78.0054 26.109 77.4307L26.7138 77.8857C26.9303 77.4208 26.9932 76.9038 26.8938 76.4038C26.7172 75.6238 25.6844 74.6359 25.9154 73.661C25.975 73.3091 26.0788 72.9654 26.2246 72.6373L22.4705 71.0254Z" fill="#FFBE9D"/>
<g opacity="0.3">
<path d="M30.4504 85.812C29.5929 87.7427 28.2355 89.4326 26.5061 90.7224C25.2864 91.6649 23.7678 92.4156 22.2085 92.2596C20.8495 92.1231 19.6537 91.3171 18.6617 90.4105C16.6516 88.5792 15.1841 86.2718 14.4082 83.7224C14.4082 83.7224 18.1453 89.624 22.5924 89.5428C26.6012 89.4518 30.4504 85.812 30.4504 85.812Z" fill="#4A4A4A"/>
</g>
<path d="M46.1631 33.3508C46.1631 33.3508 52.2477 34.5532 52.9985 35.4339C53.5998 36.1359 56.7933 43.2562 56.7933 43.2562L59.3685 47.6239C59.9102 48.0442 60.3078 48.6101 60.51 49.2487C60.8309 50.6807 60.9859 52.1422 60.972 53.6067C60.972 53.6067 60.5134 56.4795 58.6347 56.5997C57.7497 56.634 56.8665 56.5 56.0361 56.2054C55.2056 55.9109 54.4446 55.4617 53.7969 54.8839C52.6995 53.9447 50.0157 47.5784 50.1108 47.2534L46.1631 33.3508Z" fill="#00AAE6"/>
<path d="M35.0166 32.0509L35.2816 31.7584L38.0538 34.7612L40.279 37.0913L43.0682 31.4497L43.8768 32.0184C43.8768 32.0184 46.88 53.7627 46.8291 54.0162C46.7781 54.2696 47.991 66.1378 47.991 66.1378C47.991 66.1378 41.6006 67.3533 39.7491 66.7878C37.8975 66.2223 33.78 67.1128 33.8071 66.9308C33.8343 66.7488 32.0405 59.4823 32.0405 59.4823L32.5671 39.5547L35.0166 32.0509Z" fill="#FAFAFA"/>
<path d="M46.9074 63.4796C46.7506 63.459 46.596 63.4253 46.4454 63.3789C46.1532 63.3041 45.7319 63.1839 45.2155 63.0149C43.8737 62.5789 42.5678 62.0477 41.3086 61.4258C40.0498 60.803 38.8405 60.0926 37.6905 59.3004C37.2488 58.9949 36.8989 58.7382 36.6713 58.553C36.5481 58.4629 36.4344 58.3617 36.3315 58.2507C36.4697 58.324 36.6015 58.4076 36.7256 58.501C36.9702 58.67 37.3304 58.9137 37.7754 59.2062C38.9426 59.9636 40.1553 60.6548 41.4071 61.2763C42.6611 61.8929 43.9534 62.4356 45.2767 62.9012C45.7829 63.0799 46.1974 63.2261 46.4827 63.3139C46.6292 63.3569 46.7713 63.4123 46.9074 63.4796Z" fill="#263238"/>
<path d="M40.2723 37.0913C40.2812 37.1734 40.2812 37.2562 40.2723 37.3383C40.2723 37.5138 40.2723 37.751 40.2723 38.0435C40.2723 38.6772 40.2723 39.5611 40.2519 40.6433C40.2519 42.8402 40.2349 45.8755 40.2791 49.226C40.3233 52.5765 40.4082 55.615 40.4762 57.8086C40.5101 58.8941 40.5373 59.778 40.5577 60.4085C40.5577 60.7009 40.5577 60.9382 40.5577 61.1137C40.5673 61.1957 40.5673 61.2786 40.5577 61.3606C40.5415 61.2803 40.5325 61.1987 40.5305 61.1169C40.5305 60.9382 40.4999 60.7042 40.4829 60.4085C40.4422 59.7975 40.398 58.9071 40.3471 57.8086C40.2485 55.6118 40.1432 52.5765 40.0957 49.2227C40.0481 45.869 40.0753 42.8337 40.1228 40.6368C40.1466 39.5384 40.1704 38.648 40.1976 38.037C40.1976 37.7413 40.2214 37.5073 40.2281 37.3285C40.2353 37.2483 40.2501 37.1689 40.2723 37.0913Z" fill="#263238"/>
<path d="M41.6889 66.0143C41.5789 65.2606 41.5255 64.5004 41.5292 63.7394C41.472 62.9821 41.472 62.2219 41.5292 61.4646C41.6392 62.2183 41.6925 62.9785 41.6889 63.7394C41.7461 64.4967 41.7461 65.257 41.6889 66.0143Z" fill="#263238"/>
<path d="M34.8533 32.3206L32.7979 34.4719C32.7979 34.4719 30.2058 35.0764 27.2773 36.0091C26.6889 36.2421 26.1633 36.5998 25.7403 37.0552C25.3172 37.5106 25.0075 38.0518 24.8346 38.6381C24.6138 39.3498 28.3475 56.5931 28.3475 56.5931L27.702 61.5588L25.7111 75.8806C25.7111 75.8806 29.1628 77.057 31.3779 77.1415C32.6247 77.1902 32.8319 72.5203 33.3585 69.2835C33.8647 66.1572 35.1761 56.1479 35.1761 53.3596C35.1761 50.5713 34.568 37.1335 34.568 36.8442C34.568 36.555 34.8533 32.3206 34.8533 32.3206Z" fill="#00AAE6"/>
<path d="M34.7752 57.5258C34.7403 57.4427 34.7131 57.3568 34.6936 57.2691C34.6427 57.0839 34.5781 56.8401 34.4932 56.5314C34.3233 55.8815 34.0821 54.9423 33.79 53.8049C33.209 51.4845 32.431 48.3062 31.5341 44.7965C31.2895 43.7988 31.0483 42.8304 30.8207 41.9009V41.8749V41.8522L32.5194 37.8354L32.5839 37.9297H30.9158H30.8037L30.8615 37.8387C31.5409 36.7305 32.1015 35.8303 32.499 35.1901L32.9508 34.4752C32.9997 34.3892 33.0565 34.3076 33.1207 34.2314C33.0799 34.3218 33.0334 34.4097 32.9814 34.4947L32.5567 35.2259C32.1762 35.8758 31.6361 36.7825 30.9736 37.9004L30.9158 37.8094H32.5839H32.6926L32.6519 37.9069C32.1592 39.1094 31.5987 40.4678 30.9974 41.9334V41.8847C31.2284 42.8109 31.4662 43.7793 31.7142 44.777L33.9191 53.7951C34.1908 54.939 34.4117 55.8717 34.5679 56.5347C34.6393 56.8596 34.697 57.0969 34.7378 57.2821C34.7561 57.3624 34.7685 57.4439 34.7752 57.5258Z" fill="#263238"/>
<path d="M43.8633 31.9307L45.1814 33.0778L52.7405 35.1252L52.8424 46.6749L51.7145 58.2539L54.0281 75.5394C51.4053 76.9206 47.4916 76.6249 47.4916 76.6249L45.6944 66.5245C45.4125 64.6397 44.4306 51.9363 44.4306 51.9363L43.8633 31.9307Z" fill="#00AAE6"/>
<path d="M46.5809 55.3908C46.5813 55.3046 46.5904 55.2186 46.608 55.134C46.6386 54.9553 46.676 54.7116 46.7235 54.4093C46.8289 53.7594 46.9749 52.8592 47.155 51.7478C47.4947 49.4989 47.967 46.3856 48.3712 42.9376C48.5717 41.212 48.7416 39.5676 48.8842 38.0629C48.9522 37.3155 49.0133 36.6038 49.0745 35.9343C49.1017 35.6094 49.156 35.2649 48.9658 35.0504C48.8553 34.9608 48.7227 34.8998 48.5806 34.873C48.4384 34.8463 48.2915 34.8548 48.1538 34.8977C47.8747 34.9624 47.5883 34.9941 47.3011 34.9919C47.0409 34.9716 46.79 34.8902 46.5707 34.7547C46.232 34.5313 45.9414 34.2477 45.7145 33.9195C45.5243 33.6562 45.3748 33.445 45.3069 33.2988C45.2568 33.2274 45.2146 33.1511 45.1812 33.0713C45.2373 33.1382 45.2884 33.2087 45.334 33.2825C45.4326 33.419 45.5718 33.627 45.7689 33.8805C45.999 34.1933 46.2882 34.4622 46.6216 34.6734C46.8269 34.7955 47.06 34.868 47.3011 34.8847C47.5797 34.883 47.857 34.8481 48.1266 34.7807C48.282 34.751 48.4408 34.7412 48.5989 34.7514C48.7763 34.7623 48.9421 34.8393 49.0609 34.9659C49.1757 35.1019 49.237 35.2721 49.2342 35.4469C49.2375 35.6139 49.2307 35.781 49.2138 35.9473C49.156 36.6135 49.0983 37.3285 49.0371 38.0759C48.9046 39.5773 48.7382 41.225 48.5377 42.9506C48.1334 46.4019 47.6544 49.5152 47.2705 51.7608C47.0735 52.8819 46.907 53.7886 46.7847 54.4158C46.7235 54.7148 46.6726 54.9553 46.6352 55.134C46.6258 55.2211 46.6076 55.3071 46.5809 55.3908Z" fill="#263238"/>
<path d="M51.6973 43.214C51.2903 43.3064 50.8714 43.3414 50.4538 43.318C50.0371 43.3526 49.6174 43.3307 49.207 43.253C49.6159 43.165 50.0354 43.1311 50.4538 43.1522C50.8693 43.1172 51.2878 43.138 51.6973 43.214Z" fill="#263238"/>
<g opacity="0.3">
<path d="M53.046 49.2748C53.5541 48.6284 54.2885 48.1785 55.1149 48.0074C55.3154 47.9684 55.5804 47.9749 55.6585 48.1537C55.678 48.228 55.6753 48.3062 55.6507 48.3791C55.6261 48.4521 55.5805 48.517 55.5192 48.5664L55.2644 48.8621C54.4715 49.5814 53.9707 50.5463 53.8511 51.5854C53.6962 51.1068 53.7017 50.5938 53.8668 50.1183C54.0319 49.6427 54.3483 49.2285 54.7718 48.9336C53.9633 49.0896 53.3483 49.6973 52.7878 50.2758C52.7388 50.1017 52.7368 49.9185 52.782 49.7435C52.8271 49.5684 52.918 49.4072 53.046 49.2748Z" fill="#4A4A4A"/>
</g>
<path d="M52.4755 50.5485C52.4755 50.5485 52.5706 50.4056 52.7439 50.1943C52.9669 49.9156 53.23 49.6683 53.5253 49.4599C53.8217 49.2528 54.1463 49.0855 54.4901 48.9627C54.7551 48.8717 54.925 48.8359 54.925 48.8229C54.925 48.8099 54.8774 48.8229 54.7993 48.8229C54.6845 48.8426 54.5711 48.8686 54.4595 48.9009C53.7437 49.124 53.1219 49.5615 52.6861 50.1488C52.6217 50.2376 52.5627 50.3298 52.5095 50.4251C52.5027 50.5063 52.4687 50.5453 52.4755 50.5485Z" fill="#263238"/>
<path d="M53.9533 52.2677C53.9533 52.2677 53.9533 52.0402 53.9533 51.6762C53.9666 51.4645 53.995 51.2538 54.0382 51.0458C54.0965 50.7906 54.1737 50.5397 54.2693 50.2951C54.3731 50.0537 54.4957 49.8201 54.6362 49.5964C54.7532 49.4151 54.8826 49.2414 55.0235 49.0764C55.2647 48.7969 55.4447 48.6507 55.4379 48.6377C55.3899 48.6664 55.3455 48.7002 55.3054 48.7384C55.2647 48.7709 55.2137 48.8132 55.1594 48.8652C55.105 48.9172 55.0439 48.9724 54.9827 49.0439C54.833 49.2058 54.6967 49.3786 54.575 49.5606C54.4302 49.7865 54.3052 50.0235 54.2013 50.2691C54.101 50.5167 54.0237 50.7722 53.9703 51.0328C53.9288 51.2473 53.905 51.4646 53.899 51.6827C53.8937 51.765 53.8937 51.8475 53.899 51.9297C53.8947 51.9925 53.8947 52.0554 53.899 52.1182C53.9106 52.17 53.9289 52.2202 53.9533 52.2677Z" fill="#263238"/>
<path d="M52.7337 39.8113C52.7433 39.8705 52.7433 39.9308 52.7337 39.99C52.7337 40.1298 52.7337 40.2987 52.7337 40.5067C52.7134 40.9812 52.6862 41.6247 52.6522 42.4078C52.5639 44.0327 52.445 46.2361 52.3125 48.6734C52.18 51.1108 52.0203 53.3109 51.9184 54.9357C51.8606 55.7157 51.8165 56.3591 51.7791 56.8304C51.7791 57.0383 51.7451 57.2106 51.7349 57.3471C51.7332 57.4077 51.7229 57.4678 51.7043 57.5258C51.6995 57.4652 51.6995 57.4044 51.7043 57.3438C51.7043 57.2073 51.7043 57.0189 51.7043 56.8271C51.7247 56.3526 51.7553 55.7092 51.7893 54.926C51.8776 53.3011 51.9965 51.0978 52.129 48.6604C52.2615 46.2231 52.4178 44.0262 52.5197 42.4014C52.5775 41.6182 52.625 40.9779 52.659 40.5035C52.6794 40.2955 52.693 40.1265 52.7066 39.99C52.7086 39.9296 52.7177 39.8697 52.7337 39.8113Z" fill="#263238"/>
<path d="M26.8122 36.4414C26.8122 36.4414 25.0932 37.0491 24.6244 39.5547C24.1555 42.0603 21.2271 72.7219 21.2271 72.7219L26.1803 72.9949L28.6162 56.3073L26.8122 36.4414Z" fill="#00AAE6"/>
<path d="M28.6158 56.6582C28.6668 56.6582 28.1232 60.5579 27.403 65.3644C26.6827 70.1708 26.044 74.051 26.0135 74.0413C25.9829 74.0315 26.5095 70.1415 27.2263 65.3384C27.9432 60.5352 28.5683 56.6517 28.6158 56.6582Z" fill="#263238"/>
<path d="M27.2708 42.0505C27.3217 42.0505 27.6615 45.3003 28.0318 49.3463C28.4021 53.3923 28.6671 56.655 28.6161 56.6615C28.5652 56.668 28.2288 53.4118 27.8551 49.3625C27.4814 45.3133 27.2232 42.0538 27.2708 42.0505Z" fill="#263238"/>
<path d="M40.2722 37.2505C40.1406 37.1666 40.0178 37.0708 39.9053 36.9645L38.9506 36.1391L39.0559 36.1131C38.7502 36.9483 38.3255 38.063 37.8533 39.2881L37.7989 39.4311L37.7004 39.3141L37.6325 39.2296C36.8322 38.277 36.1483 37.2401 35.5941 36.1391C35.38 35.7166 35.2272 35.3656 35.132 35.1219C35.074 34.9969 35.0307 34.8661 35.0029 34.7319C35.079 34.8473 35.1438 34.9692 35.1966 35.0959C35.3121 35.3331 35.4786 35.6711 35.7062 36.0708C36.291 37.1473 36.9851 38.1662 37.7785 39.1126L37.8465 39.1939L37.6936 39.2166C38.1692 37.9915 38.6075 36.8833 38.9404 36.0578L38.9778 35.9701L39.0457 36.0351L39.9596 36.8995C40.0773 37.0049 40.1822 37.1226 40.2722 37.2505Z" fill="#263238"/>
<path d="M43.9175 33.939C43.934 34.0663 43.934 34.1951 43.9175 34.3224C43.8903 34.6019 43.8564 34.9496 43.8156 35.3591C43.7205 36.2366 43.5744 37.4455 43.4079 38.7811V38.8851L43.3773 39.1029L43.2448 38.9209C42.4499 37.8289 41.7432 36.8378 41.2438 36.1261H41.3389L40.5949 36.8378C40.508 36.9296 40.4112 37.0123 40.3062 37.0848C40.3735 36.979 40.4545 36.8818 40.5474 36.7955L41.2506 36.0448L41.3016 35.9928L41.3457 36.0513C41.8723 36.7468 42.5959 37.725 43.3841 38.8201L43.2245 38.8559V38.7551C43.3943 37.4195 43.5642 36.2138 43.6831 35.3396C43.7476 34.9301 43.7986 34.5857 43.8428 34.3062C43.8535 34.1815 43.8786 34.0584 43.9175 33.939Z" fill="#263238"/>
<path d="M25.2425 70.3984C25.2425 70.3984 25.3071 70.3789 25.4192 70.3984C25.5795 70.4438 25.7156 70.5461 25.7997 70.6844C25.8578 70.7784 25.897 70.882 25.9152 70.9899C25.9361 71.1207 25.9148 71.2544 25.8541 71.3733C25.7858 71.5084 25.6792 71.6224 25.5465 71.7023C25.4137 71.7822 25.2601 71.8247 25.1032 71.8251C24.9469 71.8024 24.8019 71.7334 24.6886 71.6279C24.5753 71.5225 24.4993 71.3857 24.4713 71.2368C24.4454 71.1209 24.4505 71.0005 24.4862 70.8869C24.5218 70.7733 24.5868 70.6701 24.6752 70.5869C24.7885 70.4723 24.9397 70.3988 25.1032 70.3789C25.2188 70.3789 25.2799 70.3789 25.2765 70.4017C25.0807 70.4347 24.9017 70.5283 24.7669 70.6681C24.6997 70.7418 24.652 70.8299 24.6278 70.9249C24.6035 71.0199 24.6035 71.1191 24.6276 71.2141C24.6539 71.3275 24.7147 71.4309 24.8024 71.5113C24.8901 71.5917 25.0007 71.6455 25.1202 71.6658C25.2425 71.6628 25.3616 71.6283 25.465 71.566C25.5684 71.5036 25.6524 71.4158 25.708 71.3116C25.7545 71.2251 25.7787 71.1293 25.7787 71.0321C25.7787 70.9349 25.7545 70.8391 25.708 70.7526C25.5177 70.4309 25.229 70.4244 25.2425 70.3984Z" fill="#263238"/>
<path d="M52.3769 64.3569C52.3769 64.3569 47.8414 64.6819 48.0385 64.6137L49.343 66.9665L53.5693 66.6805L52.3769 64.3569Z" fill="#00AAE6"/>
<path d="M52.3771 64.3569C52.4139 64.4036 52.4458 64.4537 52.4722 64.5064L52.7236 64.9581C52.9546 65.3871 53.2638 65.9591 53.6341 66.6513L53.6783 66.739H53.5763L49.3501 67.0445H49.2923L49.2651 66.9958L49.2176 66.9113C48.7759 66.1053 48.3513 65.3416 47.964 64.6364L48.0625 64.6754C48.0625 64.6754 48.0965 64.6754 48.0863 64.5909C48.0761 64.5064 48.0319 64.5487 48.0387 64.5454H48.2357H48.4668L48.9186 64.5227L49.7544 64.4804L51.1337 64.4089L52.0306 64.3699C52.138 64.3622 52.2459 64.3622 52.3533 64.3699C52.2492 64.3979 52.142 64.4143 52.034 64.4187L51.1405 64.4999L49.7645 64.6072L48.9254 64.6657L48.4736 64.6949H48.2425H48.1202H47.9809C47.9809 64.6949 47.9809 64.7112 47.93 64.6429C47.879 64.5747 47.964 64.5584 47.9538 64.5584H47.9775L48.0421 64.5389L48.0761 64.5974L49.3399 66.8723L49.3874 66.96L49.3025 66.9145L53.5322 66.6448L53.4744 66.7423L52.6421 65.0491L52.4145 64.5714C52.393 64.5016 52.3805 64.4296 52.3771 64.3569Z" fill="#263238"/>
<path d="M31.5718 64.9126L27.461 64.3569L26.5913 66.9665L30.7904 67.5482L31.5718 64.9126Z" fill="#00AAE6"/>
<path d="M31.5717 64.9127C31.5667 64.9724 31.5541 65.0314 31.5343 65.0882L31.3984 65.6147C31.2761 66.0729 31.096 66.7456 30.8582 67.5645V67.6198H30.7937L26.6387 67.0608H26.5912H26.4893L26.5198 66.9633C26.8324 66.0339 27.1314 65.1532 27.3997 64.3635L27.4201 64.3018H27.4847C28.7179 64.474 29.7541 64.6267 30.4743 64.7437L31.3067 64.877C31.4012 64.8867 31.4945 64.9052 31.5852 64.9322C31.5852 64.9322 31.4663 64.9322 31.2455 64.9062L30.3894 64.812C29.6624 64.7275 28.6432 64.6105 27.4473 64.4545L27.5356 64.4025C27.2706 65.1954 26.9785 66.0794 26.6727 67.0023L26.6014 66.8918H26.6489L30.8005 67.4735L30.7223 67.5223C30.9635 66.7391 31.1742 66.0924 31.3237 65.6342C31.3916 65.4229 31.4494 65.2474 31.5003 65.1012C31.5188 65.0367 31.5427 64.9736 31.5717 64.9127Z" fill="#263238"/>
<path d="M60.1773 38.5504C60.2541 38.5892 60.3218 38.6427 60.3761 38.7076C60.4305 38.7724 60.4703 38.8472 60.4932 38.9274C60.523 39.0521 60.5074 39.1828 60.4491 39.2978L58.5772 43.2853L57.3575 45.6317L53.7563 44.7997L56.0835 39.2426C56.0835 39.2426 56.2738 38.4756 57.0076 38.4756H59.8681C59.9763 38.4741 60.0829 38.4999 60.1773 38.5504Z" fill="#455A64"/>
<path d="M59.362 39.5546H59.8308C59.8651 39.5539 59.8986 39.5445 59.9278 39.5274C59.9571 39.5102 59.981 39.486 59.9973 39.4571C60.0126 39.4297 60.0202 39.399 60.0194 39.368C60.0186 39.3369 60.0093 39.3066 59.9925 39.2801C59.9757 39.2535 59.9519 39.2316 59.9236 39.2165C59.8952 39.2013 59.8633 39.1936 59.8308 39.1939H59.362C59.3262 39.1938 59.2912 39.2036 59.2611 39.2221C59.231 39.2405 59.207 39.2668 59.1921 39.2979C59.1792 39.3253 59.1735 39.3554 59.1758 39.3854C59.178 39.4155 59.1879 39.4445 59.2048 39.47C59.2216 39.4954 59.2448 39.5164 59.2722 39.5312C59.2997 39.546 59.3305 39.554 59.362 39.5546Z" fill="white"/>
<path d="M59.9768 49.6647C60.1059 49.4047 59.6371 49.0148 59.6371 49.0148C59.6371 49.0148 59.0664 46.3792 59.2974 45.9307C59.5284 45.4823 59.4129 44.9298 59.4537 44.0004C59.4944 43.0709 59.8477 42.7395 59.8477 42.7395C59.8477 42.7395 59.8783 42.1447 59.9565 41.6638C59.9966 41.3611 59.9139 41.0552 59.7254 40.8091L58.5839 43.2984L58.3971 43.0742C57.8974 42.3572 57.2695 41.7301 56.5421 41.2218C56.1752 41.0333 55.8967 41.3843 55.7913 41.6573C55.686 41.9303 56.1073 42.4047 56.3689 42.577C56.6305 42.7492 57.0483 43.8541 57.2012 44.2571C57.3541 44.6601 57.2012 44.7478 56.9362 44.9071C56.6712 45.0663 55.6622 44.2571 55.173 44.0654C54.7368 43.8319 54.3414 43.5348 54.0009 43.1847C53.9085 43.1172 53.7984 43.0754 53.6827 43.0639C53.567 43.0524 53.4502 43.0717 53.3453 43.1197C52.9614 43.2854 53.1346 44.0004 53.1346 44.0004C52.5265 44.4423 52.8425 45.3003 52.8425 45.3003C52.8425 45.3003 52.2343 45.3458 52.1936 45.5408C52.1528 45.7357 52.36 46.7822 52.6998 47.0357C53.0395 47.2891 54.4936 48.2641 54.4936 48.2641C54.8182 48.7358 55.2717 49.1135 55.8049 49.356L56.0903 50.7242C56.7136 50.8987 57.3762 50.8987 57.9996 50.7242C58.7383 50.5286 59.4166 50.1651 59.9768 49.6647Z" fill="#FFBE9D"/>
<path d="M53.1382 43.9192C53.1382 43.9192 53.1382 43.9192 53.1382 43.9549C53.1336 43.9884 53.1336 44.0222 53.1382 44.0557C53.1599 44.1799 53.211 44.2977 53.2876 44.4002C53.4 44.5497 53.5365 44.6814 53.6919 44.7901C53.8652 44.9136 54.0622 45.0339 54.2763 45.1574C54.6402 45.3625 55.0195 45.5417 55.411 45.6936C55.5604 45.7488 55.6861 45.7911 55.7711 45.8171L55.907 45.8528C55.907 45.8528 55.7235 45.7748 55.4313 45.6481C55.0465 45.4854 54.6721 45.3009 54.3102 45.0956C53.9377 44.9161 53.6044 44.6701 53.3284 44.3709C53.2237 44.2394 53.158 44.0834 53.1382 43.9192Z" fill="#EB996E"/>
<path d="M52.8662 45.3035C52.936 45.4123 53.0205 45.5117 53.1176 45.5992C53.3416 45.8215 53.5912 46.0189 53.8616 46.1874C54.1326 46.356 54.4234 46.4934 54.7279 46.5969C54.8518 46.6467 54.9821 46.6806 55.1152 46.6977C55.1152 46.6977 54.9725 46.6424 54.7483 46.5514C54.4529 46.4366 54.1697 46.2952 53.9024 46.1289C53.6359 45.9637 53.3857 45.7755 53.155 45.5667C52.9749 45.4042 52.873 45.297 52.8662 45.3035Z" fill="#EB996E"/>
<path d="M58.7468 45.3166C58.8356 45.2493 58.8959 45.1535 58.9166 45.0469C58.9635 44.7947 58.9565 44.536 58.8962 44.2864C58.8564 44.0362 58.7997 43.7887 58.7264 43.5455C58.7025 43.4427 58.6648 43.3433 58.6143 43.2498C58.6262 43.3543 58.6478 43.4576 58.6788 43.5585C58.723 43.747 58.7807 44.0069 58.8283 44.2962C58.8843 44.5394 58.8969 44.7899 58.8657 45.0371C58.8398 45.1351 58.7998 45.2292 58.7468 45.3166Z" fill="#EB996E"/>
<path d="M57.3063 46.4799C57.3063 46.4799 57.3505 46.4799 57.4219 46.4799C57.5134 46.4507 57.5906 46.3906 57.6393 46.3109C57.687 46.2313 57.7039 46.1381 57.6868 46.0477C57.6868 45.9795 57.6427 45.9437 57.6325 45.9502C57.6461 46.0613 57.6273 46.1738 57.5781 46.2752C57.4762 46.4344 57.2995 46.4604 57.3063 46.4799Z" fill="#EB996E"/>
<path d="M56.1006 47.5198C56.1006 47.5198 56.1549 47.5458 56.2467 47.5198C56.3664 47.5035 56.4767 47.4484 56.5592 47.3638C56.6417 47.2795 56.691 47.1704 56.6985 47.0551C56.6985 46.9673 56.6985 46.9154 56.6747 46.9186C56.651 46.9219 56.6747 46.9706 56.651 47.0486C56.628 47.1486 56.5789 47.2414 56.5083 47.3183C56.4325 47.391 56.3392 47.4446 56.2365 47.4743C56.1896 47.4848 56.1441 47.5001 56.1006 47.5198Z" fill="#EB996E"/>
<path d="M55.0542 48.1373C55.0542 48.1373 55.0984 48.1568 55.1697 48.1373C55.2617 48.1093 55.3423 48.0549 55.4007 47.9814C55.4598 47.9076 55.492 47.8175 55.4925 47.7246C55.4925 47.6531 55.4687 47.6141 55.4619 47.6174C55.4489 47.733 55.4082 47.8442 55.343 47.9424C55.2639 48.0279 55.165 48.0947 55.0542 48.1373Z" fill="#EB996E"/>
<path d="M55.8115 49.4177C55.8872 49.466 55.9711 49.5012 56.0595 49.5216C56.2674 49.5873 56.4796 49.6394 56.6948 49.6776C56.9094 49.7137 57.1261 49.7365 57.3437 49.7459C57.4338 49.7593 57.5254 49.7593 57.6155 49.7459C57.6155 49.7264 57.2044 49.7101 56.7084 49.6224C56.2124 49.5346 55.8183 49.3982 55.8115 49.4177Z" fill="#EB996E"/>
<path d="M54.6904 43.8185L54.7278 43.7372L54.8229 43.4967L55.1627 42.6063C55.4514 41.8458 55.8421 40.8059 56.2702 39.662C56.352 39.3803 56.5273 39.1317 56.7696 38.9535C57.0261 38.8353 57.3118 38.7869 57.5952 38.8138L59.0662 38.83H60.0582H60.3164C60.3479 38.8348 60.38 38.8348 60.4115 38.83H60.3164H60.048L59.056 38.804L57.585 38.7748C57.4424 38.7652 57.2994 38.7652 57.1569 38.7748C57.0042 38.7887 56.8567 38.8353 56.7254 38.9113C56.4672 39.0939 56.2796 39.3534 56.1921 39.649C55.764 40.8027 55.3801 41.8458 55.1049 42.603L54.7856 43.5C54.7482 43.6007 54.721 43.682 54.7006 43.7437C54.6937 43.7681 54.6902 43.7932 54.6904 43.8185Z" fill="#263238"/>
<path d="M147.445 142.033C147.445 142.079 116.189 142.118 77.6466 142.118C39.104 142.118 7.8418 142.079 7.8418 142.033C7.8418 141.988 39.0972 141.946 77.6466 141.946C116.196 141.946 147.445 141.985 147.445 142.033Z" fill="#263238"/>
</svg>
