<svg width="223" height="157" viewBox="0 0 223 157" fill="none" xmlns="http://www.w3.org/2000/svg">
<path d="M111.01 136.84C146.212 136.84 174.75 108.409 174.75 73.338C174.75 38.267 146.212 9.83643 111.01 9.83643C75.8066 9.83643 47.269 38.267 47.269 73.338C47.269 108.409 75.8066 136.84 111.01 136.84Z" fill="#B4DEE4"/>
<path d="M64.8649 76.7377V134.605L54.0918 142.833C54.0918 142.833 54.4509 146.142 56.0669 147.036C57.6828 147.931 59.1192 148.378 65.7626 148.378C72.4059 148.378 162.989 148.378 162.989 148.378C162.989 148.378 165.952 148.647 167.208 147.215C168.465 145.784 169.363 142.833 169.363 142.833L158.59 134.605V76.7377C158.59 76.7377 157.154 71.1925 153.025 71.1925C148.984 71.1925 70.3411 71.1925 70.3411 71.1925C70.3411 71.1925 64.8649 71.908 64.8649 76.7377Z" fill="#939393"/>
<path d="M154.461 78.348H68.6357V130.401H154.461V78.348Z" fill="white"/>
<path d="M81.564 29.0659V71.281H141.982V41.4085L129.235 29.0659H81.564Z" fill="white"/>
<path d="M129.592 50.2649H94.041V52.4114H129.592V50.2649Z" fill="#C8C8C8"/>
<path d="M129.592 56.4365H94.041V58.583H129.592V56.4365Z" fill="#C8C8C8"/>
<path d="M129.592 62.6063H94.041V64.7528H129.592V62.6063Z" fill="#C8C8C8"/>
<path d="M129.592 84.3401H94.041V86.4866H129.592V84.3401Z" fill="#2AB0EC"/>
<path d="M129.592 90.869H94.041V93.0155H129.592V90.869Z" fill="#2AB0EC"/>
<path d="M129.592 97.6653H94.041V99.8115H129.592V97.6653Z" fill="#2AB0EC"/>
<path d="M129.592 104.733H94.041V106.88H129.592V104.733Z" fill="#2AB0EC"/>
<path d="M81.564 78.348V119.4H141.982V78.348" stroke="#2AB0EC" stroke-width="1.467" stroke-miterlimit="10"/>
<path d="M64.8649 134.694L54.0918 142.922C54.0918 142.922 54.1816 144.532 62.0818 144.354C69.982 144.175 85.7824 144.532 85.7824 144.532L165.234 144.354C165.234 144.354 167.118 144.711 168.196 144.175C169.184 143.638 169.453 142.922 169.453 142.922L158.68 134.694H64.8649Z" fill="#C2C2C2"/>
<path d="M111.727 76.1126C112.322 76.1126 112.804 75.6321 112.804 75.0393C112.804 74.4467 112.322 73.9661 111.727 73.9661C111.132 73.9661 110.65 74.4467 110.65 75.0393C110.65 75.6321 111.132 76.1126 111.727 76.1126Z" fill="#1A1A1A"/>
<path d="M158.68 134.694H64.8652V76.7377C64.8652 73.6968 67.379 71.1925 70.4313 71.1925H153.115C156.167 71.1925 158.68 73.6968 158.68 76.7377V134.694Z" stroke="#4A4A4A" stroke-width="1.467" stroke-miterlimit="10"/>
<path d="M158.68 134.694H64.8649L54.0918 142.922C54.0918 145.963 56.6055 148.467 59.6579 148.467H163.887C166.939 148.467 169.453 145.963 169.453 142.922L158.68 134.694Z" stroke="#4A4A4A" stroke-width="1.467" stroke-miterlimit="10"/>
<path d="M54.7207 143.011C55.7082 143.726 56.8752 144.174 58.2219 144.174H76.6258" stroke="#4A4A4A" stroke-width="0.978" stroke-miterlimit="10"/>
<path d="M119.987 144.173H165.323C166.49 144.173 168.555 143.457 169.453 142.831" stroke="#4A4A4A" stroke-width="0.978" stroke-miterlimit="10"/>
<path d="M84.0757 144.174H111.547" stroke="#4A4A4A" stroke-width="0.978" stroke-miterlimit="10"/>
<path d="M154.461 78.348H68.8154V130.49H154.461V78.348Z" stroke="#4A4A4A" stroke-width="0.978" stroke-miterlimit="10"/>
<path d="M111.817 76.2016C112.461 76.2016 112.983 75.6811 112.983 75.039C112.983 74.3968 112.461 73.8762 111.817 73.8762C111.172 73.8762 110.65 74.3968 110.65 75.039C110.65 75.6811 111.172 76.2016 111.817 76.2016Z" stroke="#4A4A4A" stroke-width="0.978" stroke-miterlimit="10"/>
<path d="M141.982 71.281V41.4085L129.594 29.0659H81.564V71.281" stroke="#4A4A4A" stroke-width="1.467" stroke-miterlimit="10"/>
<path d="M141.982 41.7662H129.234V29.0659" stroke="#4A4A4A" stroke-width="1.467" stroke-miterlimit="10"/>
</svg>
