<svg width="223" height="157" viewBox="0 0 223 157" fill="none" xmlns="http://www.w3.org/2000/svg">
<path d="M111.201 141.889C144.687 141.889 171.835 114.742 171.835 81.255C171.835 47.7673 144.687 20.6204 111.201 20.6204C77.7128 20.6204 50.5659 47.7673 50.5659 81.255C50.5659 114.742 77.7128 141.889 111.201 141.889Z" fill="#B4DEE4"/>
<path d="M66.9629 61.5269V116.781L56.7148 124.638C56.7148 124.638 57.0565 127.798 58.5937 128.652C60.1309 129.506 61.4973 129.933 67.8169 129.933C74.1365 129.933 160.305 129.933 160.305 129.933C160.305 129.933 163.124 130.189 164.32 128.823C165.515 127.456 166.369 124.638 166.369 124.638L156.121 116.781V61.5269C156.121 61.5269 154.755 56.2323 150.826 56.2323C146.983 56.2323 72.1723 56.2323 72.1723 56.2323C72.1723 56.2323 66.9629 56.8302 66.9629 61.5269Z" fill="#939393"/>
<path d="M151.852 63.1494H70.6357V112.767H151.852V63.1494Z" fill="white"/>
<path d="M66.9629 116.781L56.7148 124.637C56.7148 124.637 58.5937 126.004 61.6681 126.004C64.7425 126.004 107.613 126.004 107.613 126.004H162.44C162.44 126.004 163.38 125.662 164.32 125.407C165.259 125.151 166.454 124.552 166.454 124.552L156.206 116.696H66.9629V116.781Z" fill="#C2C2C2"/>
<path d="M140.151 99.2737H82.7617V16.0088H128.281L140.151 27.6232V99.2737Z" fill="white"/>
<path d="M128.452 36.2487H94.6333V38.2983H128.452V36.2487Z" fill="#2AB0EC"/>
<path d="M119.484 42.1412H94.6333V44.1908H119.484V42.1412Z" fill="#2AB0EC"/>
<path d="M128.452 48.0339H94.6333V50.0835H128.452V48.0339Z" fill="#C8C8C8"/>
<path d="M128.452 53.0725H94.6333V55.1216H128.452V53.0725Z" fill="#C8C8C8"/>
<path d="M128.452 58.9648H94.6333V61.0146H128.452V58.9648Z" fill="#C8C8C8"/>
<path d="M128.452 64.8579H94.6333V66.907H128.452V64.8579Z" fill="#C8C8C8"/>
<path d="M151.167 120.283C152.724 120.283 153.985 119.901 153.985 119.428C153.985 118.957 152.724 118.574 151.167 118.574C149.611 118.574 148.349 118.957 148.349 119.428C148.349 119.901 149.611 120.283 151.167 120.283Z" fill="#2AB0EC"/>
<path d="M135.112 94.406L114.445 79.9738L117.178 104.996L122.814 99.616L128.793 109.693L133.66 106.79L127.683 96.7972L135.112 94.406Z" stroke="#4A4A4A" stroke-width="1.467" stroke-miterlimit="10"/>
<path d="M104.027 86.2082L108.383 83.4749" stroke="#4A4A4A" stroke-width="1.467" stroke-miterlimit="10" stroke-linecap="round"/>
<path d="M102.918 77.4117L107.957 78.5217" stroke="#4A4A4A" stroke-width="1.467" stroke-miterlimit="10" stroke-linecap="round"/>
<path d="M124.693 73.0564L120.338 75.8747" stroke="#4A4A4A" stroke-width="1.467" stroke-miterlimit="10" stroke-linecap="round"/>
<path d="M117.179 68.3591L116.069 73.3979" stroke="#4A4A4A" stroke-width="1.467" stroke-miterlimit="10" stroke-linecap="round"/>
<path d="M108.297 70.1525L111.029 74.5078" stroke="#4A4A4A" stroke-width="1.467" stroke-miterlimit="10" stroke-linecap="round"/>
<path d="M140.321 56.2323H150.826C153.729 56.2323 156.12 58.6235 156.12 61.5269V116.781H66.9624V61.5269C66.9624 58.6235 69.3536 56.2323 72.2573 56.2323H82.7616" stroke="#4A4A4A" stroke-width="1.467" stroke-miterlimit="10"/>
<path d="M156.121 116.781H66.9629L56.7148 124.638C56.7148 127.542 59.1061 129.933 62.0097 129.933H161.16C164.063 129.933 166.454 127.542 166.454 124.638L156.121 116.781Z" stroke="#4A4A4A" stroke-width="1.467" stroke-miterlimit="10"/>
<path d="M57.2266 124.809C58.1659 125.492 59.2762 125.919 60.5571 125.919H78.0642" stroke="#4A4A4A" stroke-width="0.978" stroke-miterlimit="10"/>
<path d="M119.398 125.919H162.44C163.551 125.919 165.515 125.236 166.368 124.638" stroke="#4A4A4A" stroke-width="0.978" stroke-miterlimit="10"/>
<path d="M85.1528 125.919H111.285" stroke="#4A4A4A" stroke-width="0.978" stroke-miterlimit="10"/>
<path d="M140.322 63.0645H152.108V112.767H70.6357V63.0645H82.7626" stroke="#4A4A4A" stroke-width="0.978" stroke-miterlimit="10"/>
<path d="M116.495 99.2688H82.7617V16.0037H128.451L140.322 27.7035V99.2688H129.133" stroke="#4A4A4A" stroke-width="1.467" stroke-miterlimit="10"/>
<path d="M128.11 15.9233V27.794H139.981" stroke="#4A4A4A" stroke-width="1.467" stroke-miterlimit="10"/>
</svg>
