<svg width="223" height="157" viewBox="0 0 223 157" fill="none" xmlns="http://www.w3.org/2000/svg">
<mask id="mask0_37_8451" style="mask-type:luminance" maskUnits="userSpaceOnUse" x="46" y="11" width="130" height="135">
<path d="M175.07 11.0532H46.9521V145.314H175.07V11.0532Z" fill="white"/>
</mask>
<g mask="url(#mask0_37_8451)">
<path d="M119.858 11.0532C89.3742 11.0532 64.646 35.7155 64.646 66.118C64.646 92.4459 83.1567 114.45 107.921 119.872H131.796C156.56 114.415 175.07 92.4103 175.07 66.118C175.07 35.7155 150.342 11.0532 119.858 11.0532Z" fill="#B4DEE4"/>
<path d="M82.9072 31.2153V70.6535L127.425 85.4652L156.595 81.7094L156.452 44.7511L143.094 31.2153H82.9072Z" fill="white"/>
<path d="M74.7354 74.3036L74.913 109.348L74.7354 139.538C74.7354 139.538 74.7353 142.479 77.6842 142.479C80.6332 142.479 127.39 142.479 127.39 142.479H128.491L142.738 142.337H157.198C157.198 142.337 158.264 142.195 159.33 142.337C160.396 142.479 164.837 142.479 164.837 142.479C164.837 142.479 167.786 142.337 167.786 139.538C167.786 136.703 167.786 84.4376 167.786 84.4376C167.786 84.4376 167.716 81.7801 163.807 81.7801C159.898 81.7801 128.349 81.7094 128.349 81.7094C128.349 81.7094 128.313 77.9532 125.436 74.3036C122.557 70.6535 119.893 70.2639 112.787 70.1932C105.681 70.1221 78.3593 70.2283 78.3593 70.2283C78.3593 70.2283 74.7354 70.8663 74.7354 74.3036Z" fill="#2AB0EC"/>
<path d="M116.34 70.0161H78.7855C76.7604 70.1578 74.5576 71.8585 74.5576 74.0908V76.7129C74.5576 74.4454 75.4458 72.1068 78.7855 72.2836H116.34C129.237 72.1068 127.993 79.5477 128.171 81.5323L128.419 81.6384C128.419 75.2601 123.019 70.0161 116.34 70.0161Z" fill="white"/>
<path d="M112.787 103.076C112.787 103.076 111.834 95.949 114.213 93.1491C116.593 90.3499 119.751 88.938 122.984 89.7172C126.182 90.5324 128.278 92.0562 129.308 94.749C130.338 97.442 130.125 98.8952 130.125 99.9935C130.125 101.092 130.055 103.076 130.055 103.076H132.31C132.31 103.076 132.647 112.621 132.15 114.711C131.616 116.802 130.849 118.973 129.748 120.142C128.61 121.347 126.704 123.177 124.263 123.806C120.994 124.195 115.558 124.372 112.325 119.412C109.092 114.486 110.191 110.645 110.05 108.802C109.907 106.96 110.05 103.212 110.05 103.212L112.787 103.076Z" fill="#878787"/>
<path d="M58.0726 34.7943C58.0726 34.7943 58.0726 33.5541 58.4634 32.4556C58.8897 31.3571 58.7832 30.6839 60.0623 30.5776C61.3413 30.4713 63.5796 30.6839 64.148 30.5776C64.7166 30.4713 64.9298 29.9043 65.214 30.046C65.5338 30.1877 66.7417 31.0028 67.4523 32.4201C68.1628 33.8021 69.2643 36.3889 69.4065 38.3022C69.5486 40.2158 69.7262 41.2434 69.2643 41.9165C68.8025 42.5899 67.1681 43.6173 67.1681 43.6173C67.1681 43.6173 67.5233 45.0348 67.8786 45.3183C68.2339 45.6017 68.909 47.4443 68.5536 47.8695C67.9852 48.5428 67.6299 49.3578 65.6403 49.0743C63.6151 48.7908 62.5137 47.8695 62.1229 46.9836C61.59 45.7434 62.0874 45.1057 61.9098 44.6095C61.7321 44.1135 60.6307 42.3417 60.6307 42.3417C60.6307 42.3417 59.8491 43.4402 58.3568 42.6253C56.8646 41.8103 56.0475 41.3851 56.5804 40.3575C57.1133 39.3298 57.7528 39.5779 58.4634 39.6842C59.174 39.7904 60.2399 39.9676 59.8136 39.2236C59.3871 38.4794 59.1029 38.1251 59.1029 37.062C59.1029 35.999 59.2806 35.751 58.8542 35.5384C58.4279 35.3258 58.0726 34.7943 58.0726 34.7943Z" fill="#8A8A8A"/>
<path d="M79.7448 61.0864C79.7448 61.0864 81.1304 60.165 80.9528 59.0313C80.7752 57.8975 80.562 55.2044 80.4554 54.3894C80.3488 53.539 79.8869 51.9444 80.3488 51.3421C80.8107 50.7397 80.9528 50.1019 81.2725 50.3145C81.6278 50.5271 81.5923 50.6688 81.5568 51.3421C81.5212 52.0153 81.5923 53.5745 81.5923 53.5745C81.5923 53.5745 82.2673 51.909 83.1912 51.3421C84.1504 50.7751 84.861 50.3499 85.0386 51.0587C85.5621 52.0773 85.1452 51.3421 84.6833 52.5469C84.2215 53.7871 84.1504 54.7438 84.1504 54.7438C84.1504 54.7438 85.8232 53.0039 86.0009 53.3936C86.1785 53.7835 85.4295 54.7438 85.0742 55.9841C84.7189 57.2241 84.7189 58.6061 84.6833 59.0313C84.6478 59.4564 84.6478 61.0158 83.8307 61.795C83.0135 62.5747 81.9831 63.6378 81.5568 63.5668C81.1304 63.4961 81.3436 63.1771 80.6685 62.3975C80.0646 61.5827 79.354 61.4054 79.7448 61.0864Z" fill="#8A8A8A"/>
<path d="M156.452 44.7513H142.773V46.8065H156.452V44.7513Z" fill="#E1E1E1"/>
<path d="M122.095 48.7908H94.7729V50.4208H122.095V48.7908Z" fill="#878787"/>
<path d="M114.847 53.5391H94.7729V55.1689H114.847V53.5391Z" fill="#878787"/>
<path d="M144.961 58.6499H94.6753V60.247H144.961V58.6499Z" fill="#C8C8C8"/>
<path d="M144.961 62.4829H94.6753V64.0805H144.961V62.4829Z" fill="#C8C8C8"/>
<path d="M144.961 66.6357H94.6753V68.2328H144.961V66.6357Z" fill="#C8C8C8"/>
<path d="M128.206 80.3273H144.961V78.6974H127.851C127.993 79.2997 128.099 79.8667 128.206 80.3273Z" fill="#C8C8C8"/>
<path d="M126.323 75.3311C126.537 75.6501 126.714 75.9686 126.892 76.2876H144.962V74.6576H125.826C126.004 74.9059 126.181 75.1183 126.323 75.3311Z" fill="#C8C8C8"/>
<path d="M123.304 72.284H144.961V70.6541H119.679C121.1 71.0081 122.273 71.5749 123.304 72.284Z" fill="#C8C8C8"/>
<path d="M115.914 103.005C115.914 103.005 114.706 97.2648 117.086 94.7845C119.502 92.3042 121.456 92.0208 123.837 93.2962C126.217 94.5366 126.75 96.0249 126.857 97.8672C126.928 99.7099 126.857 103.005 126.857 103.005H125.116C125.116 103.005 125.684 105.415 124.725 106.761C123.765 108.108 122.806 108.639 121.385 108.71C119.964 108.781 119.324 108.32 118.507 107.399C117.69 106.478 117.512 105.309 117.512 104.954C117.512 104.6 117.512 103.148 117.512 103.148L115.914 103.005Z" fill="#2AB0EC"/>
<path d="M95.6973 31.2154C95.6973 31.2154 96.5853 29.6209 98.1845 29.3373C99.7826 29.0538 101.311 28.6287 101.666 28.4515C102.021 28.2743 102.341 27.7074 102.732 27.9199C103.122 28.1325 102.803 29.4081 102.803 29.4081C102.803 29.4081 105.361 29.5854 106.747 30.046C108.097 30.5066 107.67 30.9674 107.67 30.9674L106.747 31.2154C106.747 31.2154 107.209 31.676 106.747 31.7114C106.285 31.7468 103.584 31.0028 103.584 31.0028L95.6973 31.2154Z" fill="#8A8A8A"/>
<path d="M58.1787 49.0743C58.1787 49.0743 54.9455 54.2123 55.3363 56.6216C55.7271 59.0313 57.4681 63.8506 57.4681 63.8506C57.4681 63.8506 57.7523 67.6775 57.1838 70.1933C56.6153 72.7091 55.4429 76.0398 55.0876 76.784C54.7323 77.5636 53.4888 79.8667 53.4888 79.8667C53.4888 79.8667 53.4888 81.8157 54.6613 83.4101C55.8337 85.0046 57.4681 86.4222 57.4681 86.4222C57.4681 86.4222 59.6708 87.8039 60.0972 87.9811C60.5235 88.1584 61.0565 89.1504 61.8026 86.9891C62.5488 84.8273 63.5791 81.9929 64.0054 79.2643C64.4317 76.5361 64.716 73.6657 64.716 73.6657C64.716 73.6657 65.5331 74.5515 67.3807 74.1264C69.1926 73.7012 72.3192 72.0357 74.2378 70.8309C76.1919 69.5909 77.8618 68.1733 77.8618 68.1733C77.8618 68.1733 78.3591 66.9334 77.7197 65.5513C77.0801 64.134 76.4761 63.4961 76.4761 63.4961L75.4813 63.0709C75.4813 63.0709 73.0298 64.2402 71.1113 65.055C69.1926 65.8703 67.9847 66.4015 67.8426 66.1537C67.7004 65.9058 67.807 65.1261 67.807 65.1261C67.807 65.1261 68.4821 61.5826 66.7057 57.5075C64.9292 53.3973 63.2238 51.0232 62.4777 49.6413C61.7315 48.2593 61.3762 47.0899 61.4117 46.3459C61.4117 45.6017 61.7671 44.7158 61.7671 44.7158L61.4117 44.3969C61.3407 44.2552 59.4222 46.3105 58.1787 49.0743Z" fill="#2AB0EC"/>
<path d="M67.7363 43.3694C67.7363 43.3694 68.3402 42.8733 68.8022 42.3772C69.2641 41.8812 69.5483 41.8103 69.5483 41.8103C69.5483 41.8103 71.8932 40.6055 74.1671 40.5701C76.4409 40.5701 78.5371 40.641 79.3543 40.4638C80.1715 40.2865 82.9072 39.5425 82.9072 39.5425V46.4876L77.8621 48.1884L80.6333 56.1613C80.6333 56.1613 78.4306 52.4759 74.9132 49.0743C71.3958 45.6726 68.8022 44.2552 68.8022 44.2552L67.7363 43.3694Z" fill="#2AB0EC"/>
<path d="M76.2272 62.7518C76.2272 62.7518 76.8312 58.8188 76.2272 55.4171C75.6231 52.0152 73.5625 47.8694 73.5625 47.8694C73.5625 47.8694 75.5521 49.5348 77.4352 51.8026C79.3182 54.0704 80.7394 56.5508 80.7394 56.5508C80.7394 56.5508 80.7394 57.8618 80.9171 58.3225C81.0947 58.7833 81.0236 60.4132 80.775 60.5194C80.5618 60.6611 79.7445 61.0863 79.7445 61.0863C79.7445 61.0863 79.4248 61.2636 78.6787 61.6532C77.9326 62.0432 76.2272 62.7518 76.2272 62.7518Z" fill="#2AB0EC"/>
<path d="M76.7603 69.0946L77.7906 68.1026L77.9682 67.3585L81.3791 65.1616L81.308 64.3464V63.8506L82.7291 62.9647L82.8246 70.1499L78.3591 70.2284L76.7603 70.7602V69.0946Z" fill="#2AB0EC"/>
<path d="M61.4823 44.7512C61.4823 44.7512 60.6295 45.956 61.7665 48.1884C62.9035 50.4206 64.9286 52.9719 65.8879 55.4171C66.8471 57.8619 67.5933 60.2715 67.6644 62.185C67.7354 64.0985 67.7354 65.0198 67.7354 65.0198L67.4157 66.0474C67.4157 66.0474 68.8723 66.3308 70.5777 65.1615C72.2832 63.9922 75.4096 62.9998 75.4096 62.9998L76.2268 62.7874C76.2268 62.7874 76.8664 60.7323 76.3689 56.9054C75.8715 53.1137 74.1306 49.712 73.8464 48.7907C73.5622 47.8694 72.745 47.0899 72.745 47.0899L69.6895 44.8221L68.4815 44.1488L67.7354 43.4047L67.309 44.1488L67.8776 45.2827C67.8776 45.2827 68.7658 46.5229 68.5526 47.2671C68.3394 47.9757 68.5881 48.5781 67.0958 48.7907C65.6036 49.0387 64.147 49.2867 63.01 48.1884C61.8731 47.0899 61.9796 45.8852 61.9796 45.8852L61.8731 44.5387L61.4823 44.7512Z" fill="white"/>
<path d="M64.6449 73.6301C64.6449 73.6301 65.995 74.5159 67.3097 74.0908C68.6242 73.6657 71.1824 72.5319 73.0298 71.4688C74.8773 70.4057 76.7604 69.0946 76.7604 69.0946V70.7952C76.7604 70.7952 74.6641 72.0356 74.6641 73.7718C74.6641 75.5435 74.6641 86.7763 74.6641 86.7763C74.6641 86.7763 73.8825 87.9104 72.8522 88.3356C71.8219 88.7607 70.1875 89.1148 70.1875 89.1148L69.548 85.4652L68.4821 89.1148C68.4821 89.1148 66.4925 88.7252 64.6449 86.918C62.7975 85.1462 62.6553 84.9339 62.6553 84.9339C62.6553 84.9339 63.5791 81.6739 63.9699 79.1936C64.3252 76.7483 64.6449 73.6301 64.6449 73.6301Z" fill="white"/>
<path d="M57.4324 86.3866C57.4324 86.3866 57.8588 86.1032 57.539 88.3355C57.2193 90.5679 56.3665 97.3714 56.0468 99.3196C55.727 101.269 54.1993 108.852 53.7374 113.99C53.2755 119.128 52.4229 133.089 52.4229 133.089C52.4229 133.089 52.7071 134.542 54.1637 134.755C55.6204 134.967 57.1837 134.719 57.6812 134.471C58.143 134.259 58.818 133.833 58.818 133.833C58.818 133.833 59.3155 130.042 59.5286 125.01C59.7418 119.979 61.0919 113.104 61.767 110.553C62.4421 108.001 64.1119 102.048 64.929 99.3196C65.7462 96.5917 66.8121 93.1544 66.8121 93.1544C66.8121 93.1544 67.8069 105.77 66.7766 112.679C65.7462 119.589 65.0356 123.379 65.0356 126.463C65.0356 129.546 65.0001 133.833 65.0001 133.833C65.0001 133.833 66.7411 134.294 68.3754 134.259C70.0097 134.223 72.106 133.727 72.106 133.727L72.6389 133.408C72.6389 133.408 72.2481 125.47 72.8521 118.667C73.456 111.863 74.2377 105.238 74.2732 105.025C74.3087 104.812 74.8061 102.297 74.8061 102.297L74.664 86.7762C74.664 86.7762 73.5271 88.1583 72.0704 88.619C70.6492 89.0797 70.1873 89.1152 70.1873 89.1152L69.6899 84.9694L68.482 89.1152C68.482 89.1152 66.1371 88.9024 65.2132 87.7331C64.2895 86.5638 62.6552 84.9694 62.6552 84.9694C62.6552 84.9694 62.1933 85.9614 61.767 86.9534C61.3406 87.9455 60.9498 88.3355 60.9498 88.3355C60.9498 88.3355 57.9654 86.9179 57.4324 86.3866Z" fill="#303030"/>
<path d="M47.4483 142.585C47.4483 142.585 47.4483 141.132 48.5852 139.822C49.7221 138.51 50.4327 137.483 50.788 137.023C51.1077 136.562 52.0671 135.357 52.0671 135.357C52.0671 135.357 52.7066 135.25 53.3461 135.746C53.9856 136.242 54.3764 137.305 54.3764 137.305L56.5793 134.825L58.782 133.869C58.782 133.869 58.9952 134.648 59.0307 135.144C59.0663 135.64 59.1018 136.384 59.1018 136.384C59.1018 136.384 58.8531 137.695 58.036 138.227C57.1832 138.759 56.3306 139.326 55.9042 139.786C55.4778 140.247 54.483 141.841 53.0974 142.55C51.7118 143.258 50.1484 144.074 49.1181 143.932C48.1589 143.826 47.1641 143.897 47.4483 142.585Z" fill="#303030"/>
<path d="M53.0266 134.223L52.0674 135.392C52.0674 135.392 52.8135 135.569 53.3464 135.782C53.8793 135.995 54.3767 137.341 54.3767 137.341L56.5795 134.861C56.5795 134.861 55.5848 135.003 55.0518 134.861C54.5188 134.683 53.0266 134.223 53.0266 134.223Z" fill="#8A8A8A"/>
<path d="M67.3105 134.223L72.0004 136.03C72.0004 136.03 71.9649 135.995 72.1781 135.569C72.3913 135.144 72.8176 134.755 72.8176 134.755L72.036 133.762C72.0715 133.762 68.9804 134.932 67.3105 134.223Z" fill="#8A8A8A"/>
<path d="M65.9945 134.294C65.9945 134.294 65.4259 135.534 65.6391 136.739C65.8524 137.944 66.3142 138.617 66.3142 138.617C66.3142 138.617 68.1617 138.9 69.3697 138.9C70.5778 138.9 71.6791 139.112 72.4252 139.219C73.1713 139.29 74.7702 139.538 74.7702 139.538V135.605L73.7042 135.003L72.8871 134.436L72.2476 135.605C72.2476 135.605 72.2121 136.066 71.7502 135.924C71.2883 135.781 67.3445 134.223 67.3445 134.223C67.3445 134.223 66.1011 134.01 65.9945 134.294Z" fill="#303030"/>
<path d="M65.746 138.333C65.746 138.333 65.3551 139.291 65.746 139.503C66.1368 139.715 67.5579 139.999 68.5172 139.963C69.4764 139.927 71.324 140.07 72.0701 140.176C72.8162 140.282 74.7348 140.354 74.7348 140.354L74.5572 139.326C74.5572 139.326 72.9583 139.468 72.0701 139.149C71.1464 138.83 70.1516 138.865 70.1516 138.865C70.1516 138.865 69.0146 139.077 68.4461 139.007C67.8421 138.971 66.3145 138.617 66.3145 138.617L65.746 138.333Z" fill="white"/>
<path d="M59.1029 136.916C59.1029 136.916 58.641 137.908 57.5041 138.617C56.3671 139.326 55.7276 139.822 55.0525 140.743C54.3775 141.629 53.3116 142.762 51.7127 143.33C50.114 143.897 49.5811 144.144 48.8705 144.003C48.1598 143.861 47.4137 143.33 47.4137 143.33L47.165 143.081C47.165 143.081 46.7387 143.79 47.4137 144.321C48.0888 144.853 49.2613 145.384 50.718 144.853C52.1746 144.321 53.809 143.719 54.6617 142.692C55.5499 141.664 55.4433 140.85 56.5447 140.354C57.6462 139.857 58.9608 138.794 59.0673 138.652C59.1739 138.51 59.5647 136.207 59.1029 136.916Z" fill="white"/>
<path d="M55.2657 32.739C55.2657 32.739 54.1999 31.0382 55.7987 29.798C57.3975 28.5578 58.7476 27.92 61.128 27.1405C63.473 26.3609 65.2524 25.2684 65.6403 26.042C66.1376 27.0342 66.7061 28.487 66.8483 29.2311C66.9904 29.9752 67.1325 31.2154 67.1325 31.2154C67.1325 31.2154 66.8128 31.2154 66.4218 30.8611C66.031 30.5067 65.2494 30.046 65.2494 30.046C65.2494 30.046 65.1784 30.365 64.681 30.4713C64.1836 30.5776 62.798 30.4359 61.6609 30.4713C60.5241 30.5067 59.2451 30.3296 58.9253 31.2508C58.57 32.1367 58.0726 34.6526 58.0726 34.6526C58.0726 34.6526 58.2538 34.9988 58.4832 35.3308C58.9636 35.6502 59.1384 35.8219 59.1029 36.4243C59.0319 37.6645 59.6714 38.7275 59.5648 39.1173C59.4582 39.507 59.0674 39.6488 58.4279 39.6488C57.7884 39.6488 56.9711 39.7905 56.9711 39.7905L56.5448 40.3221C56.5448 40.3221 54.0841 39.1173 53.8802 38.0188C53.5249 36.1053 53.2051 35.9636 53.8802 34.8651C54.5907 33.7312 55.2657 32.739 55.2657 32.739Z" fill="#303030"/>
<path d="M61.3413 44.2552C61.3413 44.2552 58.57 47.338 57.0423 51.094C55.5145 54.85 54.8039 55.7712 55.5855 58.6417C56.3672 61.5471 57.8594 64.134 59.3161 66.8267C60.7729 69.5198 61.3058 70.1933 61.3058 70.1933C61.3058 70.1933 60.3464 67.1813 58.7121 63.8151C57.0778 60.4489 55.5145 57.7558 56.7936 54.3186C58.0726 50.8814 61.4124 45.3892 61.4124 45.3892C61.4124 45.3892 61.8032 43.7237 61.3413 44.2552Z" fill="white"/>
<path d="M53.4526 79.8666L53.6302 81.107C53.6302 81.1421 56.1528 77.3152 57.2542 73.4528C58.3556 69.5908 58.249 64.807 58.249 64.807L57.2897 63.2832C57.2897 63.2832 57.6095 68.1026 57.0765 70.6184C56.5436 73.1342 55.6554 75.6501 54.9093 77.0673C54.1632 78.4845 53.4526 79.8666 53.4526 79.8666Z" fill="white"/>
<path d="M47.448 143.33L47.9809 143.755C47.9809 143.755 48.1941 142.09 48.8691 140.743C49.5442 139.396 51.1786 137.908 51.747 137.341C52.28 136.774 52.8839 135.605 52.8839 135.605H51.747C51.747 135.605 50.2548 137.979 49.6152 138.582C48.9402 139.184 47.2348 140.813 47.448 143.33Z" fill="white"/>
<path d="M54.946 33.1996C55.0171 33.0933 55.1236 32.987 55.2657 32.9162C55.5855 32.7744 56.2961 32.3137 55.8342 33.2705C55.2303 34.5461 54.1289 35.3611 54.4131 36.7785C54.6973 38.1959 54.1289 38.2313 53.9157 37.9478C53.738 37.6644 52.9919 37.062 53.4537 35.928C53.809 35.0067 54.5907 33.7311 54.946 33.1996Z" fill="white"/>
<path d="M163.912 81.6028L128.306 81.9691L129.13 83.091C129.52 83.6935 130.195 84.048 130.906 84.048H163.912C166.826 84.0836 167.429 85.8903 167.607 87.7687L167.643 89.3276V85.3235C167.643 83.2683 165.973 81.6028 163.912 81.6028Z" fill="white"/>
<path fill-rule="evenodd" clip-rule="evenodd" d="M74.4946 74.3036C74.4946 71.9036 76.4498 69.9537 78.8562 69.9537H116.659C123.142 69.9537 128.422 75.1403 128.551 81.576H162.097V82.0551H128.072V81.8156C128.072 75.5343 122.957 70.4329 116.659 70.4329H78.8562C76.715 70.4329 74.9751 72.1681 74.9751 74.3036V139.503C74.9751 141 76.1821 142.204 77.6838 142.204H134.871V142.683H77.6838C75.9167 142.683 74.4946 141.265 74.4946 139.503V74.3036Z" fill="#4A4A4A"/>
<path fill-rule="evenodd" clip-rule="evenodd" d="M162.066 81.576H164.695C166.462 81.576 167.884 82.9941 167.884 84.7566V139.503C167.884 141.265 166.462 142.683 164.695 142.683H134.873V142.204H164.695C166.197 142.204 167.404 141 167.404 139.503V84.7566C167.404 83.2591 166.197 82.0552 164.695 82.0552H162.066V81.576Z" fill="#4A4A4A"/>
<path fill-rule="evenodd" clip-rule="evenodd" d="M87.0293 72.1949H115.204V72.5144H87.0293V72.1949Z" fill="#4A4A4A"/>
<path fill-rule="evenodd" clip-rule="evenodd" d="M112.335 98.1862C112.335 93.3058 116.315 89.3359 121.209 89.3359C126.102 89.3359 130.082 93.3058 130.082 98.1862V103.005H129.602V98.1862C129.602 93.5704 125.837 89.8151 121.209 89.8151C116.58 89.8151 112.816 93.5704 112.816 98.1862V103.005H112.335V98.1862Z" fill="#4A4A4A"/>
<path fill-rule="evenodd" clip-rule="evenodd" d="M121.208 92.9689C118.321 92.9689 115.976 95.3066 115.976 98.1862V103.005H115.496V98.1862C115.496 95.042 118.055 92.4897 121.208 92.4897C124.361 92.4897 126.919 95.042 126.919 98.1862V103.005H126.439V98.1862C126.439 95.3066 124.095 92.9689 121.208 92.9689Z" fill="#4A4A4A"/>
<path fill-rule="evenodd" clip-rule="evenodd" d="M121.208 114.893C119.946 114.893 118.916 115.921 118.916 117.179V119.837C118.916 121.095 119.946 122.122 121.208 122.122C122.47 122.122 123.499 121.095 123.499 119.837V117.179C123.499 115.921 122.47 114.893 121.208 114.893ZM118.597 117.179C118.597 115.744 119.769 114.574 121.208 114.574C122.647 114.574 123.82 115.744 123.82 117.179V119.837C123.82 121.271 122.647 122.441 121.208 122.441C119.769 122.441 118.597 121.271 118.597 119.837V117.179Z" fill="#4A4A4A"/>
<path fill-rule="evenodd" clip-rule="evenodd" d="M120.421 116.676C120.873 116.224 121.58 116.224 122.032 116.676L122.035 116.679L122.038 116.682C122.444 117.128 122.449 117.814 122.051 118.265C122.011 118.331 121.954 118.377 121.902 118.408V120.403C121.902 120.705 121.653 120.953 121.351 120.953H121.102C120.801 120.953 120.552 120.705 120.552 120.403V118.391C120.549 118.39 120.546 118.388 120.543 118.386C120.51 118.361 120.466 118.329 120.421 118.284C119.968 117.832 119.968 117.128 120.421 116.676ZM121.804 116.899C121.475 116.575 120.974 116.576 120.648 116.902C120.319 117.23 120.319 117.731 120.648 118.058C120.673 118.085 120.7 118.105 120.729 118.126C120.733 118.128 120.737 118.131 120.74 118.133C120.764 118.15 120.799 118.175 120.825 118.2L120.872 118.247V120.403C120.872 120.528 120.977 120.633 121.102 120.633H121.351C121.476 120.633 121.582 120.528 121.582 120.403V118.215L121.671 118.17C121.708 118.151 121.732 118.138 121.751 118.126C121.767 118.113 121.773 118.105 121.776 118.1L121.786 118.08L121.801 118.064C122.1 117.736 122.101 117.229 121.804 116.899Z" fill="#4A4A4A"/>
<path fill-rule="evenodd" clip-rule="evenodd" d="M132.605 104.033V112.998C132.605 115.971 131.227 119.004 129.344 121.027L128.992 120.701C130.803 118.756 132.124 115.836 132.124 112.998V104.033H132.605Z" fill="#4A4A4A"/>
<path fill-rule="evenodd" clip-rule="evenodd" d="M109.811 102.943H117.611V104.848C117.611 106.841 119.209 108.436 121.208 108.436C123.207 108.436 124.805 106.841 124.805 104.848V102.943H132.604V104.17H132.124V103.422H125.285V104.848C125.285 107.106 123.473 108.914 121.208 108.914C118.944 108.914 117.13 107.106 117.13 104.848V103.422H110.292V112.998C110.292 118.996 115.194 123.884 121.208 123.884C124.06 123.884 127.087 122.667 128.994 120.698L129.339 121.03C127.337 123.101 124.182 124.364 121.208 124.364C114.928 124.364 109.811 119.26 109.811 112.998V102.943Z" fill="#4A4A4A"/>
<path fill-rule="evenodd" clip-rule="evenodd" d="M112.61 106.496C112.13 106.496 111.74 106.884 111.74 107.364C111.74 107.843 112.13 108.231 112.61 108.231C113.09 108.231 113.481 107.843 113.481 107.364C113.481 106.884 113.09 106.496 112.61 106.496ZM111.42 107.364C111.42 106.707 111.953 106.176 112.61 106.176C113.267 106.176 113.8 106.707 113.8 107.364C113.8 108.019 113.267 108.551 112.61 108.551C111.953 108.551 111.42 108.019 111.42 107.364Z" fill="#4A4A4A"/>
<path fill-rule="evenodd" clip-rule="evenodd" d="M129.805 106.496C129.325 106.496 128.935 106.884 128.935 107.364C128.935 107.843 129.325 108.231 129.805 108.231C130.287 108.231 130.676 107.843 130.676 107.364C130.676 106.884 130.287 106.496 129.805 106.496ZM128.615 107.364C128.615 106.707 129.148 106.176 129.805 106.176C130.464 106.176 130.997 106.707 130.997 107.364C130.997 108.019 130.464 108.551 129.805 108.551C129.148 108.551 128.615 108.019 128.615 107.364Z" fill="#4A4A4A"/>
<path fill-rule="evenodd" clip-rule="evenodd" d="M115.204 117.445C114.724 117.445 114.334 117.833 114.334 118.313C114.334 118.792 114.724 119.181 115.204 119.181C115.685 119.181 116.074 118.792 116.074 118.313C116.074 117.833 115.685 117.445 115.204 117.445ZM114.014 118.313C114.014 117.657 114.547 117.126 115.204 117.126C115.862 117.126 116.395 117.657 116.395 118.313C116.395 118.969 115.862 119.501 115.204 119.501C114.547 119.501 114.014 118.969 114.014 118.313Z" fill="#4A4A4A"/>
<path fill-rule="evenodd" clip-rule="evenodd" d="M127.212 117.445C126.732 117.445 126.341 117.833 126.341 118.313C126.341 118.792 126.732 119.181 127.212 119.181C127.692 119.181 128.082 118.792 128.082 118.313C128.082 117.833 127.692 117.445 127.212 117.445ZM126.021 118.313C126.021 117.657 126.554 117.126 127.212 117.126C127.869 117.126 128.402 117.657 128.402 118.313C128.402 118.969 127.869 119.501 127.212 119.501C126.554 119.501 126.021 118.969 126.021 118.313Z" fill="#4A4A4A"/>
<path fill-rule="evenodd" clip-rule="evenodd" d="M142.773 30.9757H143.192L156.691 44.3324V81.8089H156.211V44.5321L142.993 31.4548H142.773V30.9757Z" fill="#4A4A4A"/>
<path fill-rule="evenodd" clip-rule="evenodd" d="M82.6665 70.1933V62.823H83.1469V70.1933H82.6665Z" fill="#4A4A4A"/>
<path fill-rule="evenodd" clip-rule="evenodd" d="M82.6665 30.9757H104.117V31.4548H83.1469V51.7672H82.6665V30.9757Z" fill="#4A4A4A"/>
<path fill-rule="evenodd" clip-rule="evenodd" d="M106.57 30.9757H143.014V44.5116H156.453V44.9907H142.534V31.4548H106.57V30.9757Z" fill="#4A4A4A"/>
<path d="M65.2495 32.3492C65.2495 32.3492 65.3206 32.8099 65.6048 32.8808C65.8535 32.9871 66.1377 32.491 67.2392 32.7036C67.7011 32.8099 68.1274 32.7745 67.4879 32.3846C66.8483 31.9949 65.8535 31.7469 65.2495 32.3492Z" fill="#4A4A4A"/>
<path d="M62.6545 33.4831C62.6545 33.4831 63.3651 32.987 63.4006 33.554C63.4362 34.0501 62.9387 34.1209 62.3703 34.5107C61.4111 35.184 61.1979 35.9281 61.1979 35.9281C60.9492 35.8217 61.0913 34.1564 62.6545 33.4831Z" fill="#4A4A4A"/>
<path d="M66.5084 34.5978C66.6755 34.5407 66.7542 34.3293 66.6842 34.1256C66.6143 33.922 66.4221 33.8032 66.255 33.8603C66.088 33.9174 66.0093 34.1287 66.0793 34.3324C66.1492 34.5361 66.3414 34.6548 66.5084 34.5978Z" fill="#4A4A4A"/>
<path d="M63.0968 36.303C63.2639 36.2459 63.3427 36.0345 63.2727 35.8309C63.2027 35.6273 63.0106 35.5085 62.8435 35.5656C62.6764 35.6227 62.5976 35.8341 62.6677 36.0377C62.7377 36.2414 62.9299 36.3601 63.0968 36.303Z" fill="#4A4A4A"/>
<path fill-rule="evenodd" clip-rule="evenodd" d="M67.3282 44.124C67.3283 44.124 67.3285 44.1241 67.4158 43.9009C67.5032 43.6778 67.5033 43.6778 67.5034 43.6779L67.5044 43.6782L67.506 43.6788L67.5111 43.6809C67.5151 43.6826 67.5205 43.6848 67.5273 43.6877C67.5408 43.6935 67.5595 43.7018 67.583 43.7129C67.63 43.7351 67.6961 43.7684 67.7774 43.8149C67.9399 43.9079 68.1632 44.0535 68.4154 44.2678C68.9206 44.6969 69.539 45.3992 70.0167 46.4986C70.4067 47.4063 70.4829 48.2533 70.4264 48.8959C70.3983 49.2167 70.3368 49.4906 70.2624 49.6989C70.2254 49.8028 70.1834 49.895 70.1378 49.9701C70.0967 50.038 70.0362 50.1197 69.9509 50.1682L69.9452 50.1715L69.9392 50.1744C69.8495 50.2192 69.7614 50.2042 69.7212 50.195C69.6722 50.1837 69.6245 50.1642 69.5829 50.1444C69.4985 50.1041 69.4013 50.044 69.3014 49.9761C69.0993 49.8388 68.8552 49.6486 68.6228 49.4591C68.3893 49.2688 68.163 49.0755 67.9953 48.9301C67.9115 48.8573 67.8421 48.7963 67.7937 48.7535C67.7694 48.7321 67.7503 48.7151 67.7373 48.7036L67.7225 48.6903L67.7173 48.6857C67.7173 48.6857 67.7172 48.6856 67.8777 48.5074L68.0382 48.3291L68.043 48.3333L68.0572 48.3461C68.0699 48.3573 68.0884 48.3738 68.1122 48.3948C68.1597 48.4368 68.2281 48.4969 68.3107 48.5686C68.4762 48.7121 68.6985 48.902 68.9268 49.0882C69.1563 49.2751 69.3874 49.4548 69.5718 49.58C69.6406 49.6268 69.6988 49.6631 69.7454 49.6888C69.7654 49.6508 69.7875 49.6007 69.8098 49.5382C69.8686 49.3734 69.9227 49.1402 69.9478 48.8541C69.9979 48.2832 69.9316 47.5172 69.5757 46.6887C69.1296 45.6623 68.5579 45.0183 68.1039 44.6325C67.8764 44.4393 67.6779 44.3103 67.5383 44.2305C67.4687 44.1906 67.4137 44.163 67.3774 44.1459C67.3593 44.1374 67.3458 44.1315 67.3375 44.1279C67.3333 44.1261 67.3297 44.1246 67.3282 44.124C67.3281 44.124 67.328 44.124 67.3282 44.124Z" fill="#4A4A4A"/>
<path fill-rule="evenodd" clip-rule="evenodd" d="M61.296 46.4347C61.2631 45.9047 61.3295 45.1845 61.8576 44.4274L61.4632 44.1538C60.8552 45.0254 60.7788 45.8634 60.8167 46.467L60.8167 46.4695L60.817 46.472C60.8922 47.3715 61.1595 48.299 62.1776 49.677L62.1788 49.6786C62.9298 50.6773 63.5236 51.3012 63.9997 51.6539C64.4694 52.0018 64.88 52.1245 65.2285 51.9908C65.3494 51.9445 65.4491 51.8405 65.524 51.7487C65.6059 51.6478 65.6895 51.521 65.7716 51.3824C65.9361 51.1043 66.1078 50.7556 66.2623 50.4184C66.4173 50.0801 66.5574 49.748 66.6586 49.5009C66.7093 49.3772 66.7504 49.2746 66.7787 49.2027C66.7929 49.1667 66.8041 49.1386 66.8116 49.1192L66.8202 49.097L66.8231 49.0893C66.8231 49.0893 66.8232 49.0892 66.599 49.0033L66.3746 48.9175L66.372 48.9245L66.3638 48.9456C66.3564 48.9643 66.3458 48.9918 66.3318 49.027C66.304 49.0972 66.2637 49.198 66.2138 49.3197C66.1142 49.5631 65.9768 49.8888 65.8253 50.2193C65.6733 50.5509 65.5097 50.8822 65.3578 51.1389C65.2816 51.2677 65.2118 51.3719 65.151 51.4466C65.0958 51.5142 65.0642 51.5373 65.057 51.5425C65.0553 51.5438 65.056 51.5437 65.056 51.5437C64.9425 51.5871 64.7137 51.5858 64.2862 51.2692C63.8655 50.9577 63.3047 50.377 62.5638 49.3919C61.5938 48.0788 61.3633 47.2351 61.296 46.4347Z" fill="#4A4A4A"/>
<path fill-rule="evenodd" clip-rule="evenodd" d="M66.6338 49.1241C67.7001 48.9037 68.3938 48.3516 68.6105 47.5805C68.8251 46.8166 68.5544 45.8962 67.8273 44.9717L67.5753 45.1688C68.2694 46.0514 68.4782 46.8673 68.3021 47.4942C68.1281 48.1135 67.561 48.6066 66.5675 48.8116L66.5644 48.8122C66.3937 48.8509 66.1272 48.8572 65.8006 48.8262C65.4775 48.7956 65.1075 48.7296 64.7354 48.6319C63.9829 48.4345 63.2555 48.1159 62.8786 47.7239C62.2235 47.036 62.049 46.4939 62.0255 46.1404C62.0135 45.9622 62.0394 45.8266 62.0665 45.738C62.0801 45.6936 62.094 45.6609 62.1039 45.6404C62.1088 45.6303 62.1126 45.6231 62.1148 45.6191L62.1168 45.6156C62.117 45.6154 62.117 45.6155 62.1168 45.6156L62.1161 45.6168C62.116 45.6169 62.116 45.617 61.981 45.5309C61.8462 45.4448 61.8461 45.4448 61.8461 45.445L61.8455 45.4459L61.8446 45.4474L61.8422 45.4513C61.8403 45.4543 61.838 45.4583 61.8352 45.4632C61.8299 45.4729 61.8228 45.4862 61.8147 45.5029C61.7987 45.5365 61.7788 45.584 61.7602 45.6448C61.723 45.7667 61.6911 45.9411 61.7058 46.1616C61.7355 46.6052 61.9518 47.2146 62.6467 47.9441C63.0871 48.4024 63.8877 48.7397 64.6538 48.9409C65.0412 49.0425 65.4284 49.1117 65.7703 49.1441C66.108 49.1762 66.4138 49.1737 66.6338 49.1241Z" fill="#4A4A4A"/>
<path fill-rule="evenodd" clip-rule="evenodd" d="M66.2715 50.3677C66.2715 50.3677 66.2714 50.3677 66.2779 50.2081C66.2844 50.049 66.2844 50.0485 66.2844 50.0485L66.2879 50.0486L66.301 50.049C66.3128 50.0492 66.3307 50.0495 66.354 50.0494C66.4007 50.0494 66.4689 50.0482 66.5535 50.0436C66.7231 50.0345 66.9568 50.012 67.2134 49.9587C67.7324 49.8508 68.3169 49.6229 68.6729 49.1548L68.928 49.3479C68.5025 49.9075 67.8256 50.1578 67.2787 50.2715C67.0024 50.3289 66.7521 50.3528 66.5708 50.3626C66.48 50.3675 66.4061 50.3688 66.3545 50.3689C66.3287 50.3689 66.3085 50.3686 66.2944 50.3684C66.2873 50.3682 66.2819 50.368 66.2779 50.3679L66.2734 50.3678L66.2715 50.3677Z" fill="#4A4A4A"/>
<path fill-rule="evenodd" clip-rule="evenodd" d="M66.9536 43.689C66.9536 43.689 66.9536 43.6891 67.1685 43.5819C67.3833 43.4749 67.3833 43.4749 67.3833 43.4749L67.3842 43.4766L67.3864 43.481L67.3943 43.497C67.401 43.5108 67.4107 43.5311 67.4231 43.5574C67.448 43.6101 67.4834 43.6871 67.5268 43.7861C67.6136 43.984 67.7322 44.2703 67.8608 44.6257C68.1177 45.336 68.4158 46.3265 68.5787 47.4453L68.1033 47.5142C67.9463 46.436 67.6583 45.4777 67.4089 44.7883C67.2843 44.444 67.1697 44.1676 67.0866 43.978C67.0451 43.8832 67.0114 43.8102 66.9883 43.7612C66.9768 43.7368 66.9679 43.7183 66.962 43.7062L66.9555 43.6927L66.9536 43.689Z" fill="#4A4A4A"/>
<path fill-rule="evenodd" clip-rule="evenodd" d="M60.2739 42.6405C60.2739 42.6405 60.274 42.6406 60.4168 42.448C60.5596 42.2553 60.5598 42.2555 60.5598 42.2555L60.5607 42.2562L60.5624 42.2574L60.5675 42.2613C60.5717 42.2644 60.5774 42.2689 60.5844 42.2745C60.5987 42.2857 60.6186 42.3019 60.6434 42.323C60.6931 42.3653 60.7625 42.4276 60.8458 42.5109C61.0119 42.6772 61.2332 42.9273 61.4605 43.2674C61.916 43.9487 62.3938 44.9887 62.5039 46.4339L62.0248 46.4702C61.9217 45.1161 61.4758 44.1541 61.0608 43.5332C60.8529 43.2222 60.6523 42.9961 60.5054 42.849C60.432 42.7756 60.372 42.7219 60.3315 42.6874C60.3112 42.6702 60.2958 42.6576 60.286 42.6499C60.2811 42.646 60.2775 42.6434 60.2756 42.6418L60.2739 42.6405Z" fill="#4A4A4A"/>
<path fill-rule="evenodd" clip-rule="evenodd" d="M65.0718 29.6043L65.0015 29.8334C65.0718 29.6043 65.0716 29.6042 65.0718 29.6043L65.0728 29.6046L65.0737 29.6049L65.0766 29.6058L65.0845 29.6084C65.0909 29.6106 65.0994 29.6135 65.1097 29.6173C65.1306 29.625 65.1593 29.6363 65.1953 29.6519C65.2672 29.6834 65.3678 29.7325 65.4914 29.8059C65.7385 29.9527 66.076 30.196 66.4573 30.5878C67.2204 31.372 68.1525 32.7441 68.8902 35.1124C69.8012 38.0163 69.938 39.8853 69.7009 41.1329C69.4601 42.3989 68.838 43.006 68.3034 43.387C67.8076 43.7427 67.3012 43.8569 66.6846 43.8569C66.2295 43.8569 65.6961 43.7938 65.0525 43.7176C64.8486 43.6935 64.6336 43.668 64.4065 43.6428L64.4041 43.6426C63.1931 43.4962 62.2731 43.0932 61.6541 42.7246C61.3619 42.5507 61.1368 42.3843 60.9794 42.2561C60.9371 42.3313 60.8821 42.4121 60.8108 42.492C60.5437 42.7919 60.0791 43.0449 59.3048 43.0061C58.556 42.9689 57.6566 42.7003 57.0223 42.2436C56.7038 42.0144 56.4362 41.7261 56.3002 41.3792C56.161 41.0246 56.1684 40.6308 56.3634 40.2206C56.497 39.9312 56.7553 39.7567 57.0247 39.6515C57.2951 39.5459 57.6034 39.499 57.8843 39.4806C58.1672 39.4619 58.4352 39.4713 58.6314 39.485C58.7299 39.4919 58.811 39.5 58.8681 39.5064C58.8807 39.5078 58.8921 39.5091 58.9022 39.5104L59.5684 39.2889C59.5246 39.2317 59.4778 39.1659 59.4299 39.0916C59.2227 38.7695 58.9956 38.2855 58.9013 37.6273C58.8258 37.1001 58.9315 36.7205 59.0008 36.4717C59.0197 36.4037 59.036 36.3454 59.045 36.2965C59.0647 36.1899 59.0584 36.1239 59.0123 36.0462C58.9562 35.9514 58.8288 35.8208 58.544 35.6313L58.5416 35.6298C58.1933 35.392 58.0126 35.2115 57.921 35.0712C57.8739 34.9994 57.8461 34.9317 57.8356 34.8675C57.8304 34.8353 57.8296 34.8049 57.8327 34.7769C57.8333 34.7713 57.8341 34.7659 57.835 34.7606C57.8356 34.7531 57.8364 34.7431 57.8374 34.7306C57.8399 34.7014 57.8437 34.6588 57.8489 34.6046C57.8593 34.4965 57.8757 34.342 57.8993 34.1561C57.9466 33.7848 58.0233 33.2847 58.1412 32.7738C58.2585 32.2656 58.4192 31.7341 58.6389 31.3065C58.8524 30.8908 59.1542 30.5098 59.5844 30.4145C60.2531 30.2663 61.2729 30.2316 62.208 30.2316C62.6793 30.2316 63.1356 30.2405 63.5241 30.2494C63.6046 30.2513 63.682 30.2531 63.7558 30.2549C64.0407 30.2615 64.2736 30.2671 64.433 30.2671C64.5185 30.2671 64.5548 30.2542 64.5685 30.2474C64.5768 30.2431 64.5867 30.2369 64.6023 30.2097C64.6222 30.1756 64.641 30.1267 64.6702 30.0409C64.6736 30.031 64.677 30.0208 64.6805 30.0104C64.706 29.9352 64.7374 29.8426 64.7797 29.7412L64.8635 29.5406L65.0718 29.6043ZM58.3142 34.7946C58.3165 34.7986 58.3194 34.8036 58.3233 34.8095C58.3649 34.873 58.4859 35.011 58.8118 35.2336C59.1124 35.4336 59.3134 35.6128 59.4259 35.8023C59.5485 36.0091 59.5511 36.2023 59.5174 36.3835C59.5003 36.4763 59.4766 36.5627 59.4524 36.6503C59.3861 36.8919 59.3171 37.1424 59.3769 37.5597C59.4603 38.1417 59.6595 38.5612 59.8343 38.8327C59.9217 38.9688 60.0033 39.0678 60.0614 39.1316C60.0904 39.1635 60.1135 39.1864 60.1284 39.2007C60.1359 39.2078 60.1414 39.2128 60.1445 39.2155L60.1472 39.2179L60.4744 39.4928L58.9478 40.0003L58.8915 39.9921L58.8875 39.9916L58.8729 39.9896C58.8598 39.9879 58.84 39.9855 58.8144 39.9826C58.763 39.9768 58.6885 39.9694 58.5976 39.963C58.4152 39.9502 58.1703 39.9419 57.9159 39.9586C57.6593 39.9755 57.4058 40.0173 57.1999 40.0977C56.9935 40.1783 56.8614 40.2868 56.7995 40.4218L56.798 40.4247C56.6561 40.7227 56.6592 40.9794 56.7475 41.2047C56.8391 41.438 57.0313 41.6591 57.3034 41.8551C57.8504 42.2489 58.6564 42.4941 59.3288 42.5276C59.9756 42.5599 60.2927 42.3523 60.4518 42.1737C60.5354 42.0799 60.584 41.9844 60.6115 41.9133C60.6252 41.8779 60.6333 41.8493 60.6379 41.8309C60.6402 41.8217 60.6415 41.8152 60.6422 41.8118L60.6425 41.8099L60.7127 41.32L61.0544 41.6808L61.056 41.6824C61.0576 41.6841 61.0603 41.6868 61.0642 41.6907C61.0721 41.6986 61.0845 41.7108 61.1015 41.7268C61.1356 41.759 61.1881 41.8064 61.2589 41.865C61.4004 41.9821 61.6146 42.1431 61.9003 42.3131C62.4714 42.6532 63.3274 43.0295 64.4607 43.1667C64.7018 43.1935 64.9254 43.2199 65.1337 43.2446C65.7671 43.3194 66.2604 43.3778 66.6846 43.3778C67.2314 43.3778 67.6308 43.2794 68.0232 42.9977C68.4834 42.6699 69.0165 42.1603 69.2288 41.0436C69.4446 39.9081 69.3326 38.1274 68.4317 35.2555C67.7127 32.9468 66.815 31.6434 66.1126 30.9215C65.7611 30.5604 65.4568 30.3431 65.2455 30.2175C65.2065 30.1943 65.1706 30.1742 65.138 30.157C65.1374 30.1589 65.1366 30.1609 65.136 30.1629C65.1323 30.1736 65.1287 30.1844 65.1251 30.1951C65.0977 30.2754 65.0654 30.3681 65.0186 30.4492C64.9676 30.5372 64.8953 30.6196 64.7849 30.6751C64.6797 30.728 64.5606 30.7462 64.433 30.7462C64.2674 30.7462 64.0263 30.7405 63.7404 30.7337C63.6675 30.732 63.5915 30.7302 63.5132 30.7284C63.1256 30.7195 62.6737 30.7108 62.208 30.7108C61.2688 30.7108 60.299 30.747 59.6887 30.8823C59.4793 30.9286 59.266 31.1367 59.0665 31.525C58.8731 31.9012 58.723 32.3886 58.6094 32.8813C58.4963 33.3715 58.422 33.8547 58.376 34.2165C58.353 34.397 58.3372 34.5465 58.3271 34.6507C58.322 34.7027 58.3185 34.7434 58.3162 34.7709C58.3154 34.7804 58.3147 34.7882 58.3142 34.7946Z" fill="#4A4A4A"/>
<path fill-rule="evenodd" clip-rule="evenodd" d="M63.565 26.6231C62.7954 26.9026 61.7835 27.2701 60.4794 27.6197C57.2155 28.4949 55.7995 29.9143 55.3421 30.9241L55.3414 30.926C55.1609 31.3159 55.194 31.7399 55.2845 32.0848C55.3293 32.2551 55.3863 32.3995 55.4322 32.5011C55.4551 32.5518 55.4749 32.5912 55.4886 32.6174C55.4955 32.6305 55.5008 32.6402 55.5042 32.6463L55.5077 32.6526L55.5083 32.6536L55.5897 32.792L55.4919 32.9197L55.4907 32.9213L55.4867 32.9266L55.4703 32.9484C55.4558 32.9677 55.4343 32.9966 55.407 33.034C55.3523 33.1087 55.2742 33.2173 55.1812 33.3521C54.995 33.6218 54.7504 33.9945 54.515 34.4077C54.2789 34.8218 54.0557 35.2704 53.9091 35.693C53.7602 36.1224 53.702 36.4926 53.7594 36.7645L53.7601 36.7677C54.0977 38.4773 55.1182 39.0902 55.9973 39.6183C56.2615 39.777 56.5127 39.9279 56.729 40.0986L56.4308 40.4744C56.2706 40.3478 56.0618 40.2236 55.8271 40.0842C54.936 39.5543 53.6731 38.8034 53.289 36.8618C53.2049 36.4608 53.2977 35.9901 53.455 35.5364C53.615 35.0752 53.8536 34.5983 54.0972 34.1709C54.3415 33.7423 54.5941 33.3577 54.7855 33.0804C54.8812 32.9416 54.9619 32.8294 55.0188 32.7515C55.0188 32.7516 55.0189 32.7515 55.0188 32.7515C55.0109 32.735 55.0027 32.7169 54.9941 32.6978C54.94 32.5779 54.8728 32.4079 54.8198 32.2062C54.715 31.8072 54.6593 31.2571 54.9047 30.7261C55.4427 29.5391 57.0111 28.0535 60.3547 27.1571C61.6364 26.8134 62.623 26.4551 63.3919 26.1759C63.6072 26.0977 63.8056 26.0257 63.9884 25.9619C64.3998 25.8186 64.7506 25.7106 65.0382 25.6802C65.3314 25.6492 65.607 25.6943 65.8125 25.9107C65.8993 25.9983 65.9844 26.1309 66.0651 26.2793C66.1494 26.4343 66.2386 26.6249 66.3289 26.8404C66.5095 27.2715 66.6991 27.813 66.8655 28.3895C67.195 29.531 67.4481 30.8565 67.3349 31.7417L66.8583 31.6811C66.9581 30.9008 66.7315 29.6574 66.4038 28.5222C66.2416 27.9604 66.058 27.4367 65.8857 27.0251C65.7993 26.8192 65.7171 26.6442 65.6428 26.5078C65.566 26.3663 65.5066 26.2832 65.4699 26.2467L65.4673 26.244L65.4646 26.2412C65.4038 26.1765 65.3076 26.1336 65.089 26.1567C64.8637 26.1805 64.5616 26.2697 64.1469 26.4143C63.9706 26.4757 63.777 26.546 63.565 26.6231Z" fill="#4A4A4A"/>
<path fill-rule="evenodd" clip-rule="evenodd" d="M65.5513 35.264C65.5513 35.264 65.5513 35.264 65.6039 35.1131C65.6565 34.9623 65.6565 34.9623 65.6566 34.9623L65.6582 34.9629L65.6622 34.9642L65.677 34.9695C65.6898 34.9742 65.7082 34.981 65.7316 34.9899C65.7784 35.0077 65.8451 35.0339 65.9256 35.0679C66.0866 35.136 66.3044 35.236 66.531 35.3638C66.7569 35.4914 66.9959 35.6488 67.1963 35.8327C67.3951 36.0153 67.5668 36.2338 67.6405 36.4852C67.7727 36.9257 67.5433 37.2518 67.3167 37.4483C67.2026 37.5472 67.0828 37.6201 66.9927 37.668C66.9474 37.6922 66.9087 37.7104 66.881 37.7228C66.8671 37.7289 66.8558 37.7336 66.8479 37.737L66.8382 37.7409L66.8354 37.742L66.8344 37.7423C66.8344 37.7424 66.8338 37.7426 66.7763 37.5935C66.7189 37.4444 66.7188 37.4444 66.7187 37.4444L66.7197 37.4442L66.7255 37.4418C66.7309 37.4396 66.7393 37.4359 66.7503 37.4311C66.7722 37.4213 66.8041 37.4063 66.842 37.3862C66.9185 37.3455 67.0162 37.2855 67.1065 37.2073C67.2884 37.0494 67.4141 36.8442 67.3336 36.5764L67.3332 36.5752C67.2824 36.4017 67.1567 36.2306 66.9793 36.0678C66.8033 35.9062 66.5871 35.7625 66.3733 35.6419C66.1602 35.5217 65.9539 35.4269 65.8007 35.362C65.7241 35.3297 65.6612 35.305 65.6176 35.2884C65.5959 35.2801 65.5789 35.2739 65.5676 35.2698L65.555 35.2653L65.5513 35.264Z" fill="#4A4A4A"/>
<path fill-rule="evenodd" clip-rule="evenodd" d="M58.9731 47.2381C59.9915 45.6059 60.9159 44.3412 61.3047 43.9165L61.6595 44.2396C61.3021 44.6301 60.3968 45.8633 59.381 47.4912C58.3681 49.1147 57.2568 51.1123 56.4823 53.0256C56.0741 54.0522 55.7554 54.9328 55.6221 55.8542C55.4898 56.7699 55.5395 57.7365 55.8857 58.9281C56.4463 60.7793 57.8561 63.8427 60.3051 68.1254C63.2717 73.3388 65.4464 73.9574 66.6338 73.9574C66.8533 73.9574 67.2134 73.8895 67.7163 73.7301C68.2139 73.5727 68.8343 73.3318 69.5679 73.0001C71.0346 72.3367 72.9434 71.3148 75.21 69.8845L75.2117 69.8831C76.2326 69.2513 76.8423 68.7727 77.1937 68.4563C77.3694 68.2983 77.48 68.1812 77.5451 68.1062C77.566 68.082 77.5821 68.0627 77.5942 68.0474C77.5951 68.039 77.5961 68.0294 77.5972 68.0193C77.6031 67.9609 77.611 67.875 77.6179 67.767C77.632 67.5507 77.6427 67.2466 77.6298 66.8978C77.6036 66.1941 77.4816 65.3323 77.1153 64.6346C76.7459 63.9318 76.3271 63.5957 76.0173 63.4338C75.8609 63.3517 75.7287 63.3122 75.6389 63.2929C75.6069 63.2859 75.5804 63.282 75.56 63.2793L75.5383 63.2894C75.4865 63.3131 75.4108 63.3482 75.3139 63.3925C75.1203 63.4816 74.8427 63.6079 74.5068 63.7593C73.8351 64.0616 72.9294 64.4622 71.9943 64.8554C71.06 65.248 70.0928 65.6346 69.2991 65.9079C68.9028 66.0444 68.5449 66.1541 68.2536 66.2225C68.108 66.2564 67.9744 66.2809 67.8583 66.2928C67.7473 66.3042 67.631 66.3055 67.5306 66.2787C67.433 66.2524 67.3395 66.1989 67.2551 66.1383C67.1683 66.076 67.0778 65.997 66.9856 65.9066C66.8012 65.7263 66.596 65.4881 66.3817 65.2161C65.9522 64.6715 65.4703 63.9725 65.0204 63.2859C64.5699 62.5988 64.1487 61.9196 63.8403 61.4128C63.6861 61.1592 63.5599 60.9487 63.4723 60.8012C63.4285 60.7275 63.3943 60.6695 63.371 60.6301L63.3444 60.5849L63.3354 60.5696C63.3354 60.5696 63.3352 60.5696 63.5427 60.4489C63.7503 60.3282 63.7503 60.3282 63.7504 60.3282L63.7591 60.3432L63.7852 60.3875C63.8082 60.4265 63.842 60.484 63.8855 60.5568C63.9725 60.7029 64.0977 60.9122 64.2511 61.1645C64.5578 61.6687 64.976 62.3426 65.4225 63.024C65.8698 63.7062 66.3427 64.3916 66.7593 64.9198C66.968 65.1845 67.1586 65.4047 67.322 65.5644C67.4037 65.6442 67.4751 65.7057 67.5356 65.7491C67.5984 65.7944 67.6376 65.8114 67.6555 65.8158C67.6707 65.8202 67.7172 65.8255 67.8101 65.8158C67.8981 65.8071 68.0096 65.7873 68.1439 65.7557C68.4122 65.6934 68.7525 65.589 69.1424 65.4547C69.9208 65.1866 70.8766 64.8049 71.8077 64.4135C72.7379 64.0226 73.6397 63.6238 74.3092 63.3224C74.6439 63.1719 74.9204 63.0459 75.113 62.9573C75.2095 62.913 75.2849 62.8784 75.3361 62.8546L75.4141 62.8186C75.4142 62.8186 75.4144 62.8182 75.4336 62.8595L75.4141 62.8186L75.4627 62.7958H75.5161V63.0354C75.5161 62.7958 75.5159 62.7958 75.5161 62.7958H75.5176H75.5195H75.5246C75.5284 62.7963 75.5333 62.7963 75.5391 62.7963C75.5508 62.7972 75.5663 62.7981 75.5853 62.7997C75.6234 62.8037 75.6757 62.8108 75.7396 62.8244C75.8675 62.8516 76.0417 62.9051 76.2406 63.0095C76.6413 63.2192 77.1285 63.6277 77.5408 64.4126C77.9561 65.2033 78.0827 66.1488 78.1099 66.8802C78.1236 67.2488 78.1122 67.5691 78.0974 67.7981C78.0899 67.9126 78.0817 68.0044 78.0751 68.068C78.0719 68.1 78.069 68.1245 78.067 68.1417L78.0646 68.1619L78.0639 68.1671L78.0636 68.1693C78.0636 68.1693 78.0636 68.1697 77.8254 68.1381C78.0286 68.2659 78.0285 68.2659 78.0284 68.2663L78.0278 68.2671L78.0269 68.2685L78.0246 68.272C78.0228 68.2747 78.0206 68.2781 78.0179 68.2821C78.0125 68.2895 78.0051 68.3001 77.9954 68.3128C77.9761 68.3387 77.9478 68.3742 77.9082 68.4198C77.829 68.5111 77.7043 68.6423 77.5156 68.8121C77.1388 69.1512 76.5052 69.6466 75.466 70.2898C73.1853 71.7295 71.2572 72.7622 69.7663 73.4366C69.0209 73.7736 68.3823 74.0224 67.8617 74.1869C67.3466 74.3501 66.9293 74.437 66.6338 74.437C65.192 74.437 62.8898 73.638 59.8876 68.3628C57.4341 64.0717 56.0019 60.9697 55.4253 59.065L55.4245 59.0624C55.0604 57.8098 55.0037 56.7743 55.1466 55.7857C55.2887 54.8032 55.6271 53.8766 56.036 52.8484L56.0365 52.847C56.8252 50.8981 57.9522 48.8744 58.9731 47.2381ZM77.8254 68.1381L78.0284 68.2663L78.0566 68.2216L78.0636 68.1693L77.8254 68.1381Z" fill="#4A4A4A"/>
<path fill-rule="evenodd" clip-rule="evenodd" d="M67.4968 62.7637C67.3215 59.5507 66.086 55.2995 63.0874 50.7964L63.4877 50.5312C66.5287 55.0986 67.7964 59.4317 67.9765 62.7387L67.9767 62.7414C67.9804 62.8256 67.9848 62.9147 67.9896 63.0086C68.03 63.8115 68.0877 64.9588 67.7917 66.1071L67.3264 65.9878C67.603 64.9145 67.5497 63.8408 67.5096 63.0335C67.505 62.9396 67.5005 62.8497 67.4968 62.7637Z" fill="#4A4A4A"/>
<path fill-rule="evenodd" clip-rule="evenodd" d="M57.5924 67.192C57.557 68.497 57.4947 69.7558 57.3128 70.6991C56.8282 73.2053 55.9138 75.5281 55.1229 77.2217C54.7271 78.069 54.3615 78.7604 54.0944 79.2409C53.9608 79.4809 53.8518 79.6687 53.776 79.7963C53.7395 79.8577 53.7108 79.9052 53.6906 79.9385C53.6906 79.9468 53.6905 79.956 53.6905 79.9666C53.6906 80.0254 53.6931 80.1153 53.7039 80.2338C53.7253 80.4702 53.7791 80.82 53.9098 81.2601C54.1708 82.1398 54.7403 83.385 55.9795 84.8123C56.7522 85.7029 57.9677 86.5375 59.0345 87.1438C59.5655 87.4461 60.0532 87.6879 60.4211 87.8494C60.6056 87.93 60.7566 87.9893 60.866 88.0253C60.9071 88.0389 60.9397 88.0486 60.9644 88.0547C60.9798 88.038 61.004 88.0078 61.037 87.9547C61.1148 87.8301 61.2185 87.6168 61.3616 87.2587C61.6465 86.5463 62.0704 85.305 62.7456 83.1612C63.4146 81.0363 63.83 78.6512 64.0778 76.7922C64.2016 75.8638 64.2835 75.0688 64.3343 74.5062C64.3598 74.2249 64.3774 74.0017 64.3886 73.8494C64.3943 73.773 64.3984 73.7142 64.401 73.6748L64.404 73.6304L64.4046 73.6195L64.4048 73.6164L64.6446 73.63C64.8844 73.6445 64.8844 73.6445 64.8844 73.6445L64.8834 73.6607L64.8803 73.7068C64.8777 73.7472 64.8735 73.8072 64.8678 73.8845C64.8563 74.0394 64.8385 74.2653 64.8128 74.5492C64.7615 75.117 64.679 75.919 64.5541 76.8554C64.3046 78.7258 63.8849 81.142 63.204 83.3047C62.5289 85.448 62.1002 86.7051 61.8079 87.4364C61.6622 87.8007 61.5459 88.0459 61.445 88.2078C61.3487 88.3622 61.239 88.4869 61.0866 88.5303C61.0395 88.5439 60.9964 88.5426 60.9721 88.5408C60.9439 88.539 60.9158 88.5342 60.8901 88.529C60.8385 88.5185 60.7787 88.5014 60.7147 88.4803C60.5857 88.4373 60.4198 88.3719 60.2278 88.2877C59.8431 88.1192 59.3404 87.8695 58.7966 87.5603C57.7138 86.9446 56.4423 86.0781 55.6162 85.126C54.3328 83.6478 53.7299 82.3415 53.4491 81.3965C53.3089 80.9239 53.2495 80.5431 53.2253 80.2768C53.2133 80.1439 53.2101 80.0394 53.21 79.9671C53.21 79.9306 53.2107 79.9021 53.2115 79.8824C53.2119 79.8723 53.2124 79.8644 53.2127 79.8586L53.2132 79.8512L53.2134 79.849L53.2135 79.8477C53.2135 79.8477 53.2135 79.8473 53.4529 79.8665L53.2135 79.8477L53.2182 79.7894L53.2492 79.7398L53.2508 79.7371L53.2561 79.7283C53.261 79.7204 53.2683 79.7091 53.2779 79.6932C53.2972 79.6616 53.3258 79.6143 53.3625 79.5524C53.4363 79.4282 53.543 79.2444 53.6742 79.0083C53.9367 78.5366 54.2972 77.8549 54.6874 77.0195C55.4687 75.3464 56.3664 73.0627 56.8411 70.6083C57.0145 69.7088 57.0766 68.4873 57.1121 67.1789C57.1226 66.7932 57.1308 66.4005 57.139 66.007C57.1583 65.0756 57.1777 64.1427 57.228 63.3047L57.7075 63.3331C57.6579 64.1616 57.6388 65.079 57.6196 66.0061C57.6114 66.4019 57.603 66.799 57.5924 67.192Z" fill="#4A4A4A"/>
<path fill-rule="evenodd" clip-rule="evenodd" d="M60.386 49.2897C60.7072 50.6364 61.474 52.1378 62.9541 53.86C65.208 56.4649 66.4517 59.079 67.1321 61.0433C67.4723 62.0253 67.6717 62.8453 67.7862 63.4206C67.8434 63.7084 67.8795 63.9352 67.9012 64.0905C67.9121 64.1682 67.9194 64.2279 67.9241 64.2687C67.9263 64.2888 67.928 64.3047 67.9291 64.3151L67.9303 64.3275L67.9306 64.331C67.9306 64.331 67.9307 64.3323 67.7712 64.3463C67.6117 64.3603 67.6117 64.3604 67.6117 64.3604L67.6114 64.3578L67.6104 64.3472C67.6095 64.338 67.6079 64.3236 67.6057 64.3047C67.6014 64.2664 67.5945 64.2094 67.584 64.1344C67.563 63.9848 67.528 63.7641 67.4721 63.4829C67.36 62.9199 67.1642 62.1144 66.8293 61.1473C66.1596 59.2137 64.9341 56.6369 62.7114 54.0685C61.2072 52.3182 60.4103 50.7719 60.0744 49.3637C59.738 47.954 59.8662 46.6946 60.1912 45.5236L60.4999 45.6088C60.1856 46.7412 60.065 47.9444 60.386 49.2897Z" fill="#4A4A4A"/>
<path fill-rule="evenodd" clip-rule="evenodd" d="M79.5279 61.0473L79.4243 61.2637C79.5279 61.0473 79.5278 61.0473 79.5279 61.0473L79.5295 61.0482L79.5323 61.0496L79.5414 61.0544C79.549 61.0579 79.5595 61.0632 79.5727 61.0702C79.5992 61.0842 79.6367 61.1048 79.6831 61.132C79.7757 61.186 79.9042 61.2672 80.052 61.3773C80.347 61.5967 80.7231 61.9341 81.0436 62.404C81.4336 62.9682 81.5721 63.6725 81.6178 64.2157C81.6409 64.4908 81.6409 64.7317 81.6351 64.9045C81.6322 64.9909 81.6279 65.0603 81.6242 65.109C81.6223 65.1335 81.6207 65.1524 81.6194 65.166L81.6178 65.1814L81.6174 65.1857L81.6171 65.1875C81.6171 65.1875 81.6171 65.188 81.3784 65.1616L81.6171 65.1875L81.6046 65.3003L78.0279 67.6301L77.7652 67.2286L81.1485 65.0252C81.1507 64.9879 81.1532 64.9418 81.1549 64.8882C81.1603 64.7299 81.1603 64.5079 81.139 64.2561C81.096 63.7449 80.968 63.1385 80.6477 62.6752L80.6468 62.6743C80.3635 62.2588 80.0292 61.9583 79.7647 61.7613C79.6329 61.6634 79.5192 61.5914 79.4398 61.5449C79.434 61.5418 79.4283 61.5384 79.4228 61.5353L76.0898 63.2829L75.8662 62.859L79.4192 60.9956L79.5279 61.0473Z" fill="#4A4A4A"/>
<path fill-rule="evenodd" clip-rule="evenodd" d="M85.0156 53.6715C85.2435 53.4392 85.5322 53.2285 85.8564 53.2285C85.9955 53.2285 86.124 53.2884 86.2021 53.4137C86.2676 53.5193 86.279 53.643 86.2763 53.7441C86.2709 53.9506 86.2001 54.2137 86.1107 54.4791C85.9812 54.863 85.7901 55.3136 85.6224 55.7085C85.5559 55.8656 85.4931 56.0135 85.4392 56.1451L85.4383 56.1476C85.303 56.4679 85.191 56.8532 85.1121 57.1634C85.073 57.3174 85.0426 57.4508 85.0218 57.5456C85.0139 57.5825 85.0075 57.6132 85.0025 57.6369C85.0092 57.6623 85.0167 57.6939 85.0244 57.7321C85.0453 57.8373 85.0676 57.9949 85.0792 58.2217C85.1024 58.675 85.0831 59.4086 84.9218 60.5529L84.9216 60.5541C84.8503 61.0417 84.5773 61.5032 84.236 61.9113C83.8923 62.3215 83.4632 62.6971 83.0489 63.013C82.6337 63.3298 82.2275 63.5917 81.9255 63.7742C81.7743 63.8655 81.6487 63.937 81.5606 63.9861C81.5165 64.0107 81.4818 64.0296 81.4578 64.0428C81.4459 64.0489 81.4366 64.0537 81.4302 64.0572L81.4228 64.0611L81.4202 64.0625C81.4201 64.0625 81.4199 64.0629 81.3086 63.8506C81.1974 63.6382 81.1973 63.6382 81.1973 63.6382L81.1989 63.6374L81.205 63.6342C81.2104 63.6312 81.2188 63.6268 81.2297 63.6206C81.2517 63.6088 81.2844 63.5913 81.3263 63.568C81.4102 63.5211 81.5308 63.4521 81.6766 63.3644C81.9686 63.1881 82.3595 62.9358 82.7571 62.6326C83.1555 62.3285 83.5546 61.9775 83.8671 61.6041C84.1818 61.2281 84.3929 60.8481 84.4461 60.4858C84.6044 59.3625 84.6207 58.6609 84.5994 58.2462C84.5888 58.0392 84.5689 57.9045 84.5532 57.8255C84.5453 57.7865 84.5386 57.7611 84.5346 57.7475C84.533 57.7422 84.5319 57.7387 84.5313 57.7369L84.5055 57.6746L84.519 57.604L84.7549 57.6496C84.519 57.604 84.519 57.6044 84.519 57.604L84.5196 57.6009L84.5213 57.5925C84.5228 57.5851 84.5249 57.5745 84.5277 57.5605C84.5333 57.5333 84.5416 57.4938 84.5524 57.4443C84.5739 57.3451 84.6057 57.2059 84.6465 57.0458C84.7274 56.7273 84.8461 56.3158 84.9949 55.963C85.0538 55.819 85.12 55.6629 85.1884 55.5019C85.3536 55.1126 85.5321 54.6921 85.6553 54.3264C85.7435 54.0647 85.7927 53.8605 85.7961 53.7314C85.7962 53.7252 85.7963 53.7195 85.7962 53.7143C85.6824 53.7379 85.5349 53.8272 85.3591 54.0066C85.1596 54.2101 84.9631 54.4892 84.7873 54.7791C84.6127 55.0671 84.4643 55.3566 84.3591 55.5751C84.3067 55.6839 84.2654 55.7743 84.2373 55.8375C84.2232 55.8691 84.2125 55.8937 84.2053 55.9103L84.1974 55.9288L84.1954 55.9336C84.1954 55.9336 84.1949 55.9344 83.9733 55.8423C83.7517 55.7497 83.7517 55.7497 83.7517 55.7497L83.7526 55.7475L83.755 55.7419L83.764 55.7208C83.7718 55.7028 83.7834 55.6764 83.7983 55.6427C83.828 55.576 83.8713 55.4812 83.9261 55.3676C84.0353 55.1407 84.191 54.8366 84.3762 54.5313C84.5601 54.2277 84.7788 53.9132 85.0156 53.6715Z" fill="#4A4A4A"/>
<path fill-rule="evenodd" clip-rule="evenodd" d="M85.1637 50.4292L85.2355 50.5314C85.3882 50.7489 85.4851 51.072 85.5432 51.3125C85.5735 51.4381 85.5955 51.5517 85.61 51.6338C85.6173 51.675 85.6227 51.7085 85.6263 51.732C85.6282 51.7438 85.6295 51.753 85.6304 51.7596L85.6316 51.7671L85.6319 51.7693C85.6319 51.7693 85.632 51.7703 85.3939 51.8027L85.6319 51.7693L85.6471 51.8814L85.5716 51.964L85.5707 51.9651L85.5659 51.9704C85.5614 51.9755 85.5543 51.9837 85.5448 51.9948C85.5261 52.0169 85.4982 52.0507 85.4636 52.0954C85.3942 52.1848 85.2983 52.3172 85.1947 52.4859C84.9869 52.8243 84.7516 53.3032 84.6345 53.8708L84.6341 53.8726C84.5306 54.3538 84.526 54.6286 84.5405 54.7731C84.5477 54.8446 84.5593 54.8814 84.5641 54.8944C84.5665 54.9008 84.5673 54.9013 84.565 54.8973C84.5638 54.8952 84.5619 54.8922 84.5592 54.8882C84.5578 54.8862 84.5563 54.8841 84.5544 54.8816L84.5515 54.8778L84.5499 54.8759L84.549 54.8749C84.5487 54.8746 84.5482 54.8738 84.3636 55.0271C84.1791 55.1807 84.1789 55.1802 84.1787 55.1802L84.1782 55.1793L84.1773 55.1785L84.1755 55.1763L84.1719 55.1714C84.1694 55.1684 84.1668 55.1649 84.1642 55.161C84.1589 55.1535 84.1534 55.1447 84.1479 55.135C84.1366 55.1153 84.1252 55.0916 84.1143 55.0627C84.0925 55.0048 84.073 54.9264 84.0624 54.8207C84.0414 54.6109 84.0545 54.2836 84.1641 53.7733C84.2957 53.1364 84.5577 52.6057 84.785 52.2357C84.899 52.05 85.0052 51.9033 85.0835 51.8023C85.1041 51.7756 85.1229 51.752 85.1395 51.7318C85.1386 51.727 85.1378 51.722 85.1368 51.7169C85.1236 51.6418 85.1035 51.5383 85.0761 51.4247C85.0324 51.2436 84.9751 51.0588 84.9079 50.9206C84.889 50.9233 84.8684 50.9265 84.8461 50.9303C84.7145 50.9531 84.5248 50.9994 84.3016 51.0933C83.8575 51.2802 83.2737 51.6588 82.7509 52.4327L82.7485 52.4362C82.2803 53.1032 82.085 53.842 82.0082 54.4208C81.9699 54.7093 81.9614 54.9552 81.9625 55.1276C81.963 55.2141 81.9659 55.2816 81.9686 55.3272C81.9699 55.3496 81.9712 55.3667 81.9722 55.3777L81.9732 55.39L81.9735 55.3922C81.9735 55.3922 81.9735 55.3922 81.7344 55.4172C81.4956 55.4417 81.4955 55.4417 81.4955 55.4417L81.4953 55.4396L81.4948 55.4343C81.4944 55.4303 81.494 55.4246 81.4934 55.4172C81.4921 55.4027 81.4905 55.3816 81.489 55.3553C81.4858 55.3022 81.4826 55.2259 81.482 55.1306C81.4809 54.9398 81.4902 54.672 81.5319 54.3579C81.6148 53.7325 81.8278 52.913 82.3536 52.1632C82.9318 51.3081 83.5911 50.8722 84.1148 50.6519C84.3757 50.542 84.6012 50.4864 84.7639 50.4582C84.8453 50.4442 84.9111 50.4369 84.9579 50.4332C84.9813 50.4314 85.0001 50.4303 85.0137 50.4298C85.0204 50.4295 85.026 50.4294 85.0302 50.4293H85.0355L85.0374 50.4292C85.0374 50.4292 85.0387 50.4292 85.0387 50.6688L85.0374 50.4292H85.1637Z" fill="#4A4A4A"/>
<path fill-rule="evenodd" clip-rule="evenodd" d="M81.915 50.4945C81.9151 50.4947 81.9151 50.4949 81.6982 50.5979L81.915 50.4945L81.9455 50.5586L81.9365 50.6285L81.9363 50.6297L81.9358 50.6339L81.9337 50.6515C81.9317 50.6672 81.929 50.6905 81.9256 50.7209C81.9188 50.7816 81.9096 50.87 81.8997 50.9796C81.8801 51.1991 81.8582 51.5029 81.8495 51.8399C81.8318 52.5259 81.8702 53.3065 82.0643 53.8067L81.6163 53.9797C81.3841 53.3816 81.3514 52.5145 81.3692 51.8275C81.3782 51.4779 81.4009 51.1637 81.4212 50.937C81.4313 50.8235 81.441 50.7317 81.4481 50.6679C81.4486 50.664 81.449 50.6602 81.4493 50.6564C81.4248 50.6287 81.408 50.6227 81.4032 50.622C81.4021 50.6218 81.3956 50.6207 81.3806 50.6261C81.3636 50.6321 81.3326 50.6478 81.2886 50.687C81.1977 50.7678 81.0719 50.9299 80.9183 51.2365L80.917 51.239C80.63 51.7957 80.597 52.5256 80.663 53.3516C80.6943 53.7421 80.7465 54.1434 80.7992 54.5482C80.8017 54.5677 80.8043 54.5872 80.8067 54.6066C80.8616 55.0288 80.9158 55.4544 80.9431 55.8616C80.991 56.5785 81.0103 56.9787 81.023 57.2406C81.0391 57.571 81.0444 57.682 81.083 57.9316C81.0937 58.0019 81.112 58.0878 81.1347 58.1944C81.1469 58.2519 81.1604 58.3156 81.1747 58.3857C81.2137 58.577 81.2545 58.8017 81.2758 59.0365C81.317 59.4941 81.2891 60.0434 80.963 60.4554L80.962 60.4567C80.7353 60.7393 80.456 60.9986 80.2376 61.1847C80.1277 61.2781 80.0313 61.3548 79.9623 61.4079C79.9278 61.4347 79.8999 61.4558 79.8805 61.4702C79.8709 61.4773 79.8632 61.483 79.8579 61.487L79.8518 61.4913L79.85 61.4926C79.8499 61.4926 79.8492 61.493 79.7086 61.2991C79.568 61.1048 79.568 61.1048 79.5679 61.1048L79.569 61.1039L79.5737 61.1004C79.578 61.0973 79.5846 61.0924 79.5932 61.0864C79.6105 61.0732 79.6359 61.0543 79.668 61.0293C79.7322 60.9797 79.8224 60.9082 79.9256 60.82C80.1334 60.6431 80.3868 60.4067 80.5864 60.158C80.7929 59.8964 80.8358 59.5072 80.7972 59.0794C80.7784 58.871 80.7416 58.6661 80.7039 58.481C80.6924 58.4244 80.6804 58.3677 80.6687 58.313C80.644 58.1967 80.621 58.0878 80.6081 58.0045C80.5662 57.7333 80.5594 57.5947 80.5414 57.23C80.528 56.9589 80.5084 56.5627 80.4637 55.8936C80.4376 55.5036 80.3854 55.092 80.3303 54.6682C80.3276 54.6475 80.3249 54.6269 80.3222 54.6061C80.27 54.2044 80.2164 53.7924 80.1842 53.3897C80.117 52.5507 80.1373 51.7043 80.4891 51.021C80.655 50.6904 80.8133 50.4677 80.9688 50.3294C81.129 50.1869 81.303 50.121 81.4781 50.1486C81.6419 50.1744 81.7532 50.2744 81.8142 50.3446C81.8464 50.3817 81.8705 50.4171 81.8865 50.4433C81.8947 50.4566 81.9012 50.468 81.9059 50.4767C81.9082 50.4811 81.9102 50.485 81.9116 50.488L81.9137 50.492L81.9145 50.4937L81.915 50.4945Z" fill="#4A4A4A"/>
<path fill-rule="evenodd" clip-rule="evenodd" d="M84.4905 51.8121C84.0669 52.1824 83.5902 52.695 83.3376 53.283C83.0442 53.9541 82.9314 54.5925 82.8925 55.0627C82.873 55.2974 82.872 55.4896 82.8757 55.6225C82.8776 55.6888 82.8806 55.7401 82.8832 55.7744C82.8844 55.7919 82.8856 55.8046 82.8864 55.8129L82.8873 55.8222L82.8875 55.824C82.8875 55.824 82.8875 55.824 82.7285 55.8423C82.5693 55.8603 82.5693 55.8603 82.5693 55.8603L82.5691 55.8586L82.5688 55.8551L82.5676 55.8432C82.5666 55.8327 82.5652 55.8173 82.5638 55.798C82.5609 55.759 82.5576 55.7028 82.5555 55.6313C82.5515 55.4883 82.5527 55.2842 82.5733 55.0364C82.6142 54.5408 82.7328 53.8675 83.0433 53.1568C83.3236 52.5047 83.8416 51.9545 84.2795 51.5719C84.4998 51.3792 84.703 51.2264 84.8514 51.1215C84.9256 51.0691 84.9863 51.0285 85.0287 51.0009C85.0498 50.9871 85.0666 50.9765 85.078 50.9693L85.0914 50.9609L85.095 50.9586L85.0961 50.958C85.0961 50.9579 85.0966 50.9577 85.1799 51.0941C85.2633 51.2304 85.2633 51.2304 85.2633 51.2304L85.2601 51.2323L85.2489 51.2394C85.2388 51.2457 85.2236 51.2554 85.2039 51.2682C85.1646 51.2939 85.1073 51.3322 85.0366 51.3822C84.8952 51.4821 84.7009 51.6282 84.4905 51.8121Z" fill="#4A4A4A"/>
<path fill-rule="evenodd" clip-rule="evenodd" d="M69.7984 83.9871L70.363 88.884C70.4369 88.8735 70.5269 88.8595 70.6299 88.8406C70.9418 88.7836 71.3718 88.6848 71.8433 88.5172C72.7911 88.1807 73.8779 87.5774 74.53 86.5099L74.9402 86.7591C74.2067 87.96 73.0019 88.6142 72.0045 88.9687C71.5033 89.1468 71.0474 89.2517 70.7165 89.3118C70.5508 89.3421 70.4159 89.3614 70.3217 89.3732C70.2746 89.379 70.2376 89.3829 70.212 89.3855C70.1993 89.3869 70.1893 89.3878 70.1824 89.3882L70.1741 89.389H70.1717C70.1716 89.389 70.1705 89.3894 70.1519 89.1503L70.1717 89.389L69.9397 89.407L69.5861 86.3401L68.6554 89.4062L68.461 89.389L68.482 89.1503C68.461 89.389 68.4612 89.389 68.461 89.389H68.4592L68.4564 89.3886L68.4472 89.3877C68.4395 89.3868 68.4286 89.3855 68.4149 89.3838C68.3874 89.3807 68.3481 89.375 68.298 89.3667C68.1976 89.3495 68.0536 89.3215 67.8733 89.2741C67.5127 89.1801 67.0069 89.0117 66.415 88.7133C65.2298 88.1153 63.7055 86.9987 62.3135 84.9256L62.7127 84.6587C64.0566 86.6604 65.5166 87.723 66.6318 88.2856C67.1903 88.5672 67.6637 88.7243 67.9949 88.8107C68.1233 88.8441 68.2302 88.8669 68.3123 88.8822L69.7984 83.9871Z" fill="#4A4A4A"/>
<path fill-rule="evenodd" clip-rule="evenodd" d="M67.7461 50.0517C67.7461 50.0517 67.7462 50.0517 67.8773 49.9601C68.0086 49.8686 68.0087 49.8687 68.0087 49.8688L68.0097 49.87L68.0121 49.8736L68.0213 49.887C68.0293 49.8987 68.0411 49.916 68.0563 49.9388C68.0866 49.9845 68.1309 50.0521 68.187 50.1411C68.2992 50.3191 68.459 50.5829 68.6504 50.9275C69.033 51.6167 69.5425 52.6297 70.0517 53.9282C71.07 56.525 72.0878 60.2655 72.0878 64.8426H71.7675C71.7675 60.3128 70.7603 56.6124 69.7534 54.0445C69.25 52.7607 68.7469 51.7606 68.3702 51.0823C68.1818 50.7431 68.0251 50.4844 67.9158 50.3111C67.8612 50.2244 67.8185 50.1591 67.7894 50.1156C67.775 50.0939 67.764 50.0777 67.7567 50.067L67.7485 50.0551L67.7461 50.0517Z" fill="#4A4A4A"/>
<path fill-rule="evenodd" clip-rule="evenodd" d="M71.6988 72.0524C71.6988 72.0524 71.6988 72.0519 71.8579 72.0712C72.0169 72.09 72.0169 72.0905 72.0169 72.0905L72.0058 72.1809C71.9985 72.2405 71.9875 72.3284 71.9733 72.4419C71.9447 72.6688 71.9026 72.9988 71.8485 73.4098C71.7401 74.2321 71.5834 75.3799 71.3901 76.6835C71.0036 79.2884 70.4699 82.5185 69.882 85.0059L69.5703 84.9326C70.1549 82.4593 70.687 79.2401 71.0732 76.6366C71.2663 75.3356 71.4227 74.1891 71.5309 73.3682C71.585 72.9575 71.627 72.6284 71.6555 72.402C71.6697 72.2888 71.6805 72.201 71.6879 72.1419L71.6988 72.0524Z" fill="#4A4A4A"/>
<path fill-rule="evenodd" clip-rule="evenodd" d="M67.4731 43.7542C67.4731 43.7542 67.4731 43.7542 67.5929 43.5465C67.7128 43.3389 67.713 43.339 67.713 43.339L67.715 43.3402L67.7207 43.3435L67.7427 43.3562C67.762 43.3674 67.7903 43.3841 67.8274 43.4061C67.9015 43.45 68.0103 43.5151 68.1496 43.6005C68.4284 43.7713 68.8296 44.0232 69.3213 44.3485C70.3044 44.9989 71.6499 45.9437 73.1007 47.1212C75.9961 49.4713 79.3357 52.769 81.0289 56.5238L80.5908 56.7199C78.9442 53.0689 75.6753 49.8288 72.7974 47.4928C71.3614 46.3273 70.0289 45.3917 69.0556 44.7478C68.5692 44.4258 68.1726 44.1769 67.8982 44.0088C67.761 43.9247 67.6543 43.8608 67.5821 43.818C67.5459 43.7966 67.5185 43.7806 67.5002 43.7699L67.4797 43.758L67.4746 43.755L67.4731 43.7542Z" fill="#4A4A4A"/>
<path fill-rule="evenodd" clip-rule="evenodd" d="M76.3113 57.6378C76.1125 54.6743 75.3094 50.8892 72.8994 47.5735L73.1588 47.386C75.6164 50.7674 76.4298 54.6183 76.6308 57.6167C76.7314 59.1164 76.6789 60.4059 76.6011 61.3207C76.5623 61.7783 76.5171 62.1425 76.4815 62.3926C76.4637 62.5181 76.4484 62.6146 76.4374 62.6804C76.432 62.7129 76.4276 62.7383 76.4244 62.7551L76.421 62.7748L76.42 62.7796L76.4197 62.7814C76.4197 62.7814 76.4196 62.7818 76.2623 62.7519L76.105 62.7221L76.1052 62.7208L76.106 62.7168L76.1092 62.6988C76.1121 62.6831 76.1162 62.6594 76.1215 62.6278C76.1321 62.5646 76.1471 62.4703 76.1645 62.3478C76.1993 62.103 76.2437 61.745 76.282 61.2939C76.3587 60.3919 76.4105 59.1186 76.3113 57.6378Z" fill="#4A4A4A"/>
<path fill-rule="evenodd" clip-rule="evenodd" d="M68.5142 42.7802C68.5143 42.7802 68.5144 42.7802 68.5532 42.6253C68.5921 42.4703 68.5922 42.4703 68.5923 42.4703L68.5942 42.4708L68.5989 42.4721C68.6029 42.4731 68.6086 42.4746 68.6159 42.4767C68.6305 42.4806 68.6516 42.4867 68.6791 42.495C68.7339 42.5115 68.8139 42.5371 68.9169 42.5741C69.1229 42.6479 69.4208 42.7671 69.7938 42.9491C70.5399 43.3133 71.5857 43.9292 72.7951 44.9389C75.2147 46.9588 78.2848 50.5504 80.923 56.8436L80.6274 56.9668C78.0073 50.7164 74.9664 47.168 72.5895 45.1838C71.4008 44.1914 70.377 43.5894 69.653 43.236C69.291 43.0593 69.0039 42.9448 68.8085 42.8746C68.7108 42.8396 68.6361 42.8157 68.5863 42.8007C68.5614 42.7932 68.5429 42.7879 68.5307 42.7846C68.5247 42.7829 68.5204 42.7817 68.5175 42.7811L68.5142 42.7802Z" fill="#4A4A4A"/>
<path fill-rule="evenodd" clip-rule="evenodd" d="M79.3345 40.7562C78.7842 40.8448 78.2585 40.8919 77.8675 40.8432C77.2569 40.767 76.4228 40.8042 75.5016 40.9083C74.5844 41.0119 73.5965 41.1801 72.6852 41.3587C71.7744 41.5374 70.9427 41.726 70.3387 41.8699C70.0368 41.9419 69.7919 42.0028 69.6227 42.0455C69.538 42.0668 69.4724 42.0836 69.4279 42.0952L69.3775 42.1083L69.3608 42.1126C69.3608 42.1126 69.3606 42.1127 69.2991 41.8811C69.2377 41.6495 69.2378 41.6495 69.2378 41.6495L69.2557 41.6448L69.3073 41.6313C69.3526 41.6197 69.4192 41.6026 69.5047 41.5809C69.6757 41.5377 69.9228 41.4764 70.227 41.4039C70.8355 41.2589 71.6737 41.0688 72.5925 40.8886C73.5111 40.7085 74.5127 40.5378 75.4475 40.4322C76.3784 40.3269 77.2585 40.2844 77.927 40.3677C78.2464 40.4075 78.7156 40.3706 79.2579 40.2831C79.7944 40.1967 80.3821 40.0645 80.9291 39.9259C81.4756 39.7874 81.9785 39.6433 82.3449 39.5339C82.528 39.4791 82.6768 39.4331 82.7797 39.4008C82.8312 39.3845 82.8711 39.3719 82.8981 39.3632L82.9287 39.3533L82.9387 39.3502L83.0134 39.5779C83.088 39.8056 83.0879 39.8056 83.0879 39.8056L83.0768 39.8092L83.045 39.8195C83.0172 39.8284 82.9763 39.8414 82.924 39.8578C82.8193 39.8907 82.6683 39.9374 82.4828 39.9929C82.112 40.1037 81.6023 40.2497 81.0474 40.3903C80.4931 40.5308 79.8905 40.6666 79.3345 40.7562Z" fill="#4A4A4A"/>
<path fill-rule="evenodd" clip-rule="evenodd" d="M82.8331 46.3306L82.9812 46.7863L78.1675 48.3416L80.7898 56.0846L80.3346 56.2376L77.5566 48.0352L82.8331 46.3306Z" fill="#4A4A4A"/>
<path fill-rule="evenodd" clip-rule="evenodd" d="M59.1819 134.38C59.2498 134.724 59.3232 135.189 59.3417 135.666V135.668C59.3447 135.761 59.3501 135.855 59.3555 135.95C59.3801 136.376 59.4058 136.824 59.2221 137.276C58.992 137.842 58.456 138.39 57.3392 139.036C56.3983 139.581 55.8174 140.25 55.2046 140.955C55.1272 141.044 55.0491 141.134 54.9698 141.224C54.2633 142.028 53.4711 142.838 52.0549 143.443C50.6759 144.033 49.4165 144.321 48.5268 144.186C48.0761 144.119 47.6919 143.937 47.4526 143.602C47.2137 143.266 47.1515 142.821 47.2469 142.296C47.451 141.076 47.9622 140.209 48.5325 139.471C48.7577 139.18 48.9945 138.906 49.2226 138.643C49.2806 138.577 49.3381 138.51 49.3946 138.445C49.6762 138.116 49.9383 137.799 50.16 137.459C50.6296 136.738 51.3207 135.862 51.89 135.169C52.1756 134.822 52.432 134.52 52.6171 134.304C52.7097 134.196 52.7845 134.11 52.8362 134.05C52.862 134.021 52.8821 133.998 52.8958 133.983L52.9113 133.964L52.9167 133.958C52.9167 133.958 52.9168 133.958 53.0971 134.117L53.2776 134.274L53.2726 134.28L53.2575 134.298C53.2441 134.313 53.2244 134.336 53.1988 134.364C53.1479 134.423 53.0739 134.509 52.9822 134.616C52.7986 134.83 52.5444 135.129 52.2614 135.473C51.6938 136.163 51.017 137.023 50.5628 137.72C50.3227 138.089 50.043 138.426 49.7594 138.757C49.7003 138.825 49.6412 138.893 49.582 138.962C49.3549 139.224 49.1292 139.484 48.9129 139.764C48.3731 140.461 47.9075 141.258 47.7206 142.377L47.72 142.38C47.6382 142.829 47.7049 143.128 47.8443 143.324C47.9836 143.519 48.2279 143.656 48.5987 143.713C49.3523 143.827 50.5089 143.583 51.8656 143.003C53.1852 142.439 53.9207 141.691 54.6086 140.908C54.6862 140.82 54.7632 140.731 54.8406 140.642C55.4511 139.939 56.0837 139.209 57.0979 138.623C58.184 137.993 58.6072 137.514 58.7769 137.096C58.9164 136.753 58.8993 136.434 58.877 136.019C58.8713 135.914 58.8654 135.803 58.8616 135.685C58.8444 135.241 58.7757 134.802 58.7105 134.473C58.678 134.309 58.6466 134.173 58.6234 134.078C58.6119 134.031 58.6024 133.995 58.5958 133.969C58.5925 133.957 58.5901 133.948 58.5884 133.942L58.5865 133.935L58.5861 133.933C58.5861 133.933 58.5861 133.933 58.8174 133.869C59.0487 133.804 59.0487 133.804 59.0487 133.804L59.049 133.805L59.0496 133.807L59.052 133.816C59.054 133.824 59.0569 133.833 59.0605 133.847C59.0676 133.875 59.0779 133.914 59.0901 133.964C59.1148 134.065 59.1477 134.208 59.1819 134.38Z" fill="#4A4A4A"/>
<path fill-rule="evenodd" clip-rule="evenodd" d="M59.4014 136.302C59.5322 136.404 59.6504 136.574 59.6951 136.841L59.6956 136.844L59.6959 136.847C59.7369 137.133 59.7051 137.5 59.6359 137.84C59.567 138.179 59.4551 138.523 59.3142 138.766C59.1858 139.019 58.9638 139.253 58.716 139.465C58.4629 139.681 58.166 139.886 57.8732 140.072C57.6225 140.231 57.37 140.381 57.147 140.512C57.1094 140.535 57.0728 140.556 57.0371 140.578C56.7826 140.728 56.5893 140.846 56.48 140.931C56.3861 141.005 56.2841 141.131 56.1432 141.327C56.1065 141.378 56.0675 141.433 56.0259 141.492C55.9154 141.649 55.7873 141.83 55.638 142.023C55.2214 142.562 54.6253 143.211 53.6572 143.848L53.6566 143.849C52.4925 144.611 51.2343 145.075 50.1411 145.241C49.5944 145.323 49.0823 145.332 48.64 145.26C48.1999 145.189 47.8123 145.036 47.5351 144.781C46.9997 144.288 46.9287 143.696 46.9891 143.245C47.019 143.021 47.081 142.829 47.1349 142.693C47.1621 142.625 47.1875 142.57 47.2067 142.532C47.2163 142.512 47.2244 142.496 47.2303 142.486C47.2332 142.48 47.2356 142.476 47.2375 142.472L47.2398 142.468L47.2405 142.467L47.2409 142.466C47.2409 142.466 47.2411 142.466 47.4493 142.585C47.6575 142.705 47.6575 142.705 47.6575 142.705L47.6573 142.706L47.6536 142.712C47.6501 142.718 47.6445 142.729 47.6375 142.744C47.6233 142.772 47.6033 142.815 47.5816 142.869C47.5378 142.98 47.4887 143.133 47.4654 143.308C47.4191 143.653 47.4725 144.071 47.861 144.429C48.0457 144.599 48.3331 144.725 48.7167 144.787C49.0983 144.849 49.5589 144.844 50.0692 144.766C51.0897 144.613 52.2829 144.175 53.3926 143.448C54.3074 142.846 54.866 142.237 55.2576 141.731C55.4 141.546 55.5184 141.379 55.6272 141.224C55.6703 141.163 55.7119 141.104 55.7528 141.047C55.8906 140.855 56.0284 140.675 56.1832 140.555C56.3225 140.446 56.5468 140.311 56.7919 140.166C56.8284 140.143 56.8656 140.122 56.9035 140.099C57.1266 139.967 57.3713 139.824 57.6146 139.668C57.8992 139.487 58.1751 139.295 58.4038 139.101C58.6356 138.903 58.8026 138.716 58.888 138.545L58.8914 138.539L58.8954 138.532C59.0014 138.351 59.1011 138.059 59.165 137.745C59.2286 137.432 59.2503 137.127 59.2207 136.917C59.1941 136.761 59.1352 136.703 59.1063 136.68C59.0894 136.667 59.0748 136.66 59.067 136.658C59.0637 136.656 59.0618 136.656 59.0617 136.656C59.062 136.656 59.0632 136.656 59.0649 136.656L59.0684 136.657H59.0705L59.0717 136.658C59.0719 136.658 59.0731 136.658 59.1029 136.42C59.1326 136.182 59.1328 136.182 59.133 136.182L59.1333 136.183H59.1356H59.139C59.1414 136.183 59.1442 136.183 59.1472 136.184C59.1532 136.185 59.1604 136.186 59.1686 136.188C59.185 136.192 59.2059 136.198 59.2297 136.207C59.2775 136.224 59.3384 136.253 59.4014 136.302Z" fill="#4A4A4A"/>
<path fill-rule="evenodd" clip-rule="evenodd" d="M65.9483 134.106C65.9483 134.106 65.9483 134.106 66.1704 134.197C66.3925 134.289 66.3925 134.289 66.3925 134.289L66.3923 134.29L66.3911 134.293L66.3855 134.307C66.3806 134.318 66.3733 134.337 66.3638 134.362C66.345 134.412 66.3182 134.485 66.2869 134.577C66.2241 134.761 66.1436 135.022 66.0729 135.324C65.9299 135.934 65.834 136.686 65.9815 137.323C66.1414 138.014 66.2861 138.262 66.4802 138.391C66.5821 138.458 66.7164 138.506 66.9191 138.547C67.0779 138.579 67.2619 138.604 67.4888 138.634C67.555 138.643 67.625 138.653 67.699 138.664C68.1652 138.727 68.5781 138.688 69.0435 138.643C69.1825 138.629 69.326 138.616 69.4771 138.604C70.1234 138.554 70.8531 138.553 71.8069 138.844C71.8175 138.846 71.8341 138.849 71.8551 138.851C71.8973 138.858 71.9598 138.868 72.0405 138.879C72.2018 138.902 72.4355 138.933 72.7233 138.963C73.2994 139.025 74.0898 139.086 74.9494 139.086V139.565C74.0681 139.565 73.2598 139.503 72.6723 139.44C72.3782 139.408 72.139 139.377 71.9728 139.353C71.8897 139.341 71.8248 139.332 71.7805 139.325C71.7583 139.321 71.7413 139.319 71.7297 139.317L71.7164 139.314H71.7119L71.7115 139.313C71.7114 139.313 71.7114 139.313 71.7518 139.077L71.7115 139.313L71.696 139.311L71.6812 139.306C70.7952 139.034 70.1258 139.034 69.5143 139.082C69.3836 139.092 69.2529 139.105 69.1214 139.117C68.6457 139.163 68.1607 139.21 67.6329 139.137C67.565 139.128 67.499 139.119 67.435 139.111C67.2046 139.079 66.9997 139.052 66.8241 139.017C66.597 138.971 66.3916 138.908 66.2136 138.79C65.8481 138.546 65.6732 138.121 65.5133 137.43C65.341 136.686 65.4567 135.848 65.605 135.214C65.6802 134.894 65.7653 134.619 65.8318 134.423C65.8652 134.325 65.8939 134.247 65.9145 134.192C65.9248 134.166 65.9331 134.144 65.9388 134.13L65.9457 134.113L65.9475 134.108L65.948 134.107L65.9483 134.106Z" fill="#4A4A4A"/>
<path fill-rule="evenodd" clip-rule="evenodd" d="M66.1128 137.974C66.1128 137.974 66.1134 137.974 66.0097 138.19C65.906 138.406 65.9066 138.406 65.9066 138.406L65.9072 138.407H65.9084L65.9105 138.408L65.9148 138.41C65.9177 138.411 65.9204 138.413 65.9229 138.414C65.9281 138.415 65.9332 138.417 65.9383 138.418C65.9482 138.421 65.9596 138.422 65.9719 138.421C65.9985 138.419 66.0118 138.408 66.0118 138.408C66.0118 138.408 66.0114 138.408 66.0101 138.41C65.9976 138.425 65.963 138.479 65.9329 138.616C65.9033 138.752 65.8808 138.955 65.8808 139.254C65.8808 139.257 65.8808 139.267 65.8967 139.289C65.9145 139.312 65.9495 139.346 66.0126 139.384C66.14 139.462 66.3444 139.537 66.6272 139.596C67.1891 139.714 68 139.759 68.9629 139.689C69.9657 139.616 70.8843 139.752 71.8049 139.888L71.8179 139.89C72.7476 140.028 73.6851 140.166 74.76 140.114L74.7831 140.592C73.6574 140.647 72.6779 140.502 71.7527 140.365L71.7474 140.364C70.816 140.227 69.9444 140.098 68.9978 140.167C68.0066 140.239 67.1477 140.195 66.5281 140.065C66.2204 140 65.9562 139.911 65.7626 139.794C65.5752 139.68 65.4004 139.504 65.4004 139.254C65.4004 138.935 65.4241 138.694 65.4636 138.514C65.5027 138.336 65.5604 138.201 65.6402 138.104C65.7256 138.002 65.8302 137.952 65.932 137.944C65.9791 137.94 66.0193 137.945 66.0493 137.953C66.0645 137.956 66.0775 137.96 66.0881 137.963C66.0934 137.966 66.0982 137.967 66.1024 137.969L66.1083 137.972L66.1109 137.973L66.1128 137.974Z" fill="#4A4A4A"/>
<path fill-rule="evenodd" clip-rule="evenodd" d="M102.882 28.1067C102.879 28.1085 102.877 28.1106 102.874 28.1128C102.504 28.3841 101.827 28.6859 101.048 28.9445C100.264 29.2053 99.3513 29.4309 98.4975 29.5395L98.4955 29.5399L98.4926 29.5401C97.726 29.6214 96.9885 30.0659 96.4277 30.5123C96.151 30.7329 95.9237 30.9486 95.7661 31.109C95.6876 31.189 95.6266 31.255 95.5854 31.3005C95.5648 31.3233 95.5494 31.3409 95.5393 31.3526L95.5279 31.3656L95.5257 31.3685C95.5257 31.3685 95.5252 31.369 95.341 31.2153C95.1567 31.0616 95.1567 31.0615 95.1567 31.0615L95.1585 31.0596L95.1619 31.0551C95.1654 31.0513 95.1698 31.0459 95.176 31.039C95.1878 31.0252 95.2054 31.0053 95.2282 30.9802C95.2734 30.9301 95.3392 30.8591 95.423 30.7735C95.5907 30.6029 95.8324 30.3733 96.1281 30.1378C96.713 29.6722 97.5374 29.1604 98.4398 29.0639C99.2554 28.9598 100.137 28.7426 100.897 28.4899C101.664 28.2347 102.282 27.9518 102.588 27.7271C102.7 27.6447 102.842 27.5839 102.995 27.6145C103.154 27.6463 103.252 27.7608 103.303 27.8697C103.404 28.0762 103.401 28.369 103.339 28.6425C103.209 29.2006 102.772 29.8936 101.911 29.9999C101.205 30.1033 100.853 30.2629 100.685 30.377C100.602 30.4333 100.565 30.4777 100.551 30.4982C100.543 30.5086 100.542 30.5137 100.542 30.5123C100.542 30.5123 100.543 30.5096 100.544 30.5058C100.545 30.5048 100.545 30.5037 100.545 30.5024C100.546 30.5014 100.546 30.5002 100.546 30.4989L100.547 30.4946L100.548 30.4922V30.491L100.549 30.4903C100.549 30.4903 100.549 30.4896 100.315 30.4357C100.081 30.3818 100.081 30.3813 100.081 30.3813V30.3792L100.082 30.3763L100.084 30.3699C100.086 30.3655 100.087 30.3606 100.089 30.3552C100.092 30.3447 100.097 30.3325 100.102 30.3188C100.115 30.2914 100.133 30.2589 100.158 30.2228C100.209 30.1503 100.289 30.0661 100.415 29.9809C100.665 29.8115 101.094 29.6348 101.843 29.5255L101.846 29.525L101.849 29.5247C102.442 29.4526 102.767 28.9772 102.87 28.5351C102.916 28.3365 102.906 28.1849 102.882 28.1067Z" fill="#4A4A4A"/>
<path fill-rule="evenodd" clip-rule="evenodd" d="M102.805 29.6454C102.805 29.6454 102.805 29.6454 102.839 29.4082C102.873 29.1709 102.873 29.171 102.873 29.171L102.874 29.1712L102.877 29.1716L102.887 29.1732C102.896 29.1745 102.908 29.1765 102.924 29.1792C102.956 29.1847 103.002 29.193 103.062 29.2049C103.179 29.2285 103.349 29.2662 103.559 29.3231C103.978 29.4368 104.56 29.6275 105.215 29.9356L105.217 29.9368L105.22 29.938C105.876 30.2648 106.521 30.7351 106.822 31.104C106.898 31.1964 106.966 31.2998 106.999 31.4066C107.034 31.5179 107.04 31.6774 106.916 31.8016C106.812 31.9059 106.664 31.9306 106.542 31.9338C106.41 31.9372 106.248 31.9166 106.058 31.8751C105.323 31.7318 104.43 31.509 103.723 31.3229C103.369 31.2296 103.061 31.1451 102.84 31.084C102.73 31.0534 102.642 31.0287 102.582 31.0115L102.512 30.9919L102.488 30.9849C102.488 30.9849 102.488 30.9849 102.554 30.7547L102.621 30.5245L102.644 30.5311L102.713 30.5506C102.772 30.5675 102.86 30.5921 102.969 30.6225C103.188 30.6831 103.494 30.7669 103.846 30.8596C104.551 31.0454 105.433 31.2652 106.153 31.4054L106.156 31.4059L106.158 31.4065C106.303 31.438 106.41 31.4519 106.487 31.4546C106.476 31.4399 106.463 31.4238 106.45 31.4063C106.209 31.1112 105.63 30.6787 105.007 30.3678C104.384 30.0743 103.831 29.8931 103.434 29.7855C103.234 29.7317 103.075 29.6963 102.967 29.6746C102.912 29.6637 102.871 29.6563 102.844 29.6516C102.83 29.6493 102.819 29.6476 102.813 29.6466L102.806 29.6455L102.805 29.6454Z" fill="#4A4A4A"/>
<path fill-rule="evenodd" clip-rule="evenodd" d="M102.826 29.6474L102.839 29.4082C102.853 29.1691 102.853 29.1691 102.853 29.1691L102.856 29.1693L102.866 29.1698C102.876 29.1703 102.889 29.1712 102.905 29.1723C102.94 29.1745 102.99 29.178 103.052 29.1828C103.178 29.1925 103.358 29.2079 103.575 29.2309C104.01 29.2767 104.593 29.353 105.192 29.4747C105.789 29.5958 106.41 29.7642 106.912 29.9984C107.402 30.2261 107.846 30.5472 107.973 31.0102L107.511 31.1372C107.442 30.8914 107.176 30.65 106.71 30.4325C106.257 30.2216 105.677 30.0623 105.096 29.9441C104.517 29.8266 103.949 29.7523 103.525 29.7074C103.313 29.685 103.137 29.6699 103.015 29.6605C102.954 29.6558 102.906 29.6525 102.874 29.6504C102.858 29.6494 102.846 29.6487 102.838 29.6482L102.829 29.6476L102.826 29.6474Z" fill="#4A4A4A"/>
<path fill-rule="evenodd" clip-rule="evenodd" d="M54.5943 137.462L54.1718 137.954V137.306L54.1716 137.3C54.1714 137.295 54.1711 137.286 54.1702 137.273C54.1686 137.247 54.1652 137.209 54.1582 137.161C54.144 137.065 54.1156 136.932 54.0591 136.785C53.9468 136.495 53.7265 136.164 53.2833 135.965C52.8148 135.756 52.4576 135.761 52.2266 135.809C52.1094 135.832 52.0212 135.868 51.9645 135.896C51.9361 135.911 51.9158 135.922 51.9037 135.93C51.8977 135.934 51.8938 135.937 51.892 135.938L51.8927 135.937C51.8928 135.937 51.8932 135.937 51.7473 135.746C51.6014 135.556 51.6015 135.556 51.6016 135.556L51.6019 135.556L51.6038 135.555L51.6071 135.552C51.6097 135.55 51.6128 135.548 51.6166 135.546C51.6242 135.54 51.6342 135.533 51.6468 135.525C51.6718 135.51 51.7066 135.489 51.751 135.467C51.8397 135.423 51.9669 135.373 52.1295 135.339C52.4581 135.272 52.9181 135.277 53.4799 135.528C54.0671 135.79 54.362 136.237 54.5072 136.613C54.5287 136.668 54.547 136.722 54.5626 136.774C54.6903 136.632 54.8497 136.458 55.0318 136.265C55.5095 135.757 56.1469 135.112 56.7781 134.573L57.0909 134.936C56.4787 135.46 55.8548 136.09 55.382 136.592C55.1462 136.844 54.9489 137.061 54.8107 137.215C54.7415 137.293 54.6873 137.355 54.6504 137.397C54.6319 137.419 54.6178 137.434 54.6083 137.446L54.5978 137.458L54.5943 137.462Z" fill="#4A4A4A"/>
<path fill-rule="evenodd" clip-rule="evenodd" d="M50.8358 137.248C50.8359 137.248 50.836 137.248 50.7535 137.023C50.6712 136.797 50.6713 136.797 50.6714 136.797H50.6725L50.6746 136.796L50.6813 136.794C50.6868 136.792 50.6945 136.789 50.7041 136.786C50.7233 136.78 50.7505 136.771 50.7846 136.761C50.8529 136.742 50.9495 136.717 51.0662 136.697C51.2978 136.655 51.6178 136.626 51.9555 136.679C52.2956 136.734 52.6595 136.876 52.963 137.183C53.2665 137.489 53.4904 137.941 53.5849 138.582L53.1095 138.652C53.0263 138.088 52.8372 137.738 52.6211 137.519C52.405 137.301 52.1428 137.195 51.8787 137.153C51.6125 137.11 51.3507 137.132 51.1515 137.168C51.0528 137.186 50.9718 137.206 50.9162 137.222C50.8885 137.23 50.8673 137.237 50.8535 137.242C50.8467 137.244 50.8417 137.246 50.8387 137.247L50.8358 137.248Z" fill="#4A4A4A"/>
<path fill-rule="evenodd" clip-rule="evenodd" d="M49.7628 138.702C49.7628 138.702 49.763 138.702 49.687 138.475C49.6111 138.248 49.6113 138.248 49.6113 138.248L49.6123 138.247H49.6144L49.621 138.244C49.6266 138.243 49.6343 138.24 49.6442 138.237C49.6638 138.231 49.6917 138.224 49.7269 138.215C49.7974 138.195 49.8971 138.172 50.0177 138.15C50.2573 138.108 50.5871 138.074 50.9351 138.113C51.2833 138.151 51.662 138.266 51.9832 138.53C52.3079 138.796 52.5527 139.2 52.6591 139.779L52.1865 139.865C52.0975 139.381 51.9026 139.084 51.6777 138.899C51.4493 138.712 51.1685 138.621 50.8817 138.589C50.5945 138.557 50.3136 138.585 50.1014 138.623C49.9961 138.641 49.9096 138.662 49.8502 138.677C49.8204 138.685 49.7977 138.692 49.7828 138.696C49.7754 138.698 49.7699 138.7 49.7666 138.702H49.7628Z" fill="#4A4A4A"/>
<path fill-rule="evenodd" clip-rule="evenodd" d="M76.5996 70.6535V69.0946H76.9199V70.6535H76.5996Z" fill="#4A4A4A"/>
<path fill-rule="evenodd" clip-rule="evenodd" d="M57.8869 87.7099C57.7318 88.7839 57.4389 90.9352 56.8882 95.2399C56.426 98.8531 55.9384 101.535 55.4715 104.102C55.3812 104.599 55.2917 105.092 55.2032 105.586C54.6576 108.632 54.1527 111.752 53.7627 116.349C53.3721 120.953 53.0969 125.132 52.9194 128.16C52.8305 129.674 52.7662 130.9 52.724 131.748C52.7029 132.172 52.6875 132.501 52.6772 132.723C52.672 132.836 52.6682 132.921 52.6657 132.978L52.6639 133.018C52.6664 133.025 52.6693 133.032 52.6726 133.041C52.6889 133.082 52.7152 133.144 52.7533 133.219C52.8298 133.369 52.953 133.573 53.1385 133.78C53.5061 134.191 54.1247 134.626 55.1378 134.693H55.1418C56.169 134.777 57.1027 134.483 57.7865 134.162C58.1272 134 58.4025 133.835 58.5918 133.71C58.6787 133.653 58.7472 133.604 58.7955 133.569C58.7962 133.554 58.797 133.536 58.7979 133.517C58.8031 133.41 58.8107 133.251 58.8211 133.048C58.8418 132.64 58.8732 132.051 58.916 131.322C59.0015 129.865 59.1327 127.85 59.315 125.62C59.6791 121.164 60.2486 115.832 61.0705 112.376C61.8893 108.931 63.2678 104.116 64.4403 100.165C65.0267 98.1881 65.5622 96.4267 65.9508 95.1596C66.1452 94.5261 66.303 94.0157 66.4121 93.6639C66.4667 93.4879 66.5091 93.3519 66.538 93.2594L66.5817 93.1194C66.5817 93.119 66.5819 93.1185 66.8113 93.19C67.0506 93.1699 67.0506 93.1699 67.0506 93.1699L67.0529 93.1979L67.0597 93.2795C67.0656 93.3515 67.0741 93.4572 67.0849 93.5945C67.1064 93.8687 67.1365 94.2672 67.1713 94.7647C67.2408 95.7594 67.3286 97.1498 67.4021 98.7328C67.5487 101.898 67.6382 105.843 67.4061 108.94C67.1925 111.792 66.7217 114.762 66.2743 117.586C66.236 117.827 66.198 118.067 66.1603 118.306C65.68 121.348 65.257 124.182 65.2394 126.5C65.2217 128.856 65.2128 130.699 65.2084 131.952C65.2062 132.577 65.2051 133.058 65.2045 133.38C65.2043 133.501 65.2041 133.6 65.2041 133.676C65.2398 133.683 65.2805 133.691 65.326 133.7C65.5277 133.739 65.8234 133.791 66.1964 133.844C66.9426 133.949 67.9971 134.054 69.2272 134.054C70.4427 134.054 71.256 133.846 71.7583 133.646C72.0096 133.546 72.1842 133.447 72.2932 133.376C72.3154 133.361 72.3349 133.348 72.3518 133.336C71.8718 127.788 72.404 119.788 73.0562 113.169C73.3852 109.831 73.7452 106.838 74.0229 104.681C74.1619 103.602 74.2802 102.732 74.3639 102.131C74.4057 101.831 74.4389 101.598 74.4616 101.44C74.4729 101.361 74.4816 101.3 74.4876 101.26L74.4964 101.199C74.4965 101.198 74.4966 101.198 74.7342 101.234C74.9719 101.269 74.9719 101.269 74.9719 101.269L74.963 101.329C74.9571 101.37 74.9484 101.429 74.9372 101.508C74.9145 101.665 74.8814 101.898 74.8398 102.197C74.7563 102.796 74.6382 103.665 74.4995 104.742C74.2221 106.896 73.8627 109.884 73.5343 113.216C72.877 119.887 72.3465 127.919 72.8417 133.422L72.8521 133.537L72.7688 133.616L72.6025 133.443C72.7688 133.616 72.769 133.616 72.7688 133.616L72.7677 133.617L72.7662 133.619L72.7624 133.622C72.7593 133.625 72.7552 133.629 72.7504 133.633C72.7406 133.642 72.727 133.653 72.7095 133.667C72.6746 133.695 72.624 133.733 72.5564 133.777C72.4212 133.865 72.2182 133.979 71.9367 134.091C71.3731 134.315 70.4987 134.533 69.2272 134.533C67.9703 134.533 66.8929 134.426 66.1293 134.318C65.7472 134.265 65.4433 134.211 65.2342 134.171C65.1297 134.15 65.0488 134.133 64.9937 134.121C64.9662 134.115 64.945 134.11 64.9306 134.107L64.9139 134.103L64.9095 134.102H64.9083C64.9083 134.102 64.9077 134.102 64.9637 133.868C64.7234 133.868 64.7234 133.868 64.7234 133.868L64.7235 133.745C64.7236 133.663 64.7238 133.541 64.724 133.379C64.7246 133.056 64.7257 132.577 64.7279 131.95C64.7323 130.696 64.7412 128.853 64.759 126.496C64.7769 124.136 65.2066 121.266 65.6857 118.231C65.7232 117.994 65.7612 117.754 65.7992 117.514C66.2471 114.687 66.7149 111.735 66.927 108.905C67.1568 105.837 67.0686 101.916 66.9221 98.7553C66.8489 97.1765 66.7613 95.7896 66.692 94.798C66.6838 94.68 66.6759 94.5677 66.6682 94.4615C66.592 94.7086 66.5055 94.9893 66.4103 95.2996C66.0218 96.5658 65.4869 98.326 64.9009 100.301C63.7285 104.251 62.3534 109.056 61.538 112.486C60.7255 115.904 60.1581 121.201 59.7938 125.658C59.6119 127.884 59.481 129.896 59.3956 131.35C59.3529 132.078 59.3215 132.666 59.3009 133.072C59.2906 133.275 59.2829 133.432 59.2779 133.54C59.2764 133.569 59.2753 133.595 59.2742 133.617L59.2703 133.702C59.2703 133.702 59.2703 133.702 59.0303 133.691C59.1823 133.877 59.1822 133.877 59.1821 133.877L59.18 133.879L59.1752 133.883C59.1711 133.886 59.1654 133.89 59.158 133.896C59.1433 133.908 59.1221 133.924 59.0945 133.944C59.0396 133.985 58.9595 134.043 58.8571 134.11C58.6523 134.245 58.3568 134.423 57.9915 134.594C57.2633 134.937 56.2437 135.263 55.1045 135.17C53.9514 135.095 53.2205 134.591 52.7801 134.099C52.5615 133.855 52.416 133.615 52.3247 133.435C52.2791 133.345 52.2468 133.27 52.2255 133.216C52.2148 133.189 52.2069 133.167 52.2015 133.152C52.1988 133.144 52.1966 133.137 52.1951 133.133L52.1933 133.127L52.1926 133.125L52.1924 133.124C52.1923 133.124 52.1922 133.124 52.4219 133.054C52.1819 133.043 52.1819 133.043 52.1819 133.043L52.1857 132.957C52.1883 132.899 52.1921 132.813 52.1972 132.702C52.2076 132.479 52.223 132.148 52.2441 131.724C52.2864 130.875 52.3508 129.647 52.4397 128.132C52.6174 125.101 52.8929 120.918 53.2839 116.308C53.6756 111.692 54.1831 108.557 54.7302 105.502C54.819 105.006 54.9087 104.512 54.9992 104.014C55.466 101.448 55.951 98.7798 56.4116 95.1794C56.9623 90.8738 57.2556 88.7195 57.4114 87.6414C57.4892 87.1026 57.533 86.8306 57.5575 86.692C57.5696 86.6235 57.5778 86.584 57.5837 86.5595C57.5864 86.5485 57.5904 86.5332 57.5963 86.5173C57.5988 86.5108 57.6059 86.4919 57.6196 86.4709C57.6262 86.4603 57.6409 86.4388 57.6658 86.4173C57.6789 86.4063 57.6981 86.3923 57.7236 86.3809C57.7366 86.3752 57.7516 86.3694 57.7683 86.3659C57.7768 86.3638 57.7899 86.362 57.7944 86.3611C57.8084 86.3599 57.8224 86.3599 57.8224 86.5994C57.8224 86.839 57.8363 86.8385 57.8503 86.8372C57.8547 86.8367 57.8678 86.8346 57.8764 86.8328C57.8932 86.8288 57.908 86.8236 57.921 86.8175C57.9466 86.806 57.9657 86.792 57.9788 86.781C58.0036 86.76 58.0182 86.7384 58.0246 86.7284C58.0379 86.7077 58.0446 86.6897 58.0462 86.6853C58.0494 86.6766 58.0511 86.6705 58.0511 86.6705C58.0511 86.6705 58.0509 86.6709 58.0506 86.6726C58.0484 86.6819 58.0423 86.7095 58.0306 86.7753C58.0074 86.9061 57.9646 87.172 57.8869 87.7099ZM52.4219 133.054L52.1819 133.043L52.1802 133.084L52.1924 133.124L52.4219 133.054ZM59.0303 133.691L59.1821 133.877L59.2656 133.809L59.2703 133.702L59.0303 133.691ZM64.9637 133.868H64.7234V134.057L64.9083 134.102L64.9637 133.868ZM66.8113 93.19L67.0506 93.1699L66.9467 91.9536L66.5817 93.1194L66.8113 93.19Z" fill="#4A4A4A"/>
<path fill-rule="evenodd" clip-rule="evenodd" d="M71.9023 133.935C71.9023 133.935 71.9023 133.935 72.0692 133.762C72.236 133.59 72.2359 133.59 72.2359 133.59L72.238 133.592L72.2459 133.599C72.2531 133.606 72.2642 133.616 72.2791 133.63C72.3089 133.657 72.3539 133.697 72.4131 133.749C72.5318 133.852 72.7076 133.998 72.9339 134.17C73.3869 134.512 74.0404 134.956 74.8412 135.355L74.6264 135.783C73.7929 135.368 73.1141 134.908 72.6433 134.551C72.4078 134.372 72.2238 134.22 72.0982 134.111C72.0353 134.056 71.9871 134.013 71.9542 133.983C71.9376 133.968 71.9251 133.956 71.9164 133.948L71.9064 133.939L71.9036 133.936L71.9023 133.935Z" fill="#4A4A4A"/>
<path fill-rule="evenodd" clip-rule="evenodd" d="M66.8672 134.414C66.8671 134.414 66.8671 134.414 66.9685 134.197L67.0698 133.98L67.0934 133.991C67.1091 133.999 67.1322 134.009 67.1622 134.023C67.2219 134.05 67.3089 134.09 67.4168 134.139C67.6328 134.237 67.9328 134.371 68.2693 134.518C68.9445 134.811 69.7573 135.151 70.3321 135.341C70.9285 135.534 71.3738 135.647 71.6679 135.712C71.7512 135.731 71.8223 135.745 71.8814 135.756C71.916 135.622 71.9725 135.444 72.0619 135.261C72.2412 134.893 72.5823 134.454 73.1884 134.409L73.2238 134.888C72.8706 134.913 72.6432 135.165 72.4939 135.47C72.421 135.62 72.3737 135.77 72.3447 135.883C72.3304 135.94 72.3207 135.986 72.3149 136.017C72.3119 136.033 72.3099 136.046 72.3086 136.053L72.3074 136.061L72.3072 136.062L72.2756 136.296L72.0411 136.268L72.0692 136.03C72.0411 136.268 72.0412 136.268 72.0411 136.268H72.0399H72.0379L72.031 136.267C72.0253 136.267 72.0172 136.265 72.0068 136.264C71.9859 136.261 71.9556 136.256 71.9158 136.249C71.8364 136.236 71.7192 136.214 71.5644 136.179C71.2547 136.112 70.7944 135.995 70.1832 135.797H70.1812C69.5837 135.598 68.7528 135.251 68.077 134.957C67.7379 134.809 67.4356 134.674 67.2181 134.576C67.1093 134.526 67.0217 134.486 66.9613 134.458C66.9311 134.445 66.9076 134.434 66.8916 134.426L66.8672 134.414Z" fill="#4A4A4A"/>
<path fill-rule="evenodd" clip-rule="evenodd" d="M73.8612 134.977C73.8613 134.977 73.8614 134.977 73.9887 135.18C74.1161 135.382 74.1162 135.382 74.1163 135.382C74.1165 135.382 74.1166 135.382 74.1163 135.382L74.1136 135.384C74.1098 135.387 74.1033 135.391 74.0943 135.398C74.0764 135.411 74.0491 135.432 74.0158 135.462C73.949 135.519 73.8594 135.61 73.7722 135.734C73.5999 135.978 73.4343 136.357 73.482 136.894L73.0033 136.937C72.9443 136.27 73.1518 135.78 73.3792 135.458C73.4919 135.298 73.6088 135.18 73.6986 135.102C73.7436 135.063 73.782 135.032 73.8104 135.012C73.8245 135.001 73.8361 134.993 73.8448 134.987C73.8491 134.984 73.8527 134.981 73.8555 134.98L73.8591 134.978H73.8604L73.8612 134.977Z" fill="#4A4A4A"/>
<path fill-rule="evenodd" clip-rule="evenodd" d="M68.4103 38.5111C68.4102 38.5112 68.4102 38.5112 68.552 38.5856C68.6937 38.6601 68.6936 38.6602 68.6936 38.6603L68.6924 38.6623L68.6901 38.6665C68.6882 38.67 68.6855 38.6747 68.6822 38.6806C68.6754 38.6923 68.6656 38.7088 68.6525 38.7293C68.6265 38.7703 68.5876 38.8277 68.5343 38.8964C68.4279 39.0339 68.2639 39.2169 68.031 39.4051C67.5637 39.7826 66.823 40.177 65.7229 40.2685L65.6963 39.9501C66.7279 39.8644 67.4085 39.4969 67.8294 39.1569C68.0406 38.9863 68.1875 38.8217 68.2808 38.7011C68.3275 38.6409 68.3609 38.5917 68.382 38.5584C68.3924 38.5417 68.4001 38.5291 68.4047 38.521C68.407 38.517 68.4087 38.5141 68.4096 38.5125L68.4103 38.5111Z" fill="#4A4A4A"/>
</g>
</svg>
