<svg width="288" height="263" viewBox="0 0 288 263" fill="none" xmlns="http://www.w3.org/2000/svg">
<path d="M145.512 176.587C138.464 160.589 139.506 134.385 142.773 132.204C146.366 129.81 152.057 142.094 157.753 138.5C163.449 134.906 167.34 127.113 162.546 114.83C157.753 102.546 151.463 110.636 146.966 113.618C142.47 116.599 138.876 113.921 139.779 103.134C140.44 95.1774 143.542 80.5547 145.13 73.4404C145.845 73.7494 146.56 74.0464 147.263 74.3918C133.186 67.7985 117.606 65.7018 111.019 67.7985C104.431 69.8953 105.625 70.4952 108.916 78.2823C115.794 94.529 89.7541 100.098 82.2519 87.5843C77.7615 80.0942 84.3668 75.8886 82.567 70.4952C80.7672 65.1019 47.5162 71.3921 43.3228 73.7918C43.3228 73.7918 51.4067 98.0317 50.2129 106.746C49.0191 115.46 44.8196 119.332 38.5293 113.036C32.2391 106.74 24.1491 112.43 23.8461 122.926C23.5431 133.422 25.3429 141.797 32.536 139.403C39.7292 137.009 45.4195 128.319 47.8132 139.403C50.2069 150.487 45.9952 164.855 43.6197 175.054C43.6197 175.054 62.4965 183.144 71.1804 182.544C79.8643 181.944 85.2637 181.647 82.567 176.254C79.8704 170.86 75.3739 167.267 78.6705 161.273C81.9671 155.28 95.1475 155.88 102.038 157.377C108.928 158.874 111.928 163.97 109.831 169.66C107.734 175.351 104.134 181.047 110.728 182.241C116.939 183.374 132.737 180.774 148.299 175.708C147.378 176.005 146.421 176.296 145.512 176.587Z" stroke="#263238" stroke-miterlimit="10"/>
<path d="M151.16 174.751C150.238 175.066 149.311 175.357 148.39 175.678C149.311 175.375 150.238 175.066 151.16 174.751Z" stroke="#263238" stroke-miterlimit="10"/>
<path d="M260.512 110.333C254.821 110.333 254.518 114.83 248.525 113.933C242.532 113.036 241.938 99.2497 248.228 74.9857C248.228 74.9857 241.338 80.076 225.758 80.379C210.178 80.682 203.887 78.8761 207.784 73.1858C211.681 67.4955 214.674 62.9991 211.378 58.5086C208.081 54.0182 192.204 54.6121 187.138 58.5086C182.072 62.4052 185.641 66.8956 189.234 71.986C192.828 77.0763 188.628 80.076 182.641 80.379C176.654 80.682 161.371 80.985 147.287 74.3857C146.585 74.0524 145.869 73.7434 145.154 73.4343C143.567 80.5669 140.464 95.1895 139.803 103.128C138.901 113.915 142.494 116.611 146.991 113.612C151.487 110.612 157.777 102.528 162.571 114.824C167.364 127.119 163.468 134.894 157.777 138.494C152.087 142.094 146.366 129.81 142.785 132.204C139.519 134.385 138.476 160.589 145.524 176.587C147.409 175.981 149.293 175.375 151.172 174.769C167.649 169.073 184.126 166.376 187.126 170.272C190.125 174.169 188.944 173.569 185.029 179.562C181.114 185.556 181.429 190.646 188.022 193.64C194.616 196.633 210.79 196.064 212.262 189.149C213.735 182.235 205.372 178.362 209.269 171.769C213.165 165.176 247.622 174.751 247.622 174.751C247.622 174.751 239.835 148.384 242.829 139.694C245.822 131.004 248.228 133.125 253.022 136.397C257.815 139.67 264.105 139.397 266.505 129.81C268.905 120.223 266.202 110.333 260.512 110.333Z" stroke="#263238" stroke-miterlimit="10"/>
<path d="M242.698 46.7921C250.325 43.1918 253.589 34.0903 249.989 26.4634C246.388 18.8365 237.287 15.5723 229.66 19.1727C222.033 22.773 218.769 31.8745 222.369 39.5014C225.969 47.1283 235.071 50.3925 242.698 46.7921Z" fill="#2AB0EC" stroke="#263238" stroke-miterlimit="10"/>
<path d="M237.464 45.4971C244.362 44.7891 249.38 38.6229 248.672 31.7245C247.964 24.8261 241.798 19.8078 234.9 20.5159C228.001 21.2239 222.983 27.3901 223.691 34.2884C224.399 41.1868 230.565 46.2051 237.464 45.4971Z" fill="white" stroke="#263238" stroke-miterlimit="10"/>
<path d="M240.109 41.2627C244.669 39.0932 246.608 33.6374 244.438 29.0767C242.269 24.5161 236.813 22.5777 232.252 24.7471C227.692 26.9166 225.753 32.3724 227.923 36.933C230.092 41.4937 235.548 43.4321 240.109 41.2627Z" fill="#2AB0EC" stroke="#263238" stroke-miterlimit="10"/>
<path d="M241.95 32.9962C241.95 31.854 241.611 30.7375 240.976 29.7877C240.342 28.838 239.44 28.0978 238.385 27.6607C237.329 27.2236 236.168 27.1092 235.048 27.3321C233.928 27.5549 232.899 28.1049 232.091 28.9126C231.283 29.7203 230.733 30.7493 230.51 31.8696C230.288 32.9898 230.402 34.151 230.839 35.2063C231.276 36.2616 232.016 37.1635 232.966 37.7981C233.916 38.4327 235.032 38.7714 236.175 38.7714C236.933 38.7722 237.685 38.6233 238.386 38.3334C239.087 38.0435 239.724 37.6181 240.26 37.0817C240.796 36.5452 241.222 35.9083 241.512 35.2072C241.802 34.5062 241.95 33.7549 241.95 32.9962Z" fill="white" stroke="#263238" stroke-miterlimit="10"/>
<path d="M238.853 32.9962C238.854 32.4662 238.698 31.9478 238.405 31.5065C238.111 31.0652 237.693 30.721 237.204 30.5173C236.714 30.3137 236.176 30.2597 235.656 30.3624C235.136 30.4651 234.658 30.7197 234.283 31.094C233.908 31.4684 233.652 31.9456 233.548 32.4654C233.444 32.9851 233.497 33.524 233.699 34.0138C233.902 34.5036 234.245 34.9223 234.686 35.2168C235.126 35.5114 235.645 35.6687 236.175 35.6687C236.884 35.6687 237.564 35.3873 238.066 34.8863C238.569 34.3853 238.851 33.7056 238.853 32.9962Z" fill="#2AB0EC" stroke="#263238" stroke-miterlimit="10"/>
<path d="M237.284 28.8088L236.181 32.9962L240.132 33.8628L237.284 28.8088Z" fill="#263238" stroke="#263238" stroke-miterlimit="10"/>
<path d="M238.968 31.1419L256.342 21.6762" stroke="#263238" stroke-width="2" stroke-miterlimit="10"/>
<path d="M250.767 24.7911L251.028 20.2522L259.19 15.586V20.7673L250.767 24.7911Z" fill="#263238" stroke="#263238" stroke-miterlimit="10"/>
<path d="M262.693 23.2336L259.118 20.5976L250.731 25.0032L254.773 27.3423L262.693 23.2336Z" fill="#263238" stroke="#263238" stroke-miterlimit="10"/>
<path d="M156.122 33.9234H150.05V48.3825H156.122V33.9234Z" fill="#2AB0EC" stroke="#263238" stroke-miterlimit="10"/>
<path d="M165.073 29.5421H159.001V48.3825H165.073V29.5421Z" fill="#2AB0EC" stroke="#263238" stroke-miterlimit="10"/>
<path d="M174.023 33.9234H167.951V48.3825H174.023V33.9234Z" fill="#2AB0EC" stroke="#263238" stroke-miterlimit="10"/>
<path d="M182.98 28.5906H176.908V48.3825H182.98V28.5906Z" fill="#2AB0EC" stroke="#263238" stroke-miterlimit="10"/>
<path d="M191.93 21.349H185.858V48.3824H191.93V21.349Z" fill="#2AB0EC" stroke="#263238" stroke-miterlimit="10"/>
<path d="M183.871 9.89567L186.24 10.9077L170.127 26.3727L162.431 22.1731L150.238 29.5845V31.8206L162.479 24.379L170.442 28.7239L187.562 12.2893L188.477 14.6952L191.864 6.83539L183.871 9.89567Z" fill="#263238" stroke="#263238" stroke-linecap="round" stroke-linejoin="round"/>
<path d="M113.176 47.7755C121.387 45.8482 126.481 37.6296 124.553 29.4188C122.626 21.208 114.407 16.1142 106.197 18.0415C97.9858 19.9689 92.892 28.1875 94.8194 36.3983C96.7467 44.6091 104.965 49.7029 113.176 47.7755Z" fill="white" stroke="#263238" stroke-miterlimit="10"/>
<path d="M112.705 46.1468C120.014 44.4782 124.586 37.2006 122.918 29.8917C121.249 22.5829 113.971 18.0106 106.663 19.6792C99.3537 21.3477 94.7814 28.6254 96.4499 35.9342C98.1185 43.243 105.396 47.8153 112.705 46.1468Z" fill="#2AB0EC" stroke="#263238" stroke-miterlimit="10"/>
<path d="M111.552 45.0881C118.237 44.0522 122.815 37.7938 121.779 31.1097C120.743 24.4256 114.485 19.8468 107.801 20.8828C101.117 21.9187 96.538 28.1771 97.574 34.8612C98.6099 41.5453 104.868 46.1241 111.552 45.0881Z" fill="white" stroke="#263238" stroke-miterlimit="10"/>
<path d="M109.497 43.4739V41.5286C108.893 41.5479 108.292 41.4347 107.736 41.1971C107.18 40.9594 106.683 40.6031 106.279 40.153C105.564 39.2885 105.18 37.9977 105.128 36.2807L108.079 35.7777C108.089 36.3676 108.162 36.9548 108.297 37.5291C108.377 37.9278 108.568 38.2956 108.849 38.5895C108.971 38.7056 109.116 38.796 109.274 38.8553C109.433 38.9147 109.601 38.9417 109.77 38.935C109.942 38.9547 110.116 38.926 110.272 38.8521C110.428 38.7782 110.561 38.6621 110.655 38.5168C110.821 38.2234 110.905 37.8905 110.897 37.5533C110.925 36.9112 110.753 36.2761 110.406 35.7353C110.022 35.1932 109.567 34.7042 109.055 34.2809L107.279 32.7599C106.892 32.4006 106.53 32.016 106.194 31.6085C105.868 31.2072 105.61 30.7547 105.431 30.2692C105.231 29.6971 105.134 29.0937 105.146 28.4876C105.118 27.9329 105.203 27.3783 105.395 26.8574C105.588 26.3366 105.885 25.8603 106.267 25.4576C107.089 24.7056 108.154 24.2752 109.267 24.2456V22.3307H110.273V24.1972C110.922 24.2071 111.558 24.3823 112.121 24.7062C112.574 24.9936 112.945 25.3921 113.2 25.8636C113.455 26.3285 113.639 26.829 113.745 27.3483C113.853 27.8636 113.922 28.3862 113.951 28.9118L110.964 29.3481C110.957 28.889 110.914 28.4311 110.836 27.9786C110.794 27.6403 110.664 27.3188 110.461 27.0453C110.357 26.9303 110.226 26.8421 110.08 26.7883C109.935 26.7345 109.778 26.7166 109.624 26.7363C109.449 26.7336 109.277 26.7742 109.121 26.8546C108.966 26.935 108.833 27.0525 108.734 27.1968C108.534 27.4849 108.428 27.8279 108.431 28.1785C108.403 28.7311 108.566 29.2764 108.891 29.7238C109.21 30.1291 109.56 30.5081 109.94 30.857L111.673 32.3599C112.133 32.7794 112.56 33.2332 112.951 33.7173C113.342 34.2101 113.658 34.7572 113.891 35.3414C114.139 35.9911 114.26 36.6823 114.248 37.3776C114.257 38.0766 114.102 38.7679 113.794 39.3955C113.495 39.9865 113.043 40.4866 112.485 40.8439C111.884 41.2282 111.196 41.4573 110.485 41.5104V43.4739H109.497Z" fill="#263238"/>
<path d="M60.1934 21.0884H31.8389V47.7462H60.1934V21.0884Z" fill="white" stroke="#263238" stroke-miterlimit="10"/>
<path d="M60.1934 21.0884H31.8389V27.9422H60.1934V21.0884Z" fill="#2AB0EC" stroke="#263238" stroke-linecap="round" stroke-linejoin="round"/>
<path d="M37.5352 31.7479H34.1416V35.1415H37.5352V31.7479Z" fill="#2AB0EC" stroke="#263238" stroke-linecap="round" stroke-linejoin="round"/>
<path d="M42.6255 31.7479H39.2319V35.1415H42.6255V31.7479Z" fill="#2AB0EC" stroke="#263238" stroke-linecap="round" stroke-linejoin="round"/>
<path d="M47.71 31.7479H44.3164V35.1415H47.71V31.7479Z" fill="#2AB0EC" stroke="#263238" stroke-linecap="round" stroke-linejoin="round"/>
<path d="M52.8003 31.7479H49.4067V35.1415H52.8003V31.7479Z" fill="#2AB0EC" stroke="#263238" stroke-linecap="round" stroke-linejoin="round"/>
<path d="M57.8906 31.7479H54.4971V35.1415H57.8906V31.7479Z" fill="#2AB0EC" stroke="#263238" stroke-linecap="round" stroke-linejoin="round"/>
<path d="M37.5352 37.0806H34.1416V40.4742H37.5352V37.0806Z" fill="#2AB0EC" stroke="#263238" stroke-linecap="round" stroke-linejoin="round"/>
<path d="M42.6255 37.0806H39.2319V40.4742H42.6255V37.0806Z" fill="#2AB0EC" stroke="#263238" stroke-linecap="round" stroke-linejoin="round"/>
<path d="M47.71 37.0806H44.3164V40.4742H47.71V37.0806Z" fill="#2AB0EC" stroke="#263238" stroke-linecap="round" stroke-linejoin="round"/>
<path d="M52.8003 37.0806H49.4067V40.4742H52.8003V37.0806Z" fill="#2AB0EC" stroke="#263238" stroke-linecap="round" stroke-linejoin="round"/>
<path d="M57.8906 37.0806H54.4971V40.4742H57.8906V37.0806Z" fill="#2AB0EC" stroke="#263238" stroke-linecap="round" stroke-linejoin="round"/>
<path d="M37.5352 42.4134H34.1416V45.807H37.5352V42.4134Z" fill="#2AB0EC" stroke="#263238" stroke-linecap="round" stroke-linejoin="round"/>
<path d="M42.6255 42.4134H39.2319V45.807H42.6255V42.4134Z" fill="#2AB0EC" stroke="#263238" stroke-linecap="round" stroke-linejoin="round"/>
<path d="M47.71 42.4134H44.3164V45.807H47.71V42.4134Z" fill="#2AB0EC" stroke="#263238" stroke-linecap="round" stroke-linejoin="round"/>
<path d="M52.8003 42.4134H49.4067V45.807H52.8003V42.4134Z" fill="#2AB0EC" stroke="#263238" stroke-linecap="round" stroke-linejoin="round"/>
<path d="M57.8906 42.4134H54.4971V45.807H57.8906V42.4134Z" fill="#2AB0EC" stroke="#263238" stroke-linecap="round" stroke-linejoin="round"/>
<path d="M38.1413 16.7253H35.7173V23.27H38.1413V16.7253Z" fill="#263238"/>
<path d="M44.2013 16.7253H41.7773V23.27H44.2013V16.7253Z" fill="#263238"/>
<path d="M50.255 16.7253H47.8311V23.27H50.255V16.7253Z" fill="#263238"/>
<path d="M56.3151 16.7253H53.8911V23.27H56.3151V16.7253Z" fill="#263238"/>
<path d="M7.18106 220.219C8.49607 220.794 11.7139 220.722 11.7139 220.722C11.7139 220.722 11.0231 218.619 10.9625 218.491C10.2535 217.013 8.02339 214.577 6.20541 214.819C5.90479 214.868 5.61793 214.981 5.36351 215.148C5.10908 215.316 4.8928 215.535 4.72873 215.792C4.56466 216.048 4.45649 216.337 4.41126 216.638C4.36602 216.939 4.38474 217.246 4.4662 217.54C4.7692 218.794 6.05997 219.734 7.18106 220.219Z" fill="#2AB0EC"/>
<path d="M8.28985 229.545C9.65334 229.739 12.5318 228.909 12.756 228.842C13.2269 230.485 13.808 232.094 14.4952 233.659C14.8891 234.575 15.3194 235.477 15.7557 236.393C15.4951 236.005 15.2588 235.665 15.2164 235.623C14.1498 234.381 11.3501 232.593 9.66546 233.338C9.38822 233.464 9.14066 233.647 8.93899 233.875C8.73731 234.103 8.58605 234.371 8.4951 234.662C8.40416 234.953 8.37557 235.259 8.41121 235.561C8.44685 235.864 8.54591 236.155 8.70193 236.417C9.30792 237.55 10.8169 238.114 12.0288 238.289C13.2408 238.465 15.7194 237.811 16.3678 237.623C16.5375 237.968 16.7071 238.32 16.8829 238.665C17.7131 240.319 18.5494 241.968 19.3069 243.61C19.5795 244.186 19.828 244.767 20.0765 245.349C19.8401 245.004 19.6462 244.743 19.6098 244.683C18.5372 243.471 15.7375 241.683 14.0529 242.398C13.7771 242.526 13.5314 242.711 13.3314 242.94C13.1315 243.17 12.9819 243.438 12.8923 243.729C12.8026 244.02 12.7749 244.326 12.8109 244.628C12.847 244.93 12.9459 245.221 13.1015 245.482C13.7075 246.616 15.2224 247.173 16.4284 247.349C17.6343 247.525 19.8825 246.931 20.6703 246.743C20.9067 247.349 21.143 247.955 21.3491 248.561C21.4763 248.967 21.6339 249.355 21.7369 249.773C21.8399 250.191 21.9672 250.585 22.0763 250.985C22.2641 251.767 22.4641 252.573 22.6277 253.342C22.7489 253.876 22.8519 254.391 22.9549 254.9C22.6883 254.324 22.149 253.203 22.0944 253.112C21.2218 251.724 18.7251 249.561 16.9495 250.009C16.6615 250.093 16.3939 250.236 16.1637 250.429C15.9335 250.621 15.7456 250.859 15.6119 251.128C15.4781 251.397 15.4014 251.69 15.3865 251.99C15.3717 252.289 15.4189 252.589 15.5254 252.87C15.9678 254.082 17.3434 254.869 18.5554 255.227C19.8401 255.615 22.6883 255.257 23.0458 255.227C23.2155 256.081 23.3731 256.912 23.5125 257.693C23.8155 259.432 24.0457 260.984 24.2215 262.299H25.4335C25.2214 260.935 24.9487 259.317 24.5851 257.499C24.4154 256.633 24.2154 255.712 23.9791 254.766C24.8381 254.423 25.6759 254.028 26.4879 253.585C27.4272 254.603 29.8269 255.79 30.1239 255.942C29.7966 256.748 29.4694 257.53 29.1482 258.257C28.4816 259.79 27.8514 261.147 27.2939 262.299H28.5968C29.0755 261.232 29.6027 260.02 30.1481 258.663C30.4875 257.845 30.8268 256.966 31.1722 256.063C31.5177 256.136 34.3355 256.706 35.6506 256.409C36.8625 256.142 38.2866 255.469 38.826 254.288C38.9599 254.013 39.0346 253.714 39.0454 253.409C39.0561 253.104 39.0026 252.801 38.8883 252.518C38.774 252.235 38.6015 251.979 38.3819 251.767C38.1624 251.555 37.9007 251.392 37.614 251.288C35.8748 250.682 33.2266 252.682 32.2509 253.997C32.1964 254.075 31.6449 254.984 31.3419 255.566C31.4813 255.197 31.6207 254.839 31.754 254.457C32.0328 253.7 32.2873 252.936 32.566 252.118L32.9296 250.906C33.0569 250.5 33.1417 250.064 33.2569 249.634C33.4932 248.646 33.6811 247.628 33.8629 246.604C34.5295 246.846 36.8928 247.67 38.1048 247.579C39.3168 247.488 40.8561 247.046 41.559 245.961C41.7348 245.712 41.8561 245.429 41.9148 245.13C41.9735 244.831 41.9683 244.523 41.8997 244.226C41.831 243.929 41.7004 243.65 41.5164 243.407C41.3324 243.164 41.0991 242.963 40.8318 242.816C39.2017 241.98 36.2808 243.525 35.1233 244.683C35.0506 244.755 34.3113 245.676 33.9113 246.191C34.0083 245.585 34.1113 244.979 34.1901 244.325C34.4143 242.507 34.584 240.659 34.7961 238.817C34.8506 238.253 34.9112 237.689 34.9718 237.126C35.2082 237.217 38.0018 238.253 39.3714 238.162C40.5834 238.071 42.1165 237.629 42.8255 236.544C43.0004 236.295 43.1209 236.012 43.1791 235.713C43.2372 235.414 43.2319 235.106 43.1633 234.809C43.0947 234.513 42.9644 234.234 42.7809 233.991C42.5975 233.748 42.3649 233.546 42.0983 233.399C40.4682 232.557 37.5473 234.102 36.3838 235.259C36.299 235.344 35.2385 236.677 34.984 237.029C35.1112 235.787 35.2567 234.556 35.4445 233.344C35.6938 231.708 36.0459 230.089 36.4989 228.496C36.608 228.539 39.5289 229.636 40.9227 229.539C42.1347 229.454 43.6739 229.005 44.3769 227.921C44.5518 227.671 44.6722 227.388 44.7304 227.089C44.7886 226.79 44.7832 226.483 44.7146 226.186C44.646 225.889 44.5158 225.61 44.3323 225.367C44.1488 225.124 43.9162 224.923 43.6497 224.776C42.0196 223.933 39.0987 225.485 37.9412 226.636C37.8503 226.727 36.7292 228.157 36.5171 228.454C36.5171 228.363 36.5656 228.266 36.5898 228.175C37.0918 226.594 37.7347 225.06 38.5108 223.594C38.9229 222.776 39.3714 222.018 39.8198 221.297C40.341 221.558 42.7286 222.715 44.0072 222.77C45.2859 222.824 46.7948 222.539 47.6432 221.558C47.845 221.329 47.9963 221.061 48.0872 220.77C48.178 220.479 48.2063 220.172 48.1703 219.869C48.1342 219.567 48.0346 219.275 47.878 219.014C47.7214 218.752 47.5113 218.527 47.2614 218.352C45.7343 217.334 42.6619 218.558 41.3833 219.564C41.3105 219.619 40.6682 220.261 40.2076 220.734C40.4137 220.412 40.6197 220.073 40.8136 219.764C41.5772 218.613 42.3529 217.601 43.0437 216.734C43.4437 216.231 43.8133 215.789 44.1648 215.371C44.8071 215.371 47.4008 215.28 48.534 214.765C49.6672 214.249 50.9095 213.28 51.1762 212.013C51.2496 211.717 51.2597 211.409 51.206 211.109C51.1522 210.809 51.0358 210.523 50.8642 210.271C50.6927 210.019 50.4699 209.806 50.2104 209.645C49.9509 209.485 49.6605 209.381 49.3582 209.341C47.5402 209.147 45.3707 211.644 44.7041 213.14C44.6496 213.268 43.983 215.395 44.0133 215.395H44.0072C43.6618 215.789 43.2922 216.213 42.9043 216.686C42.1892 217.558 41.3954 218.558 40.6015 219.716C39.7173 220.936 38.9078 222.209 38.1776 223.527C37.3612 224.994 36.6777 226.532 36.1353 228.121V228.181C36.1353 227.642 36.1353 226.139 36.1353 226.024C35.9233 224.4 34.5598 221.388 32.76 221.055C32.4589 221.008 32.1512 221.024 31.8571 221.104C31.5629 221.184 31.2888 221.325 31.0527 221.517C30.8166 221.71 30.6237 221.95 30.4867 222.222C30.3496 222.495 30.2714 222.793 30.2572 223.097C30.1542 224.388 31.0874 225.679 31.9964 226.491C33.0266 227.412 35.8808 228.309 36.1111 228.369C35.5963 230.001 35.1914 231.665 34.8991 233.35C34.7234 234.332 34.5779 235.326 34.4446 236.32C34.4446 235.859 34.4446 235.441 34.4446 235.387C34.2325 233.763 32.869 230.751 31.0692 230.417C30.7686 230.37 30.4615 230.387 30.1677 230.466C29.874 230.546 29.6002 230.686 29.3642 230.878C29.1281 231.07 28.9351 231.309 28.7977 231.581C28.6603 231.852 28.5815 232.15 28.5665 232.454C28.4634 233.744 29.3967 235.035 30.3057 235.853C31.2147 236.671 33.6508 237.483 34.2931 237.671L34.1477 238.823C33.9295 240.641 33.7174 242.495 33.4568 244.277C33.3659 244.883 33.2508 245.525 33.1357 246.149C33.1357 245.737 33.1357 245.386 33.1357 245.337C32.9236 243.713 31.5661 240.695 29.7603 240.362C29.4593 240.316 29.152 240.333 28.8583 240.413C28.5645 240.493 28.2908 240.634 28.0549 240.827C27.819 241.019 27.6262 241.259 27.4888 241.531C27.3514 241.802 27.2726 242.1 27.2575 242.404C27.1545 243.695 28.0877 244.986 29.0028 245.798C29.9178 246.61 32.1055 247.355 32.869 247.616C32.7357 248.222 32.6024 248.876 32.4448 249.488C32.3297 249.894 32.2449 250.3 32.1055 250.7C31.9661 251.1 31.8449 251.512 31.7176 251.912C31.4389 252.67 31.1601 253.451 30.8753 254.185L30.2693 255.663C30.3663 255.057 30.5359 253.803 30.5359 253.694C30.5138 252.255 30.1259 250.845 29.4088 249.597C29.4208 249.438 29.4208 249.278 29.4088 249.118C29.3671 248.818 29.2633 248.531 29.1039 248.273C28.9446 248.016 28.7332 247.794 28.4833 247.623C28.2335 247.452 27.9507 247.335 27.653 247.279C27.3553 247.224 27.0493 247.231 26.7545 247.3C24.985 247.773 23.8579 250.882 23.773 252.518C23.773 252.615 23.8336 253.669 23.8821 254.336C23.7973 253.948 23.7124 253.579 23.6155 253.179C23.4276 252.397 23.2216 251.621 23.0095 250.785C22.8883 250.385 22.761 249.979 22.6398 249.573C22.5186 249.167 22.355 248.749 22.2096 248.331C21.8642 247.373 21.4581 246.422 21.0339 245.47C21.7187 245.307 24.1488 244.689 25.1184 243.937C26.0879 243.186 27.1181 241.974 27.1121 240.683C27.1198 240.378 27.0635 240.076 26.9467 239.794C26.8299 239.513 26.6553 239.259 26.4342 239.049C26.2132 238.84 25.9505 238.679 25.6633 238.577C25.376 238.475 25.0706 238.435 24.7669 238.459C22.9489 238.659 21.3612 241.562 21.0339 243.168C21.0339 243.265 20.9067 244.44 20.8582 245.089C20.5976 244.519 20.337 243.949 20.0583 243.38C19.2402 241.743 18.3676 240.107 17.501 238.471L16.7132 236.968C16.9616 236.908 19.8583 236.235 20.9552 235.399C21.9308 234.653 22.9549 233.435 22.9489 232.145C22.9566 231.84 22.9003 231.537 22.7835 231.256C22.6667 230.974 22.4921 230.72 22.2711 230.511C22.05 230.301 21.7873 230.14 21.5001 230.039C21.2128 229.937 20.9074 229.897 20.6037 229.921C18.7857 230.12 17.198 233.023 16.8707 234.629C16.8707 234.75 16.689 236.447 16.6768 236.877C16.0708 235.768 15.5376 234.665 15.0285 233.55C14.3208 232.051 13.7134 230.507 13.2105 228.927C13.3257 228.927 16.3557 228.212 17.4525 227.357C18.4221 226.612 19.4523 225.394 19.4402 224.103C19.4488 223.799 19.3932 223.496 19.2771 223.215C19.1611 222.933 18.9871 222.679 18.7664 222.469C18.5458 222.26 18.2835 222.099 17.9966 221.997C17.7096 221.895 17.4045 221.855 17.101 221.879C15.283 222.079 13.6953 224.982 13.362 226.581C13.362 226.709 13.1742 228.533 13.1681 228.866L13.0712 228.587C12.6207 226.991 12.3104 225.359 12.144 223.709C12.041 222.8 11.9985 221.921 11.9682 221.073C12.5742 221 15.1861 220.649 16.2769 219.988C17.3677 219.328 18.4766 218.255 18.61 216.958C18.6518 216.657 18.6296 216.349 18.5448 216.057C18.4601 215.764 18.3146 215.493 18.118 215.26C17.9213 215.027 17.6778 214.839 17.4034 214.706C17.129 214.574 16.8298 214.501 16.5253 214.492C14.7073 214.492 12.8045 217.201 12.2834 218.734C12.2834 218.819 12.0713 219.709 11.9501 220.364C11.9501 219.976 11.9501 219.582 11.9501 219.213C11.9501 217.825 12.041 216.552 12.1258 215.431C12.1803 214.825 12.2409 214.219 12.3076 213.68C12.8348 213.316 14.9558 211.819 15.6103 210.747C16.2648 209.674 16.7677 208.196 16.289 206.996C16.1861 206.71 16.0242 206.449 15.8139 206.23C15.6036 206.012 15.3496 205.839 15.0684 205.725C14.7872 205.611 14.4851 205.557 14.1817 205.567C13.8783 205.577 13.5805 205.651 13.3075 205.784C11.6774 206.626 11.2471 209.904 11.4895 211.516C11.4895 211.656 12.1319 213.801 12.1561 213.783H12.1925C12.1197 214.298 12.047 214.855 11.9864 215.461C11.8713 216.589 11.7561 217.855 11.7258 219.249C11.6745 220.748 11.7089 222.25 11.8289 223.745C11.9618 225.419 12.2416 227.078 12.6651 228.702V228.763C12.3743 228.309 11.5259 227.072 11.4531 226.981C10.3805 225.769 7.58084 223.982 5.89617 224.697C5.63772 224.827 5.408 225.008 5.22056 225.229C5.03312 225.45 4.89175 225.706 4.80478 225.982C4.71781 226.258 4.687 226.549 4.71416 226.837C4.74132 227.125 4.82591 227.405 4.96294 227.66C5.58711 228.805 7.07786 229.363 8.28985 229.545Z" fill="#2AB0EC"/>
<path d="M39.7292 220.928C39.7292 220.928 40.3352 218.788 40.3352 218.649C40.5655 217.031 40.0443 213.765 38.396 212.965C38.1183 212.839 37.8172 212.774 37.5124 212.772C37.2075 212.771 36.9059 212.835 36.6273 212.958C36.3486 213.082 36.0993 213.263 35.8955 213.49C35.6917 213.716 35.5381 213.983 35.4448 214.274C35.0025 215.486 35.56 216.982 36.2266 218.007C37.0023 219.213 39.7232 220.928 39.7292 220.928Z" fill="#2AB0EC"/>
<path d="M230.86 220.219C232.175 220.794 235.393 220.722 235.393 220.722C235.393 220.722 234.702 218.619 234.642 218.491C233.933 217.013 231.703 214.577 229.885 214.819C229.584 214.868 229.297 214.981 229.043 215.148C228.788 215.316 228.572 215.535 228.408 215.792C228.244 216.048 228.136 216.337 228.09 216.638C228.045 216.939 228.064 217.246 228.145 217.54C228.448 218.794 229.739 219.734 230.86 220.219Z" fill="#2AB0EC"/>
<path d="M231.969 229.545C233.333 229.739 236.211 228.908 236.435 228.842C236.909 230.484 237.49 232.093 238.175 233.659C238.568 234.575 238.999 235.477 239.435 236.393C239.174 236.005 238.938 235.665 238.896 235.623C237.829 234.381 235.029 232.593 233.345 233.338C233.068 233.464 232.82 233.647 232.618 233.875C232.417 234.103 232.265 234.371 232.174 234.662C232.083 234.953 232.055 235.259 232.091 235.561C232.126 235.864 232.225 236.155 232.381 236.417C232.987 237.55 234.496 238.114 235.708 238.289C236.92 238.465 239.399 237.811 240.047 237.623C240.217 237.968 240.386 238.32 240.562 238.665C241.392 240.319 242.229 241.968 242.986 243.61C243.259 244.186 243.507 244.767 243.756 245.349C243.519 245.004 243.326 244.743 243.289 244.683C242.217 243.471 239.423 241.683 237.732 242.398C237.455 242.525 237.208 242.709 237.007 242.938C236.806 243.167 236.655 243.435 236.564 243.726C236.474 244.017 236.445 244.323 236.48 244.626C236.515 244.928 236.613 245.22 236.769 245.482C237.375 246.616 238.89 247.173 240.096 247.349C241.301 247.525 243.55 246.931 244.338 246.743C244.574 247.349 244.816 247.955 245.016 248.561C245.143 248.967 245.301 249.355 245.404 249.773C245.507 250.191 245.634 250.585 245.743 250.985C245.931 251.767 246.131 252.573 246.295 253.342C246.416 253.876 246.519 254.391 246.622 254.9C246.355 254.324 245.816 253.203 245.762 253.112C244.889 251.724 242.392 249.561 240.617 250.009C240.324 250.093 240.052 250.238 239.819 250.434C239.586 250.629 239.396 250.872 239.262 251.145C239.129 251.419 239.054 251.718 239.043 252.022C239.032 252.326 239.085 252.629 239.199 252.912C239.641 254.124 241.017 254.912 242.229 255.269C243.513 255.657 246.362 255.3 246.719 255.269C246.889 256.124 247.046 256.954 247.186 257.736C247.489 259.475 247.719 261.026 247.895 262.341H249.107C248.895 260.978 248.622 259.36 248.258 257.542C248.089 256.675 247.889 255.754 247.652 254.809C248.511 254.465 249.349 254.071 250.161 253.627C251.1 254.645 253.5 255.833 253.797 255.984C253.47 256.79 253.143 257.572 252.821 258.299C252.155 259.832 251.525 261.19 250.967 262.341H252.27C252.749 261.275 253.276 260.063 253.821 258.705C254.161 257.887 254.5 257.009 254.845 256.106C255.191 256.178 258.009 256.748 259.324 256.451C260.536 256.184 261.96 255.512 262.499 254.33C262.633 254.056 262.708 253.757 262.719 253.452C262.729 253.147 262.676 252.843 262.562 252.56C262.447 252.277 262.275 252.022 262.055 251.81C261.836 251.598 261.574 251.434 261.287 251.33C259.548 250.724 256.9 252.724 255.924 254.039C255.87 254.118 255.318 255.027 255.015 255.609C255.155 255.239 255.294 254.881 255.433 254.5C255.706 253.742 255.961 252.979 256.239 252.161L256.603 250.949C256.73 250.543 256.815 250.106 256.93 249.676C257.166 248.688 257.354 247.67 257.536 246.646C258.203 246.888 260.566 247.713 261.778 247.622C262.99 247.531 264.529 247.088 265.232 246.004C265.408 245.755 265.529 245.471 265.588 245.172C265.647 244.873 265.642 244.565 265.573 244.268C265.504 243.971 265.374 243.692 265.19 243.449C265.006 243.206 264.772 243.005 264.505 242.859C262.875 242.022 259.954 243.568 258.797 244.725C258.724 244.798 257.985 245.719 257.585 246.234C257.682 245.628 257.785 245.022 257.863 244.367C258.088 242.549 258.257 240.701 258.439 238.859C258.494 238.295 258.554 237.732 258.615 237.168C258.851 237.259 261.645 238.295 263.014 238.204C264.226 238.114 265.759 237.671 266.468 236.586C266.643 236.337 266.764 236.054 266.822 235.755C266.88 235.456 266.875 235.148 266.806 234.852C266.738 234.555 266.607 234.276 266.424 234.033C266.24 233.79 266.008 233.589 265.741 233.441C264.111 232.599 261.19 234.144 260.027 235.302C259.942 235.387 258.881 236.72 258.627 237.071C258.754 235.829 258.9 234.599 259.087 233.387C259.337 231.75 259.689 230.131 260.142 228.539C260.251 228.581 263.172 229.678 264.566 229.581C265.778 229.496 267.317 229.048 268.02 227.963C268.195 227.714 268.315 227.431 268.373 227.132C268.432 226.833 268.426 226.525 268.358 226.228C268.289 225.932 268.159 225.653 267.975 225.41C267.792 225.167 267.559 224.965 267.293 224.818C265.662 223.976 262.742 225.527 261.584 226.678C261.493 226.769 260.372 228.199 260.16 228.496C260.16 228.406 260.209 228.309 260.233 228.218C260.735 226.636 261.378 225.103 262.154 223.636C262.566 222.818 263.014 222.061 263.463 221.34C263.984 221.6 266.371 222.758 267.65 222.812C268.929 222.867 270.438 222.582 271.286 221.6C271.488 221.372 271.639 221.103 271.73 220.812C271.821 220.521 271.849 220.214 271.813 219.912C271.777 219.609 271.678 219.318 271.521 219.056C271.364 218.795 271.154 218.569 270.904 218.394C269.377 217.376 266.305 218.601 265.026 219.606C264.96 219.661 264.311 220.303 263.851 220.776C264.057 220.455 264.263 220.116 264.457 219.806C265.226 218.655 265.996 217.643 266.687 216.776C267.087 216.273 267.456 215.831 267.808 215.413C268.45 215.413 271.044 215.322 272.177 214.807C273.31 214.292 274.552 213.322 274.819 212.056C274.892 211.76 274.903 211.452 274.849 211.151C274.795 210.851 274.679 210.566 274.507 210.313C274.336 210.061 274.113 209.848 273.853 209.688C273.594 209.527 273.303 209.424 273.001 209.383C271.183 209.189 269.008 211.686 268.341 213.183C268.286 213.31 267.62 215.437 267.65 215.437H267.693C267.347 215.831 266.977 216.255 266.59 216.728C265.875 217.601 265.081 218.601 264.287 219.758C263.413 220.979 262.614 222.252 261.893 223.57C261.077 225.037 260.393 226.574 259.851 228.163C259.854 228.183 259.854 228.204 259.851 228.224C259.851 227.684 259.851 226.182 259.851 226.066C259.639 224.442 258.275 221.431 256.476 221.097C256.175 221.05 255.867 221.067 255.573 221.147C255.279 221.226 255.005 221.367 254.768 221.56C254.532 221.752 254.339 221.993 254.202 222.265C254.065 222.537 253.987 222.835 253.973 223.139C253.87 224.43 254.803 225.721 255.712 226.533C256.742 227.454 259.596 228.351 259.827 228.412C259.312 230.043 258.907 231.707 258.615 233.393C258.439 234.375 258.294 235.368 258.16 236.362C258.16 235.902 258.16 235.484 258.16 235.429C257.948 233.805 256.585 230.793 254.785 230.46C254.484 230.413 254.177 230.429 253.883 230.509C253.59 230.588 253.316 230.728 253.08 230.92C252.844 231.112 252.651 231.352 252.513 231.623C252.376 231.895 252.297 232.192 252.282 232.496C252.179 233.787 253.112 235.078 254.021 235.896C254.93 236.714 257.366 237.526 258.009 237.714C257.966 238.095 257.912 238.477 257.863 238.865C257.645 240.683 257.433 242.537 257.173 244.319C257.082 244.925 256.966 245.567 256.851 246.191C256.851 245.779 256.851 245.428 256.851 245.379C256.639 243.755 255.282 240.738 253.476 240.404C253.175 240.358 252.868 240.376 252.574 240.456C252.28 240.536 252.007 240.677 251.771 240.869C251.535 241.061 251.342 241.301 251.204 241.573C251.067 241.845 250.988 242.142 250.973 242.446C250.87 243.737 251.803 245.028 252.718 245.84C253.633 246.652 255.827 247.397 256.585 247.658C256.451 248.264 256.318 248.918 256.16 249.531C256.045 249.937 255.961 250.343 255.821 250.743C255.682 251.142 255.561 251.555 255.433 251.954C255.155 252.712 254.876 253.494 254.591 254.227L253.985 255.706C254.082 255.1 254.252 253.845 254.252 253.736C254.232 252.297 253.844 250.886 253.124 249.64C253.126 249.479 253.116 249.319 253.094 249.161C253.052 248.861 252.949 248.573 252.789 248.315C252.63 248.058 252.419 247.837 252.169 247.665C251.919 247.494 251.636 247.377 251.338 247.322C251.041 247.266 250.735 247.273 250.44 247.343C248.67 247.816 247.543 250.924 247.458 252.56C247.458 252.657 247.519 253.712 247.567 254.378C247.483 253.991 247.398 253.621 247.301 253.221C247.113 252.439 246.907 251.664 246.695 250.827C246.574 250.427 246.446 250.021 246.325 249.615C246.204 249.209 246.04 248.791 245.895 248.373C245.549 247.416 245.143 246.464 244.719 245.513C245.404 245.349 247.834 244.731 248.804 243.98C249.773 243.228 250.803 242.016 250.797 240.725C250.805 240.421 250.749 240.118 250.632 239.837C250.515 239.555 250.341 239.301 250.12 239.092C249.899 238.882 249.636 238.721 249.349 238.619C249.061 238.518 248.756 238.478 248.452 238.501C246.634 238.701 245.047 241.604 244.719 243.21C244.719 243.307 244.592 244.483 244.544 245.131C244.283 244.561 244.022 243.992 243.744 243.422C242.926 241.786 242.053 240.15 241.186 238.514L240.399 237.011C240.647 236.95 243.544 236.277 244.641 235.441C245.616 234.696 246.64 233.478 246.634 232.187C246.642 231.882 246.586 231.579 246.469 231.298C246.352 231.017 246.177 230.763 245.956 230.553C245.735 230.344 245.473 230.183 245.185 230.081C244.898 229.979 244.593 229.939 244.289 229.963C242.471 230.163 240.883 233.066 240.556 234.672C240.556 234.793 240.374 236.489 240.362 236.92C239.786 235.811 239.223 234.708 238.714 233.593C238.016 232.093 237.419 230.548 236.926 228.969C237.041 228.969 240.071 228.254 241.168 227.4C242.138 226.654 243.168 225.436 243.156 224.145C243.164 223.841 243.109 223.538 242.993 223.257C242.877 222.975 242.703 222.722 242.482 222.512C242.261 222.302 241.999 222.141 241.712 222.039C241.425 221.938 241.12 221.897 240.817 221.921C238.999 222.121 237.411 225.024 237.078 226.624C237.078 226.751 236.89 228.575 236.884 228.908L236.787 228.63C236.336 227.034 236.026 225.401 235.86 223.751C235.763 222.842 235.714 221.964 235.684 221.115C236.29 221.043 238.902 220.691 239.993 220.031C241.083 219.37 242.192 218.298 242.326 217.001C242.367 216.699 242.345 216.392 242.26 216.099C242.176 215.807 242.03 215.535 241.834 215.302C241.637 215.07 241.393 214.881 241.119 214.749C240.845 214.616 240.545 214.543 240.241 214.534C238.423 214.534 236.52 217.243 235.999 218.776C235.999 218.861 235.787 219.752 235.666 220.406C235.666 220.019 235.666 219.625 235.666 219.255C235.666 217.867 235.757 216.595 235.841 215.474C235.896 214.868 235.957 214.262 236.023 213.722C236.55 213.359 238.671 211.862 239.326 210.789C239.98 209.717 240.483 208.238 240.005 207.038C239.902 206.753 239.74 206.492 239.53 206.273C239.319 206.054 239.065 205.882 238.784 205.767C238.503 205.653 238.201 205.599 237.897 205.609C237.594 205.62 237.296 205.693 237.023 205.826C235.393 206.668 234.963 209.947 235.235 211.559C235.235 211.698 235.841 213.843 235.902 213.825H235.932C235.86 214.34 235.787 214.898 235.726 215.504C235.611 216.631 235.496 217.898 235.466 219.291C235.414 220.791 235.449 222.292 235.569 223.788C235.702 225.461 235.981 227.12 236.405 228.745V228.805C236.114 228.351 235.266 227.115 235.193 227.024C234.12 225.812 231.321 224.024 229.636 224.739C229.359 224.866 229.111 225.049 228.909 225.278C228.708 225.507 228.556 225.775 228.465 226.066C228.374 226.357 228.346 226.664 228.382 226.967C228.417 227.27 228.516 227.562 228.673 227.824C229.266 228.805 230.757 229.363 231.969 229.545Z" fill="#2AB0EC"/>
<path d="M263.408 220.928C263.408 220.928 264.014 218.788 264.014 218.649C264.244 217.031 263.723 213.765 262.075 212.965C261.797 212.839 261.496 212.774 261.191 212.772C260.886 212.771 260.585 212.835 260.306 212.958C260.027 213.082 259.778 213.263 259.574 213.49C259.37 213.716 259.217 213.983 259.124 214.274C258.681 215.486 259.239 216.982 259.905 218.007C260.681 219.213 263.378 220.928 263.408 220.928Z" fill="#2AB0EC"/>
<path d="M205.402 94.0806C205.402 94.0806 205.59 87.2389 209.535 85.2997C213.48 83.3605 213.704 89.7659 213.704 89.7659C213.704 89.7659 222.728 84.0332 224.685 88.3782C226.642 92.7232 223.909 94.826 223.909 94.826C223.909 94.826 231.921 94.5472 232.478 98.9407C233.036 103.334 228.897 105.485 228.897 105.485C228.897 105.485 233.848 109.527 232.108 111.394C230.369 113.26 226.564 113.394 226.564 113.394C226.564 113.394 228.721 117.727 224.958 119.266C221.194 120.805 216.892 117.939 216.892 117.939C216.892 117.939 217.558 119.926 214.735 119.423C211.911 118.92 209.056 117.605 207.305 113.46C205.554 109.315 203.293 97.5772 205.402 94.0806Z" fill="#263238" stroke="#263238" stroke-linecap="round" stroke-linejoin="round"/>
<path d="M163.746 226.218C163.746 226.218 161.498 234.799 161.534 235.75C161.57 236.702 160.789 238.859 161.449 239.471C162.686 240.479 163.996 241.393 165.37 242.204C165.93 242.197 166.476 242.031 166.946 241.725C167.097 241.589 167.219 241.423 167.304 241.237C167.388 241.052 167.433 240.851 167.436 240.647C167.436 240.325 166.534 238.98 166.412 238.665C166.291 238.35 168.067 234.247 168.739 232.205C169.243 230.382 169.604 228.522 169.818 226.642L163.746 226.218Z" fill="#BDBDBD" stroke="#263238" stroke-miterlimit="10"/>
<path d="M166.188 232.193C166.188 232.193 164.909 235.223 164.825 235.744C164.74 236.265 163.007 237.72 163.237 238.883C163.467 240.047 166.024 239.738 167.285 236.296" fill="#BDBDBD"/>
<path d="M166.188 232.193C166.188 232.193 164.909 235.223 164.825 235.744C164.74 236.265 163.007 237.72 163.237 238.883C163.467 240.047 166.024 239.738 167.285 236.296" stroke="#263238" stroke-miterlimit="10"/>
<path d="M171.915 179.605C171.915 179.605 170.842 197.106 170.436 198.651C170.03 200.196 165.158 214.31 164.085 218.649C163.427 221.336 162.96 224.065 162.686 226.818L169.224 228.193L172.897 212.062C172.897 212.062 177.696 197.36 176.72 190.47C176.22 186.455 174.549 182.676 171.915 179.605Z" fill="#2AB0EC" stroke="#263238" stroke-miterlimit="10"/>
<path d="M205.978 262.281C206.057 258.475 206.214 253.342 206.584 250.403C207.19 245.325 209.359 242.186 211.589 235.859C213.819 229.533 214.013 221.218 214.013 221.218L174.078 222.612C174.078 222.612 169.448 239.78 166.643 252.409C165.881 255.649 165.436 258.955 165.315 262.281" fill="#2AB0EC"/>
<path d="M205.978 262.281C206.057 258.475 206.214 253.342 206.584 250.403C207.19 245.325 209.359 242.186 211.589 235.859C213.819 229.533 214.013 221.218 214.013 221.218L174.078 222.612C174.078 222.612 169.448 239.78 166.643 252.409C165.881 255.649 165.436 258.955 165.315 262.281" stroke="#263238" stroke-miterlimit="10"/>
<path d="M179.308 229.048L212.535 229.981L213.238 227.412L179.308 229.048Z" fill="#263238" stroke="#263238" stroke-linecap="round" stroke-linejoin="round"/>
<path d="M177.63 261.675C177.63 261.675 176.975 240.895 176.957 229.618L177.63 261.675Z" fill="white"/>
<path d="M177.63 261.675C177.63 261.675 176.975 240.895 176.957 229.618" stroke="#263238" stroke-miterlimit="10"/>
<path d="M203.099 135.646L207.947 138.906C207.947 138.906 213.686 144.033 215.098 148.275C216.51 152.517 215.486 177.708 214.062 185.846C212.638 193.985 216.195 204.123 217.462 209.844C218.728 215.565 219.28 226.206 219.28 226.206C219.28 226.206 220.176 227.454 204.614 227.993C189.052 228.533 178.199 229.345 176.926 229.599C176.157 229.757 175.377 229.856 174.593 229.896L173.987 224.37L172.478 228.921L169.249 228.181C169.249 228.181 171.254 218.291 171.757 214.437C172.26 210.583 175.436 197.469 175.478 192.537C175.521 187.604 171.4 179.665 170.594 174.781C169.788 169.897 171.412 161.522 175.442 155.195C179.472 148.869 182.174 146.42 190.052 139.961C197.93 133.501 203.099 135.646 203.099 135.646Z" fill="#2AB0EC" stroke="#263238" stroke-miterlimit="10"/>
<path d="M190.471 209.486L206.73 211.329L205.815 207.075L195.67 206.202" stroke="#263238" stroke-miterlimit="10"/>
<path d="M184.786 205.966L183.962 208.753L188.04 209.214" stroke="#263238" stroke-miterlimit="10"/>
<path d="M190.889 178.108C190.125 177.4 189.423 176.628 188.792 175.799" stroke="#263238" stroke-miterlimit="10"/>
<path d="M196.543 182.883C196.543 182.883 194.828 181.586 192.949 179.974" stroke="#263238" stroke-miterlimit="10"/>
<path d="M203.1 135.646C203.1 135.646 197.93 133.495 190.053 139.96C182.175 146.426 179.478 148.881 175.43 155.195C173.012 159.099 171.404 163.45 170.703 167.988C170.8 168.46 170.903 168.939 171.018 169.43C173.273 178.956 175.781 183.562 175.781 183.562C175.781 183.562 180.145 161.855 187.738 153.056C195.331 144.257 207.942 138.906 207.942 138.906L203.1 135.646Z" fill="#2AB0EC" stroke="#263238" stroke-miterlimit="10"/>
<path d="M184.15 93.3049C184.15 93.3049 178.459 98.6195 178.035 102.807C177.611 106.994 177.169 110.606 176.46 111.957C175.751 113.309 172.175 114.194 173.387 116.236C174.599 118.278 175.733 118.236 175.733 118.236C175.733 118.236 177.55 127.271 178.932 128.537C180.314 129.804 185.204 129.077 185.204 129.077L186.719 140.033C186.719 140.033 176.545 149.056 174.563 161.631C172.581 174.205 174.848 181.38 174.848 181.38C174.848 181.38 176.175 161.57 180.756 154.153C185.338 146.736 195.979 139.712 197.548 138.445C199.118 137.179 203.099 135.634 203.099 135.634C203.099 135.634 201.209 131.392 200.954 129.477C200.7 127.562 200.784 124.744 201.142 123.974C201.499 123.205 207.856 120.896 210.232 113.612C212.607 106.328 209.111 97.7287 205.384 94.0684C201.657 90.4082 188.913 88.5902 184.15 93.3049Z" fill="#BDBDBD" stroke="#263238" stroke-miterlimit="10"/>
<path d="M210.256 113.624C212.68 106.352 209.135 97.7408 205.408 94.0806C201.681 90.4204 188.919 88.5903 184.156 93.3049C184.156 93.3049 183.853 93.5897 183.38 94.0806C185.191 93.6279 187.077 93.5659 188.913 93.8988C192.725 94.5048 192.64 97.5347 191.604 100.437C190.567 103.34 191.349 103.855 193.294 105.285C195.24 106.716 193.246 109.461 194.616 110.552C195.985 111.642 197.1 105.704 200.069 109.982C203.039 114.26 201.045 116.199 199.191 117.399C198.152 118.093 197.025 118.643 195.84 119.035C195.84 119.035 198.645 122.326 201.415 123.683C202.742 122.696 208.099 120.169 210.256 113.624Z" fill="#263238" stroke="#263238" stroke-linecap="round" stroke-linejoin="round"/>
<path d="M178.817 119.835C178.817 119.835 182.787 119.508 184.623 117.739" stroke="#263238" stroke-miterlimit="10"/>
<path d="M181.338 110.461C181.369 111.4 181.011 112.176 180.545 112.194C180.078 112.212 179.666 111.461 179.629 110.521C179.593 109.582 179.957 108.806 180.423 108.788C180.89 108.77 181.302 109.521 181.338 110.461Z" fill="#263238"/>
<path d="M179.629 106.625C179.629 106.625 180.908 104.904 182.738 106.934" stroke="#263238" stroke-miterlimit="10"/>
<path d="M185.205 129.089L189.937 127.307L186.641 133.228L185.205 129.089Z" fill="#263238" stroke="#263238" stroke-miterlimit="10"/>
<path d="M171.576 216.068L165.37 242.204L170.939 243.501L174.006 224.388L171.576 216.068Z" fill="white" stroke="#263238" stroke-miterlimit="10"/>
<path d="M177.06 153.492C175.868 156.086 175.029 158.827 174.563 161.643C172.581 174.211 174.848 181.392 174.848 181.392C174.848 181.392 176.163 161.849 180.665 154.323C179.436 154.184 178.226 153.905 177.06 153.492Z" fill="white" stroke="#263238" stroke-miterlimit="10"/>
<path d="M196.233 161.649L195.809 183.829L156.995 190.228L157.844 200.681C157.844 200.681 179.387 201.105 189.41 200.251C199.433 199.397 208.196 198.76 209.456 197.694C210.717 196.627 214.371 176.011 215.862 161.51C217.352 147.008 214.371 142.118 208.402 142.954" fill="#2AB0EC"/>
<path d="M196.233 161.649L195.809 183.829L156.995 190.228L157.844 200.681C157.844 200.681 179.387 201.105 189.41 200.251C199.433 199.397 208.196 198.76 209.456 197.694C210.717 196.627 214.371 176.011 215.862 161.51C217.352 147.008 214.371 142.118 208.402 142.954" stroke="#263238" stroke-miterlimit="10"/>
<path d="M133.774 189.289L130.665 198.718L133.695 200.366C133.695 200.366 137.543 203.348 139.652 204.96C141.761 206.572 143.379 206.572 144.5 206.075C145.621 205.578 150.705 198.378 151.323 197.015C151.942 195.651 148.966 191.561 145.991 189.816C143.015 188.07 140.537 188.083 138.791 188.604C137.139 188.963 135.462 189.192 133.774 189.289Z" fill="white" stroke="#263238" stroke-miterlimit="10"/>
<path d="M156.996 190.228L152.087 189.804C150.547 189.402 148.979 189.116 147.397 188.949C146.118 188.949 144.409 190.228 143.555 190.87C142.7 191.513 133.319 201.748 133.319 201.748C133.319 201.748 134.174 203.451 135.452 203.026C136.731 202.602 139.088 201.53 139.088 201.53C139.088 201.53 136.531 204.093 137.81 205.372C139.088 206.65 141.222 206.65 141.222 206.65L142.718 205.796C143.347 206.292 144.071 206.655 144.845 206.862C145.912 207.074 147.621 206.65 149.087 205.796C150.554 204.941 154.366 200.493 154.366 200.493L157.638 199.227L156.996 190.228Z" fill="#BDBDBD" stroke="#263238" stroke-miterlimit="10"/>
<path d="M135.464 189.695C135.464 189.695 141.67 186.095 144.397 187.089C147.124 188.083 150.729 194.161 149.736 195.033C148.742 195.906 147.13 195.524 146.263 194.658C145.538 194 144.749 193.417 143.906 192.918C142.272 193.836 140.44 194.348 138.567 194.409" fill="white"/>
<path d="M135.464 189.695C135.464 189.695 141.67 186.095 144.397 187.089C147.124 188.083 150.729 194.161 149.736 195.033C148.742 195.906 147.13 195.524 146.263 194.658C145.538 194 144.749 193.417 143.906 192.918C142.272 193.836 140.44 194.348 138.567 194.409" stroke="#263238" stroke-miterlimit="10"/>
<path d="M153.971 203.784L152.002 202.73C151.843 202.645 151.703 202.531 151.588 202.392C151.474 202.254 151.388 202.094 151.336 201.922C151.284 201.751 151.266 201.57 151.283 201.392C151.301 201.213 151.354 201.04 151.438 200.881C151.523 200.723 151.638 200.583 151.777 200.47C151.915 200.356 152.075 200.271 152.247 200.219C152.418 200.167 152.599 200.15 152.777 200.168C152.956 200.186 153.129 200.239 153.287 200.324L155.256 201.372C155.575 201.543 155.814 201.834 155.919 202.18C156.025 202.526 155.989 202.9 155.82 203.22C155.649 203.54 155.358 203.778 155.012 203.884C154.665 203.989 154.291 203.953 153.971 203.784Z" fill="white" stroke="#263238" stroke-miterlimit="10"/>
<path d="M152.232 205.893L150.263 204.838C149.952 204.668 149.719 204.382 149.614 204.043C149.509 203.704 149.539 203.337 149.699 203.02C149.871 202.71 150.157 202.479 150.496 202.375C150.835 202.271 151.201 202.302 151.517 202.463L153.487 203.511C153.799 203.681 154.033 203.966 154.138 204.306C154.244 204.645 154.212 205.013 154.05 205.329C153.881 205.642 153.596 205.875 153.256 205.981C152.916 206.086 152.549 206.054 152.232 205.893Z" fill="white" stroke="#263238" stroke-miterlimit="10"/>
<path d="M150.245 207.753L148.275 206.699C148.116 206.615 147.976 206.5 147.862 206.361C147.748 206.223 147.662 206.063 147.611 205.891C147.559 205.719 147.541 205.539 147.56 205.36C147.578 205.181 147.632 205.008 147.718 204.85C147.802 204.692 147.917 204.552 148.056 204.439C148.195 204.325 148.354 204.24 148.526 204.188C148.698 204.137 148.878 204.119 149.056 204.137C149.235 204.155 149.408 204.208 149.566 204.293L151.535 205.347C151.694 205.432 151.833 205.547 151.947 205.686C152.061 205.824 152.146 205.984 152.198 206.156C152.249 206.328 152.267 206.508 152.249 206.686C152.231 206.865 152.178 207.038 152.093 207.196C152.008 207.354 151.893 207.494 151.755 207.607C151.616 207.721 151.456 207.806 151.284 207.858C151.113 207.91 150.933 207.927 150.754 207.909C150.576 207.891 150.403 207.838 150.245 207.753Z" fill="white" stroke="#263238" stroke-miterlimit="10"/>
<path d="M146.063 207.844L145.548 207.571C145.39 207.487 145.249 207.373 145.135 207.234C145.021 207.096 144.935 206.936 144.883 206.764C144.83 206.593 144.812 206.412 144.83 206.234C144.847 206.055 144.9 205.881 144.985 205.723C145.156 205.404 145.446 205.165 145.792 205.06C146.139 204.954 146.513 204.99 146.833 205.16L147.348 205.438C147.507 205.522 147.647 205.637 147.761 205.775C147.876 205.914 147.961 206.074 148.014 206.245C148.066 206.417 148.084 206.597 148.067 206.776C148.049 206.955 147.996 207.128 147.912 207.287C147.827 207.445 147.712 207.585 147.573 207.698C147.435 207.812 147.275 207.897 147.103 207.949C146.931 208.001 146.751 208.018 146.573 208C146.394 207.982 146.221 207.929 146.063 207.844Z" fill="white" stroke="#263238" stroke-miterlimit="10"/>
<path d="M133.774 189.289L107.728 178.278L108.692 195.53L130.198 200.457L133.774 189.289Z" fill="#263238" stroke="#263238" stroke-linecap="round" stroke-linejoin="round"/>
<path d="M130.198 200.457L133.774 189.289L130.132 187.677L130.059 188.046L126.726 199.615L130.198 200.457Z" fill="white" stroke="#263238" stroke-miterlimit="10"/>
<path d="M93.0933 120.278L99.7592 123.374C99.7592 123.374 102.559 131.307 101.626 131.537C100.692 131.767 93.6932 126.174 93.6932 126.174L93.0933 120.278Z" fill="white" stroke="#263238" stroke-linecap="round" stroke-linejoin="round"/>
<path d="M96.9652 118.69L97.4318 116.018C97.4318 116.018 103.613 116.442 106.085 116.424C108.558 116.405 110.715 116.09 110.697 113.466C110.679 110.842 109.237 101.892 109.237 101.892C109.237 101.892 112.012 101.256 113.085 100.013C114.157 98.771 112.606 97.2378 111.206 95.3895C109.806 93.5412 108.552 91.5475 108.388 89.3841C108.225 87.2207 104.467 80.1427 104.467 80.1427C104.467 80.1427 105.073 79.0579 103.055 76.7552C101.037 74.4524 90.6871 74.0524 84.0636 77.3612C77.44 80.6699 75.9311 85.4451 75.9614 90.6931C75.9917 95.941 78.9914 103.34 78.9914 103.34C78.9914 103.34 77.034 111.382 76.8825 111.824C76.731 112.267 74.9736 115.715 74.9736 115.715C74.9736 115.715 83.2576 121.49 86.2815 124.083C89.3054 126.677 96.135 131.113 96.1774 128.713C96.2198 126.313 96.4925 120.896 96.4925 120.896L96.9652 118.69Z" fill="white" stroke="#263238" stroke-linecap="round" stroke-linejoin="round"/>
<path d="M106.098 93.6261C106.134 94.523 105.928 95.2562 105.631 95.2683C105.334 95.2805 105.055 94.5714 105.025 93.6746C104.995 92.7777 105.189 92.0444 105.492 92.0323C105.795 92.0202 106.055 92.7292 106.098 93.6261Z" fill="#263238"/>
<path d="M101.753 90.6628C101.753 90.6628 103.129 88.3358 106.692 89.7053" stroke="#263238" stroke-width="2" stroke-linecap="round" stroke-linejoin="round"/>
<path d="M110.697 113.466C110.697 110.836 109.237 101.892 109.237 101.892C109.237 101.892 107.534 100.977 104.292 101.765C101.05 102.552 100.165 107.825 99.5467 108.431C98.9286 109.037 94.8987 105.401 93.3353 102.91C91.7718 100.419 90.6689 96.1591 90.4992 93.6685C90.3295 91.1779 96.1895 89.9234 97.1046 87.6085C98.0196 85.2936 93.6989 82.8272 95.2078 81.2819C96.7167 79.7367 99.8376 80.3305 101.383 80.6275C102.436 80.7699 103.508 80.6014 104.467 80.1427C104.467 80.1427 105.073 79.0579 103.055 76.7552C101.037 74.4524 90.6871 74.0524 84.0635 77.3612C77.44 80.6699 75.9311 85.4451 75.9614 90.6931C75.9917 94.935 77.9551 100.607 78.6944 102.607C79.3201 102.877 79.9944 103.018 80.676 103.019C81.282 102.861 81.7426 101.007 82.0395 99.1467C82.3365 97.2863 86.8026 95.1047 86.8026 95.1047C86.8026 95.1047 87.6086 100.662 87.6147 101.74C87.6207 102.819 87.0087 108.231 89.9902 110.83C92.3246 112.765 94.8135 114.506 97.4318 116.036C97.4318 116.036 103.613 116.46 106.085 116.442C108.558 116.424 110.715 116.09 110.697 113.466Z" fill="#263238" stroke="#263238" stroke-linecap="round" stroke-linejoin="round"/>
<path d="M87.7541 98.9346C87.7541 98.9346 86.4694 91.5293 84.3121 91.8505C82.1547 92.1717 80.9306 94.9593 82.0335 98.5165C83.1364 102.074 85.2998 101.74 86.53 101.425" fill="white"/>
<path d="M87.7541 98.9346C87.7541 98.9346 86.4694 91.5293 84.3121 91.8505C82.1547 92.1717 80.9306 94.9593 82.0335 98.5165C83.1364 102.074 85.2998 101.74 86.53 101.425" stroke="#263238" stroke-linecap="round" stroke-linejoin="round"/>
<path d="M102.922 104.552C102.922 104.552 104.165 106.091 107.407 106.073" stroke="white" stroke-linecap="round" stroke-linejoin="round"/>
<path d="M68.2472 262.281H100.971C101.08 260.56 102.353 253.942 102.353 249.603C102.353 244.592 105.801 212.262 105.801 212.262L63.2417 211.704L64.6355 231.49L68.2472 262.281Z" fill="#263238" stroke="#263238" stroke-linecap="round" stroke-linejoin="round"/>
<path d="M72.4893 116.842C72.4893 116.842 65.0295 126.41 62.9267 131.773C60.8239 137.137 59.1937 138.07 59.6603 144.833C60.127 151.596 63.3993 178.653 63.3993 178.653L56.8667 213.88C64.577 216.642 72.7042 218.061 80.8944 218.073C94.4202 218.073 100.286 216.91 101.189 216.443C102.092 215.977 110.279 213.88 110.279 213.88C110.279 213.88 110.279 173.993 107.71 160.231C105.14 146.469 101.88 135.991 100.717 133.404C99.553 130.816 95.814 122.441 95.814 122.441L72.4893 116.842Z" fill="#263238" stroke="#263238" stroke-linecap="round" stroke-linejoin="round"/>
<path d="M100.735 133.404C99.5652 130.84 95.8323 122.441 95.8323 122.441L72.4894 116.842C72.4894 116.842 70.9138 118.866 69.0049 121.575C74.0892 124.526 86.6757 131.822 87.4211 132.004C88.3543 132.24 93.0205 131.773 93.0205 131.773L90.9359 134.337C90.9359 134.337 96.5353 138.773 98.4017 140.633C99.3834 141.615 102.232 144.209 104.716 146.451C103.025 139.748 101.462 135.016 100.735 133.404Z" fill="#263238" stroke="#263238" stroke-linecap="round" stroke-linejoin="round"/>
<path d="M90.0024 127.574L97.9349 133.87L104.461 145.536L100.268 128.507L91.6386 123.611L90.0024 127.574Z" fill="white" stroke="#263238" stroke-linecap="round" stroke-linejoin="round"/>
<path d="M74.1438 112.412L98.5654 123.417V132.046L70.6411 117.775L74.1438 112.412Z" fill="white" stroke="#263238" stroke-linecap="round" stroke-linejoin="round"/>
<path d="M106.437 200.687H64.2358V234.835H106.437V200.687Z" fill="#2AB0EC" stroke="#263238" stroke-miterlimit="10"/>
<path d="M87.9239 216.964C87.9239 216.964 91.0629 221.055 92.2931 221.467C93.3288 221.892 94.1852 222.663 94.7171 223.648C95.2625 224.467 95.9291 230.605 96.3533 231.017C96.7775 231.429 96.7653 232.381 95.2625 231.696C93.7596 231.011 92.8385 228.666 92.8385 228.666L93.3839 234.12C93.3839 234.12 94.5959 234.393 93.6566 235.078C92.7173 235.762 91.881 236.714 91.0629 236.29C90.335 235.856 89.651 235.353 89.0207 234.787C88.0461 235.114 87.0081 235.207 85.9907 235.059C84.4939 234.787 84.7788 235.332 83.4031 234.375C82.0275 233.417 82.0336 234.514 81.3549 232.738C80.2976 229.561 79.4315 226.323 78.7612 223.042C78.4885 221.267 78.2158 218.801 78.2158 218.801L87.9239 216.964Z" fill="white" stroke="#263238" stroke-linecap="round" stroke-linejoin="round"/>
<path d="M88.4755 214.371L89.4269 218.601L77.6948 220.237L77.1494 216.007L88.4755 214.371Z" fill="white" stroke="#263238" stroke-linecap="round" stroke-linejoin="round"/>
<path d="M73.4407 125.247C73.4407 125.247 65.2779 127.81 65.0476 131.543C64.8173 135.276 62.1085 180.55 63.2781 183.58C64.4477 186.61 75.9192 217.316 75.9192 217.316L89.2147 215.686C89.2147 215.686 82.4033 180.077 82.1852 179.374C81.967 178.671 86.7544 139.003 86.7544 139.003" fill="#263238"/>
<path d="M73.4407 125.247C73.4407 125.247 65.2779 127.81 65.0476 131.543C64.8173 135.276 62.1085 180.55 63.2781 183.58C64.4477 186.61 75.9192 217.316 75.9192 217.316L89.2147 215.686C89.2147 215.686 82.4033 180.077 82.1852 179.374C81.967 178.671 86.7544 139.003 86.7544 139.003" stroke="#263238" stroke-linecap="round" stroke-linejoin="round"/>
<path d="M85.1727 150.396L82.167 179.374L85.0333 197.379" stroke="#878787" stroke-linecap="round" stroke-linejoin="round"/>
<path d="M85.6332 145.96L85.4756 147.499" stroke="#878787" stroke-linecap="round" stroke-linejoin="round"/>
<path d="M64.1083 141.475L63.2114 168.685" stroke="#878787" stroke-linecap="round" stroke-linejoin="round"/>
<path d="M94.6019 192.628L103.571 192.3L104.377 195.53L89.5176 196.482" stroke="#878787" stroke-linecap="round" stroke-linejoin="round"/>
<path d="M87.1299 192.894L91.9051 192.725" stroke="#878787" stroke-linecap="round" stroke-linejoin="round"/>
<path d="M70.9863 122.344L87.4391 132.004L93.0385 131.773L90.9357 134.337L101.777 142.972" stroke="#878787" stroke-linecap="round" stroke-linejoin="round"/>
<path d="M0.666504 262.281H277.297" stroke="#263238" stroke-miterlimit="10"/>
<path d="M78.8462 12.5439V53.5031" stroke="#263238" stroke-miterlimit="10"/>
<path d="M141.761 12.5439V53.5031" stroke="#263238" stroke-miterlimit="10"/>
<path d="M204.675 12.5439V53.5031" stroke="#263238" stroke-miterlimit="10"/>
</svg>
